SplineFontDB: 3.2
FontName: AksharyoginiMarathiNormal
FullName: Aksharyogini Marathi Normal
FamilyName: AksharyoginiMarathi
Weight: Normal
Copyright: Copyright (c) 2013 Yogini Joglekar. Usage of this font "Aksharyogini2" is subject to the terms and conditions mentioned on the website http://aksharyogini.sudhanwa.com.\n\nCopyright (c) 2024, Abhishek Deshpande\n\nThe font was modified by Abhishek Deshpande on 29th July, 2024 to repair the oddly formed "Devanagari Chandra A" character and to remove buggy implementation of Latin-1 Suppliment. The newer copyright notice is limited to these contributions only.\n\nThis Font Software is licensed under the SIL Open Font License, Version 1.1.
Version: 1.1
ItalicAngle: 0
UnderlinePosition: -775
UnderlineWidth: 50
Ascent: 1638
Descent: 410
InvalidEm: 0
sfntRevision: 0x00010000
LayerCount: 2
Layer: 0 1 "Back" 1
Layer: 1 1 "Fore" 0
XUID: [1021 698 851217018 14508]
StyleMap: 0x0040
FSType: 0
OS2Version: 2
OS2_WeightWidthSlopeOnly: 0
OS2_UseTypoMetrics: 0
CreationTime: 1382825946
ModificationTime: 1722264297
PfmFamily: 81
TTFWeight: 400
TTFWidth: 5
LineGap: 0
VLineGap: 0
Panose: 0 0 4 0 0 0 0 0 0 0
OS2TypoAscent: 1788
OS2TypoAOffset: 0
OS2TypoDescent: -661
OS2TypoDOffset: 0
OS2TypoLinegap: 0
OS2WinAscent: 1788
OS2WinAOffset: 0
OS2WinDescent: 661
OS2WinDOffset: 0
HheadAscent: 1875
HheadAOffset: 0
HheadDescent: -715
HheadDOffset: 0
OS2SubXSize: 1434
OS2SubYSize: 1331
OS2SubXOff: 0
OS2SubYOff: 293
OS2SupXSize: 1434
OS2SupYSize: 1331
OS2SupXOff: 0
OS2SupYOff: 928
OS2StrikeYSize: 102
OS2StrikeYPos: 530
OS2Vendor: '    '
OS2CodePages: 00000003.00000000
OS2UnicodeRanges: 0000800f.00000000.00000000.00000000
Lookup: 4 0 0 "'abvs' Above Base Substitutions in Devanagari lookup 0" { "'abvs' Above Base Substitutions in Devanagari lookup 0 subtable"  } ['abvs' ('deva' <'dflt' > ) ]

StartChar: .notdef
Encoding: 65536 -1 0
Width: 1024
GlyphClass: 2
Flags: W
LayerCount: 2
Fore
SplineSet
128 0 m 1,0,-1
 128 1875 l 1,1,-1
 896 1875 l 1,2,-1
 896 0 l 1,3,-1
 128 0 l 1,0,-1
256 128 m 1,4,-1
 768 128 l 1,5,-1
 768 1747 l 1,6,-1
 256 1747 l 1,7,-1
 256 128 l 1,4,-1
EndSplineSet
Validated: 1
EndChar

StartChar: exclam
Encoding: 33 33 2
Width: 915
GlyphClass: 2
Flags: W
LayerCount: 2
Fore
SplineSet
770 1338 m 1,0,-1
 730 358 l 1,1,-1
 635 413 l 1,2,-1
 600 1443 l 1,3,-1
 770 1338 l 1,0,-1
810 93 m 1,4,-1
 675 -43 l 1,5,-1
 540 90 l 1,6,-1
 675 225 l 1,7,-1
 810 93 l 1,4,-1
EndSplineSet
Validated: 1
EndChar

StartChar: quotedbl
Encoding: 34 34 3
Width: 727
GlyphClass: 2
Flags: W
LayerCount: 2
Fore
SplineSet
609 1144 m 0,0,1
 609 1068 609 1068 592 984 c 2,2,-1
 543 729 l 1,3,-1
 501 729 l 1,4,-1
 435 1088 l 2,5,6
 433 1110 433 1110 433 1131 c 0,7,8
 433 1237 433 1237 522 1237 c 0,9,10
 609 1237 609 1237 609 1144 c 0,0,1
290 1143 m 0,11,12
 290 1109 290 1109 267 985 c 2,13,-1
 220 729 l 1,14,-1
 183 729 l 1,15,-1
 135 986 l 2,16,17
 116 1089 116 1089 116 1131 c 0,18,19
 116 1237 116 1237 201 1237 c 0,20,21
 290 1237 290 1237 290 1143 c 0,11,12
EndSplineSet
Validated: 1
EndChar

StartChar: numbersign
Encoding: 35 35 4
Width: 891
GlyphClass: 2
Flags: W
LayerCount: 2
Fore
SplineSet
859 401 m 1,0,-1
 622 401 l 1,1,-1
 541 6 l 1,2,-1
 471 6 l 1,3,-1
 550 401 l 1,4,-1
 255 401 l 1,5,-1
 172 6 l 1,6,-1
 100 6 l 1,7,-1
 181 401 l 1,8,-1
 32 401 l 1,9,-1
 32 473 l 1,10,-1
 195 473 l 1,11,-1
 255 771 l 1,12,-1
 32 771 l 1,13,-1
 32 841 l 1,14,-1
 271 841 l 1,15,-1
 351 1237 l 1,16,-1
 423 1237 l 1,17,-1
 344 841 l 1,18,-1
 637 841 l 1,19,-1
 721 1237 l 1,20,-1
 793 1237 l 1,21,-1
 711 841 l 1,22,-1
 859 841 l 1,23,-1
 859 771 l 1,24,-1
 698 771 l 1,25,-1
 637 473 l 1,26,-1
 859 473 l 1,27,-1
 859 401 l 1,0,-1
626 771 m 1,28,-1
 329 771 l 1,29,-1
 268 473 l 1,30,-1
 563 473 l 1,31,-1
 626 771 l 1,28,-1
EndSplineSet
Validated: 1
EndChar

StartChar: dollar
Encoding: 36 36 5
Width: 891
GlyphClass: 2
Flags: W
LayerCount: 2
Fore
SplineSet
801 322 m 0,0,1
 801 185 801 185 695 97 c 0,2,3
 600 18 600 18 458 6 c 1,4,-1
 458 -106 l 1,5,-1
 402 -106 l 1,6,-1
 402 6 l 1,7,8
 246 12 246 12 94 74 c 1,9,-1
 94 321 l 1,10,-1
 132 321 l 1,11,12
 151 86 151 86 402 62 c 1,13,-1
 402 570 l 1,14,15
 206 691 206 691 141 784 c 0,16,17
 95 850 95 850 95 945 c 0,18,19
 95 1068 95 1068 190 1146 c 0,20,21
 273 1214 273 1214 402 1229 c 1,22,-1
 402 1309 l 1,23,-1
 458 1309 l 1,24,-1
 458 1229 l 1,25,26
 528 1225 528 1225 578 1212 c 0,27,28
 604 1206 604 1206 745 1152 c 1,29,-1
 745 892 l 1,30,-1
 711 892 l 1,31,32
 700 1023 700 1023 644 1088 c 0,33,34
 585 1158 585 1158 458 1171 c 1,35,-1
 458 729 l 1,36,37
 646 597 646 597 683 562 c 0,38,39
 801 450 801 450 801 322 c 0,0,1
402 765 m 1,40,-1
 402 1170 l 1,41,42
 231 1149 231 1149 231 1002 c 0,43,44
 231 878 231 878 402 765 c 1,40,-1
663 279 m 0,45,46
 663 358 663 358 593 428 c 0,47,48
 559 463 559 463 458 533 c 1,49,-1
 458 62 l 1,50,51
 524 74 524 74 558 94 c 0,52,53
 663 159 663 159 663 279 c 0,45,46
EndSplineSet
Validated: 1
EndChar

StartChar: percent
Encoding: 37 37 6
Width: 1484
GlyphClass: 2
Flags: W
LayerCount: 2
Fore
SplineSet
1422 298 m 0,0,1
 1422 170 1422 170 1364 82 c 0,2,3
 1296 -19 1296 -19 1174 -19 c 0,4,5
 1028 -19 1028 -19 957 132 c 0,6,7
 922 205 922 205 922 298 c 0,8,9
 922 498 922 498 1051 578 c 0,10,11
 1110 616 1110 616 1171 616 c 0,12,13
 1320 616 1320 616 1389 462 c 0,14,15
 1422 388 1422 388 1422 298 c 0,0,1
1211 1237 m 1,16,-1
 351 -19 l 1,17,-1
 274 -19 l 1,18,-1
 1134 1237 l 1,19,-1
 1211 1237 l 1,16,-1
564 916 m 0,20,21
 564 788 564 788 505 700 c 0,22,23
 437 599 437 599 315 599 c 0,24,25
 166 599 166 599 97 749 c 0,26,27
 63 824 63 824 63 916 c 0,28,29
 63 1117 63 1117 193 1199 c 0,30,31
 253 1237 253 1237 317 1237 c 0,32,33
 436 1237 436 1237 504 1132 c 0,34,35
 564 1041 564 1041 564 916 c 0,20,21
1285 296 m 0,36,37
 1285 569 1285 569 1172 569 c 0,38,39
 1061 569 1061 569 1061 292 c 0,40,41
 1061 30 1061 30 1172 30 c 0,42,43
 1285 30 1285 30 1285 296 c 0,36,37
426 911 m 0,44,45
 426 1188 426 1188 314 1188 c 0,46,47
 201 1188 201 1188 201 917 c 0,48,49
 201 713 201 713 266 658 c 0,50,51
 285 642 285 642 311 642 c 0,52,53
 426 642 426 642 426 911 c 0,44,45
EndSplineSet
Validated: 1
EndChar

StartChar: ampersand
Encoding: 38 38 7
Width: 1386
GlyphClass: 2
Flags: W
LayerCount: 2
Fore
SplineSet
1332 242 m 1,0,1
 1269 3 1269 3 1062 3 c 0,2,3
 917 3 917 3 757 173 c 1,4,5
 566 3 566 3 378 3 c 0,6,7
 252 3 252 3 163 68 c 0,8,9
 65 141 65 141 65 262 c 0,10,11
 65 496 65 496 425 689 c 1,12,13
 355 845 355 845 355 949 c 0,14,15
 355 1097 355 1097 465 1176 c 0,16,17
 550 1237 550 1237 659 1237 c 0,18,19
 756 1237 756 1237 823 1180 c 0,20,21
 893 1120 893 1120 893 1024 c 0,22,23
 893 916 893 916 797 831 c 0,24,25
 739 779 739 779 606 710 c 1,26,27
 717 514 717 514 837 350 c 1,28,29
 990 533 990 533 990 658 c 0,30,31
 990 747 990 747 909 757 c 1,32,-1
 909 790 l 1,33,-1
 1275 790 l 1,34,-1
 1275 757 l 1,35,36
 1184 750 1184 750 1135 696 c 0,37,38
 1113 673 1113 673 1050 558 c 0,39,40
 974 420 974 420 878 300 c 1,41,42
 1017 137 1017 137 1139 137 c 0,43,44
 1264 137 1264 137 1300 266 c 1,45,-1
 1332 242 l 1,0,1
792 1029 m 0,46,47
 792 1089 792 1089 754.5 1131 c 128,-1,48
 717 1173 717 1173 657 1173 c 0,49,50
 593 1173 593 1173 548.5 1127.5 c 128,-1,51
 504 1082 504 1082 504 1017 c 0,52,53
 504 939 504 939 577 767 c 1,54,55
 792 869 792 869 792 1029 c 0,46,47
712 223 m 1,56,57
 544 452 544 452 455 631 c 1,58,59
 245 511 245 511 245 342 c 0,60,61
 245 244 245 244 307 176 c 128,-1,62
 369 108 369 108 467 108 c 0,63,64
 570 108 570 108 712 223 c 1,56,57
EndSplineSet
Validated: 1
EndChar

StartChar: quotesingle
Encoding: 39 39 8
Width: 321
GlyphClass: 2
Flags: W
LayerCount: 2
Fore
SplineSet
245 1144 m 0,0,1
 245 1109 245 1109 223 985 c 2,2,-1
 176 729 l 1,3,-1
 137 729 l 1,4,-1
 90 986 l 2,5,6
 70 1096 70 1096 70 1131 c 0,7,8
 70 1237 70 1237 155 1237 c 0,9,10
 245 1237 245 1237 245 1144 c 0,0,1
EndSplineSet
Validated: 1
EndChar

StartChar: parenleft
Encoding: 40 40 9
Width: 795
GlyphClass: 2
Flags: W
LayerCount: 2
Fore
SplineSet
680 1513 m 1,0,1
 658 1499 658 1499 620 1473 c 0,2,3
 472 1359 472 1359 360 1133 c 0,4,5
 265 941 265 941 265 660 c 0,6,7
 265 518 265 518 290 395 c 0,8,9
 337 164 337 164 490 -25 c 0,10,11
 542 -89 542 -89 635 -168 c 1,12,-1
 598 -225 l 1,13,14
 509 -165 509 -165 453 -110 c 0,15,16
 197 139 197 139 131 469 c 0,17,18
 110 575 110 575 110 680 c 0,19,20
 110 987 110 987 230 1173 c 0,21,22
 344 1349 344 1349 508 1480 c 0,23,24
 562 1524 562 1524 645 1575 c 1,25,-1
 680 1513 l 1,0,1
EndSplineSet
Validated: 1
EndChar

StartChar: parenright
Encoding: 41 41 10
Width: 745
GlyphClass: 2
Flags: W
LayerCount: 2
Fore
SplineSet
650 590 m 0,0,1
 650 372 650 372 567 204 c 0,2,3
 491 50 491 50 320 -105 c 0,4,5
 273 -148 273 -148 185 -210 c 1,6,-1
 150 -153 l 1,7,8
 210 -105 210 -105 245 -68 c 0,9,10
 510 216 510 216 510 623 c 0,11,12
 510 781 510 781 468 930 c 0,13,14
 415 1113 415 1113 258 1288 c 0,15,16
 207 1343 207 1343 110 1425 c 1,17,-1
 143 1483 l 1,18,19
 229 1415 229 1415 285 1363 c 0,20,21
 452 1205 452 1205 548 1035 c 0,22,23
 650 853 650 853 650 590 c 0,0,1
EndSplineSet
Validated: 1
EndChar

StartChar: asterisk
Encoding: 42 42 11
Width: 891
GlyphClass: 2
Flags: W
LayerCount: 2
Fore
SplineSet
766 1048 m 0,0,1
 766 978 766 978 593 940 c 0,2,3
 527 925 527 925 482 906 c 1,4,5
 528 882 528 882 592 870 c 0,6,7
 763 839 763 839 763 760 c 0,8,9
 763 734 763 734 743.5 715 c 128,-1,10
 724 696 724 696 698 696 c 0,11,12
 639 696 639 696 554 796 c 0,13,14
 518 839 518 839 465 876 c 1,15,16
 467 827 467 827 485 768 c 0,17,18
 517 666 517 666 517 628 c 0,19,20
 517 598 517 598 499 573 c 0,21,22
 480 545 480 545 452 545 c 0,23,24
 375 545 375 545 375 629 c 0,25,26
 375 666 375 666 392 720 c 0,27,28
 418 802 418 802 420 810 c 0,29,30
 425 832 425 832 430 876 c 1,31,32
 377 841 377 841 340 800 c 0,33,34
 276 728 276 728 244 709 c 0,35,36
 221 696 221 696 197 696 c 0,37,38
 170 696 170 696 148 714.5 c 128,-1,39
 126 733 126 733 126 760 c 0,40,41
 126 814 126 814 197 845 c 0,42,43
 221 856 221 856 304 873 c 0,44,45
 358 884 358 884 410 906 c 1,46,47
 364 929 364 929 298 943 c 0,48,49
 191 965 191 965 165 984 c 0,50,51
 126 1012 126 1012 126 1053 c 0,52,53
 126 1078 126 1078 146 1097 c 128,-1,54
 166 1116 166 1116 191 1116 c 0,55,56
 253 1116 253 1116 332 1024 c 0,57,58
 380 969 380 969 430 938 c 1,59,60
 426 998 426 998 405 1057 c 0,61,62
 376 1142 376 1142 376 1175 c 0,63,64
 376 1267 376 1267 450 1267 c 0,65,66
 517 1267 517 1267 517 1177 c 0,67,68
 517 1141 517 1141 494 1063 c 0,69,70
 469 977 469 977 465 938 c 1,71,72
 514 969 514 969 552 1012 c 0,73,74
 640 1114 640 1114 698 1114 c 0,75,76
 766 1114 766 1114 766 1048 c 0,0,1
EndSplineSet
Validated: 1
EndChar

StartChar: plus
Encoding: 43 43 12
Width: 1005
GlyphClass: 2
Flags: W
LayerCount: 2
Fore
SplineSet
970 587 m 1,0,-1
 535 587 l 1,1,-1
 535 153 l 1,2,-1
 465 153 l 1,3,-1
 465 587 l 1,4,-1
 32 587 l 1,5,-1
 32 658 l 1,6,-1
 465 658 l 1,7,-1
 465 1091 l 1,8,-1
 535 1091 l 1,9,-1
 535 658 l 1,10,-1
 970 658 l 1,11,-1
 970 587 l 1,0,-1
EndSplineSet
Validated: 1
EndChar

StartChar: comma
Encoding: 44 44 13
Width: 495
GlyphClass: 2
Flags: W
LayerCount: 2
Fore
SplineSet
435 90 m 0,0,1
 435 -7 435 -7 350 -164 c 2,2,-1
 293 -270 l 1,3,-1
 230 -230 l 1,4,-1
 284 -138 l 2,5,6
 323 -72 323 -72 319 0 c 0,7,8
 316 39 316 39 288 75 c 0,9,10
 263 106 263 106 200 140 c 1,11,-1
 298 268 l 1,12,13
 342 239 342 239 410 170 c 1,14,15
 435 130 435 130 435 90 c 0,0,1
EndSplineSet
Validated: 33
EndChar

StartChar: hyphen
Encoding: 45 45 14
AltUni2: 002010.ffffffff.0 002010.ffffffff.0
Width: 693
GlyphClass: 2
Flags: W
LayerCount: 2
Fore
SplineSet
605 548 m 1,0,-1
 163 548 l 1,1,-1
 85 660 l 1,2,-1
 528 660 l 1,3,-1
 605 548 l 1,0,-1
EndSplineSet
Validated: 1
EndChar

StartChar: period
Encoding: 46 46 15
Width: 553
GlyphClass: 2
Flags: W
LayerCount: 2
Fore
SplineSet
465 153 m 1,0,-1
 333 23 l 1,1,-1
 200 153 l 1,2,-1
 333 285 l 1,3,-1
 465 153 l 1,0,-1
EndSplineSet
Validated: 1
EndChar

StartChar: slash
Encoding: 47 47 16
Width: 938
GlyphClass: 2
Flags: W
LayerCount: 2
Fore
SplineSet
778 1288 m 1,0,-1
 268 -108 l 1,1,-1
 183 -78 l 1,2,-1
 693 1318 l 1,3,-1
 778 1288 l 1,0,-1
EndSplineSet
Validated: 1
EndChar

StartChar: zero
Encoding: 48 48 17
Width: 891
GlyphClass: 2
Flags: W
LayerCount: 2
Fore
SplineSet
827 631 m 0,0,1
 827 222 827 222 617 74 c 0,2,3
 525 9 525 9 440 9 c 0,4,5
 272 9 272 9 159 208 c 0,6,7
 64 376 64 376 64 613 c 0,8,9
 64 1019 64 1019 287 1178 c 0,10,11
 366 1234 366 1234 449 1234 c 0,12,13
 584 1234 584 1234 693 1096 c 0,14,15
 827 924 827 924 827 631 c 0,0,1
657 669 m 0,16,17
 657 872 657 872 615 1006 c 0,18,19
 562 1177 562 1177 448 1177 c 0,20,21
 298 1177 298 1177 258 897 c 0,22,23
 235 742 235 742 235 591 c 0,24,25
 235 349 235 349 295 194 c 0,26,27
 345 64 345 64 443 64 c 0,28,29
 568 64 568 64 617 247 c 0,30,31
 657 398 657 398 657 669 c 0,16,17
EndSplineSet
Validated: 1
EndChar

StartChar: one
Encoding: 49 49 18
Width: 891
GlyphClass: 2
Flags: W
LayerCount: 2
Fore
SplineSet
673 30 m 1,0,-1
 230 30 l 1,1,-1
 230 62 l 1,2,3
 288 63 288 63 309 68 c 0,4,5
 357 78 357 78 371 110 c 0,6,7
 381 132 381 132 381 238 c 2,8,-1
 381 875 l 2,9,10
 381 1002 381 1002 372 1040 c 0,11,12
 360 1094 360 1094 311 1094 c 0,13,14
 279 1094 279 1094 222 1067 c 1,15,-1
 209 1094 l 1,16,-1
 496 1234 l 1,17,-1
 525 1234 l 1,18,-1
 525 238 l 2,19,20
 525 157 525 157 526 149 c 0,21,22
 532 94 532 94 567 77 c 0,23,24
 593 64 593 64 673 62 c 1,25,-1
 673 30 l 1,0,-1
EndSplineSet
Validated: 1
EndChar

StartChar: two
Encoding: 50 50 19
Width: 891
GlyphClass: 2
Flags: W
LayerCount: 2
Fore
SplineSet
817 257 m 1,0,-1
 734 30 l 1,1,-1
 38 30 l 1,2,-1
 38 62 l 1,3,4
 279 281 279 281 387 412 c 0,5,6
 596 662 596 662 596 844 c 0,7,8
 596 949 596 949 533 1023 c 0,9,10
 466 1101 466 1101 363 1101 c 0,11,12
 172 1101 172 1101 104 901 c 1,13,-1
 72 901 l 1,14,15
 92 1050 92 1050 174 1138 c 0,16,17
 264 1234 264 1234 409 1234 c 0,18,19
 545 1234 545 1234 643 1148 c 0,20,21
 745 1058 745 1058 745 924 c 0,22,23
 745 836 745 836 703 745 c 0,24,25
 638 603 638 603 494 447 c 0,26,27
 277 209 277 209 224 161 c 1,28,-1
 532 161 l 2,29,30
 681 161 681 161 732 197 c 0,31,32
 762 218 762 218 785 257 c 1,33,-1
 817 257 l 1,0,-1
EndSplineSet
Validated: 1
EndChar

StartChar: three
Encoding: 51 51 20
Width: 891
GlyphClass: 2
Flags: W
LayerCount: 2
Fore
SplineSet
743 421 m 0,0,1
 743 267 743 267 646 155 c 0,2,3
 519 9 519 9 278 9 c 0,4,5
 72 9 72 9 72 102 c 0,6,7
 72 129 72 129 93.5 147.5 c 128,-1,8
 115 166 115 166 142 166 c 0,9,10
 163 166 163 166 186 159 c 1,11,12
 231 134 231 134 325 94 c 1,13,14
 359 85 359 85 394 85 c 0,15,16
 486 85 486 85 550 154.5 c 128,-1,17
 614 224 614 224 614 316 c 0,18,19
 614 385 614 385 584 450 c 0,20,21
 561 499 561 499 534 524 c 0,22,23
 436 616 436 616 298 616 c 2,24,-1
 271 616 l 1,25,-1
 271 642 l 1,26,27
 340 650 340 650 406 690 c 0,28,29
 478 732 478 732 509 789.5 c 128,-1,30
 540 847 540 847 540 916 c 0,31,32
 540 1003 540 1003 485.5 1059.5 c 128,-1,33
 431 1116 431 1116 345 1116 c 0,34,35
 210 1116 210 1116 119 971 c 1,36,-1
 90 985 l 1,37,38
 196 1234 196 1234 410 1234 c 0,39,40
 551 1234 551 1234 627 1142 c 0,41,42
 685 1072 685 1072 685 995 c 0,43,44
 685 866 685 866 523 729 c 1,45,46
 743 642 743 642 743 421 c 0,0,1
EndSplineSet
Validated: 1
EndChar

StartChar: four
Encoding: 52 52 21
Width: 891
GlyphClass: 2
Flags: W
LayerCount: 2
Fore
SplineSet
829 341 m 1,0,-1
 671 341 l 1,1,-1
 671 30 l 1,2,-1
 527 30 l 1,3,-1
 527 341 l 1,4,-1
 28 341 l 1,5,-1
 28 453 l 1,6,-1
 575 1234 l 1,7,-1
 671 1234 l 1,8,-1
 671 465 l 1,9,-1
 829 465 l 1,10,-1
 829 341 l 1,0,-1
527 465 m 1,11,-1
 527 1051 l 1,12,-1
 113 465 l 1,13,-1
 527 465 l 1,11,-1
EndSplineSet
Validated: 1
EndChar

StartChar: five
Encoding: 53 53 22
Width: 891
GlyphClass: 2
Flags: W
LayerCount: 2
Fore
SplineSet
773 1210 m 1,0,-1
 706 1062 l 1,1,-1
 351 1062 l 1,2,-1
 273 903 l 1,3,4
 504 870 504 870 639 732 c 0,5,6
 754 614 754 614 754 454 c 0,7,8
 754 276 754 276 621 147 c 0,9,10
 479 9 479 9 288 9 c 0,11,12
 215 9 215 9 160 31 c 0,13,14
 85 62 85 62 85 125 c 0,15,16
 85 187 85 187 156 187 c 0,17,18
 192 187 192 187 253 144 c 0,19,20
 318 99 318 99 385 99 c 0,21,22
 492 99 492 99 566.5 177.5 c 128,-1,23
 641 256 641 256 641 363 c 0,24,25
 641 478 641 478 565 573 c 0,26,27
 495 659 495 659 383 706 c 0,28,29
 289 745 289 745 124 751 c 1,30,-1
 351 1210 l 1,31,-1
 773 1210 l 1,0,-1
EndSplineSet
Validated: 1
EndChar

StartChar: six
Encoding: 54 54 23
Width: 891
GlyphClass: 2
Flags: W
LayerCount: 2
Fore
SplineSet
822 427 m 0,0,1
 822 279 822 279 733 157 c 0,2,3
 624 9 624 9 447 9 c 0,4,5
 327 9 327 9 242 89 c 0,6,7
 77 245 77 245 77 493 c 0,8,9
 77 817 77 817 321 1047 c 0,10,11
 521 1234 521 1234 748 1234 c 2,12,-1
 799 1234 l 1,13,-1
 799 1202 l 1,14,15
 599 1182 599 1182 468 1051 c 0,16,17
 332 917 332 917 272 689 c 1,18,19
 398 775 398 775 524 775 c 0,20,21
 659 775 659 775 744 666 c 0,22,23
 822 565 822 565 822 427 c 0,0,1
667 333 m 0,24,25
 667 467 667 467 620 568 c 0,26,27
 559 699 559 699 440 699 c 0,28,29
 376 699 376 699 258 625 c 1,30,31
 242 508 242 508 242 435 c 0,32,33
 242 309 242 309 294 197 c 0,34,35
 360 58 360 58 472 58 c 0,36,37
 569 58 569 58 623 152 c 0,38,39
 667 229 667 229 667 333 c 0,24,25
EndSplineSet
Validated: 1
EndChar

StartChar: seven
Encoding: 55 55 24
Width: 891
GlyphClass: 2
Flags: W
LayerCount: 2
Fore
SplineSet
812 1177 m 1,0,-1
 418 6 l 1,1,-1
 321 6 l 1,2,-1
 673 1068 l 1,3,-1
 349 1068 l 2,4,5
 251 1068 251 1068 209 1044 c 0,6,7
 135 1004 135 1004 91 921 c 1,8,-1
 66 930 l 1,9,-1
 179 1210 l 1,10,-1
 812 1210 l 1,11,-1
 812 1177 l 1,0,-1
EndSplineSet
Validated: 1
EndChar

StartChar: eight
Encoding: 56 56 25
Width: 891
GlyphClass: 2
Flags: W
LayerCount: 2
Fore
SplineSet
788 310 m 0,0,1
 788 173 788 173 683 88 c 0,2,3
 585 9 585 9 445 9 c 0,4,5
 276 9 276 9 183 114 c 0,6,7
 108 198 108 198 108 299 c 0,8,9
 108 455 108 455 342 624 c 1,10,11
 235 712 235 712 192 766 c 0,12,13
 121 855 121 855 121 953 c 0,14,15
 121 1082 121 1082 221 1161 c 0,16,17
 313 1234 313 1234 445 1234 c 0,18,19
 567 1234 567 1234 659 1170 c 0,20,21
 762 1097 762 1097 762 980 c 0,22,23
 762 835 762 835 519 683 c 1,24,25
 671 566 671 566 722 497 c 0,26,27
 788 408 788 408 788 310 c 0,0,1
639 989 m 0,28,29
 639 1079 639 1079 588 1131.5 c 128,-1,30
 537 1184 537 1184 447 1184 c 0,31,32
 368 1184 368 1184 310 1139 c 0,33,34
 247 1090 247 1090 247 1012 c 0,35,36
 247 967 247 967 270 922 c 0,37,38
 298 867 298 867 336 836 c 2,39,-1
 478 717 l 1,40,41
 562 793 562 793 592 836 c 0,42,43
 639 904 639 904 639 989 c 0,28,29
666 238 m 0,44,45
 666 301 666 301 632 350 c 0,46,47
 571 442 571 442 383 591 c 1,48,49
 241 472 241 472 241 303 c 0,50,51
 241 199 241 199 296 130 c 0,52,53
 356 56 356 56 458 56 c 0,54,55
 544 56 544 56 603 103 c 0,56,57
 666 154 666 154 666 238 c 0,44,45
EndSplineSet
Validated: 1
EndChar

StartChar: nine
Encoding: 57 57 26
Width: 891
GlyphClass: 2
Flags: W
LayerCount: 2
Fore
SplineSet
814 747 m 0,0,1
 814 548 814 548 715 376 c 0,2,3
 620 210 620 210 449 98 c 0,4,5
 308 6 308 6 144 6 c 2,6,-1
 94 6 l 1,7,-1
 94 38 l 1,8,9
 330 41 330 41 493 268 c 0,10,11
 584 395 584 395 619 548 c 1,12,13
 483 460 483 460 372 460 c 0,14,15
 233 460 233 460 148 568 c 0,16,17
 70 668 70 668 70 811 c 0,18,19
 70 966 70 966 159 1087 c 0,20,21
 267 1234 267 1234 438 1234 c 0,22,23
 584 1234 584 1234 687 1114 c 0,24,25
 814 966 814 966 814 747 c 0,0,1
649 793 m 0,26,27
 649 880 649 880 622 970 c 0,28,29
 591 1073 591 1073 538.5 1125.5 c 128,-1,30
 486 1178 486 1178 419 1178 c 0,31,32
 320 1178 320 1178 268 1084 c 0,33,34
 225 1008 225 1008 225 901 c 0,35,36
 225 717 225 717 303 614 c 0,37,38
 359 539 359 539 442 539 c 0,39,40
 546 539 546 539 633 612 c 1,41,42
 649 725 649 725 649 793 c 0,26,27
EndSplineSet
Validated: 1
EndChar

StartChar: colon
Encoding: 58 58 27
Width: 523
GlyphClass: 2
Flags: W
LayerCount: 2
Fore
SplineSet
403 808 m 1,0,-1
 275 680 l 1,1,-1
 143 810 l 1,2,-1
 273 940 l 1,3,-1
 403 808 l 1,0,-1
403 208 m 1,4,-1
 275 78 l 1,5,-1
 143 210 l 1,6,-1
 273 338 l 1,7,-1
 403 208 l 1,4,-1
EndSplineSet
Validated: 1
EndChar

StartChar: semicolon
Encoding: 59 59 28
Width: 548
GlyphClass: 2
Flags: W
LayerCount: 2
Fore
SplineSet
420 828 m 1,0,-1
 290 700 l 1,1,-1
 163 828 l 1,2,-1
 290 958 l 1,3,-1
 420 828 l 1,0,-1
410 245 m 0,4,5
 410 147 410 147 325 -10 c 2,6,-1
 267 -116 l 1,7,-1
 205 -76 l 1,8,-1
 259 17 l 2,9,10
 297 83 297 83 293 155 c 0,11,12
 291 194 291 194 263 230 c 0,13,14
 238 261 238 261 175 295 c 1,15,-1
 273 423 l 1,16,17
 316 393 316 393 385 325 c 1,18,19
 410 284 410 284 410 245 c 0,4,5
EndSplineSet
Validated: 33
EndChar

StartChar: less
Encoding: 60 60 29
Width: 1005
GlyphClass: 2
Flags: W
LayerCount: 2
Fore
SplineSet
968 193 m 1,0,-1
 32 602 l 1,1,-1
 32 644 l 1,2,-1
 968 1050 l 1,3,-1
 968 974 l 1,4,-1
 163 624 l 1,5,-1
 968 271 l 1,6,-1
 968 193 l 1,0,-1
EndSplineSet
Validated: 1
EndChar

StartChar: equal
Encoding: 61 61 30
Width: 1005
GlyphClass: 2
Flags: W
LayerCount: 2
Fore
SplineSet
971 727 m 1,0,-1
 32 727 l 1,1,-1
 32 798 l 1,2,-1
 971 798 l 1,3,-1
 971 727 l 1,0,-1
971 443 m 1,4,-1
 32 443 l 1,5,-1
 32 515 l 1,6,-1
 971 515 l 1,7,-1
 971 443 l 1,4,-1
EndSplineSet
Validated: 1
EndChar

StartChar: greater
Encoding: 62 62 31
Width: 1005
GlyphClass: 2
Flags: W
LayerCount: 2
Fore
SplineSet
968 598 m 1,0,-1
 32 193 l 1,1,-1
 32 268 l 1,2,-1
 839 617 l 1,3,-1
 32 970 l 1,4,-1
 32 1050 l 1,5,-1
 968 641 l 1,6,-1
 968 598 l 1,0,-1
EndSplineSet
Validated: 1
EndChar

StartChar: question
Encoding: 63 63 32
Width: 1133
GlyphClass: 2
Flags: W
LayerCount: 2
Fore
SplineSet
1073 1025 m 0,0,1
 1073 851 1073 851 933 713 c 2,2,-1
 590 373 l 1,3,-1
 488 480 l 1,4,-1
 820 815 l 2,5,6
 968 964 968 964 968 1115 c 0,7,8
 968 1212 968 1212 908 1267.5 c 128,-1,9
 848 1323 848 1323 750 1323 c 0,10,11
 619 1323 619 1323 495 1240 c 1,12,-1
 400 1353 l 1,13,14
 533 1446 533 1446 675 1446 c 0,15,16
 773 1446 773 1446 862 1397 c 128,-1,17
 951 1348 951 1348 1003 1265 c 0,18,19
 1073 1152 1073 1152 1073 1025 c 0,0,1
758 103 m 1,20,-1
 615 -40 l 1,21,-1
 478 95 l 1,22,-1
 623 240 l 1,23,-1
 758 103 l 1,20,-1
EndSplineSet
Validated: 1
EndChar

StartChar: at
Encoding: 64 64 33
Width: 1641
GlyphClass: 2
Flags: W
LayerCount: 2
Fore
SplineSet
1597 180 m 1,0,1
 1517 -65 1517 -65 1309.5 -210 c 128,-1,2
 1102 -355 1102 -355 843 -355 c 0,3,4
 634 -355 634 -355 460 -258 c 0,5,6
 281 -158 281 -158 182.5 21.5 c 128,-1,7
 84 201 84 201 84 416 c 0,8,9
 84 647 84 647 190 842 c 0,10,11
 300 1043 300 1043 494.5 1155 c 128,-1,12
 689 1267 689 1267 907 1267 c 0,13,14
 1084 1267 1084 1267 1223 1198 c 0,15,16
 1375 1122 1375 1122 1453 975 c 0,17,18
 1529 832 1529 832 1529 671 c 0,19,20
 1529 520 1529 520 1464 369 c 0,21,22
 1393 204 1393 204 1277 128 c 0,23,24
 1168 57 1168 57 1048 57 c 0,25,26
 915 57 915 57 915 176 c 0,27,28
 915 225 915 225 931 304 c 1,29,30
 726 56 726 56 588 56 c 0,31,32
 514 56 514 56 470 123 c 0,33,34
 431 181 431 181 431 259 c 0,35,36
 431 402 431 402 522 559 c 0,37,38
 609 708 609 708 731 796 c 0,39,40
 831 869 831 869 910 869 c 0,41,42
 1032 869 1032 869 1060 749 c 1,43,-1
 1088 844 l 1,44,-1
 1225 863 l 1,45,-1
 1123 516 l 2,46,47
 1042 240 1042 240 1042 186 c 0,48,49
 1042 120 1042 120 1108 120 c 0,50,51
 1202 120 1202 120 1293 213 c 0,52,53
 1368 288 1368 288 1413 389 c 0,54,55
 1476 532 1476 532 1476 687 c 0,56,57
 1476 837 1476 837 1404 962.5 c 128,-1,58
 1332 1088 1332 1088 1201.5 1155.5 c 128,-1,59
 1071 1223 1071 1223 913 1223 c 0,60,61
 702 1223 702 1223 530 1110 c 0,62,63
 363 1001 363 1001 267 810 c 0,64,65
 166 609 166 609 166 394 c 0,66,67
 166 198 166 198 249 39 c 0,68,69
 338 -131 338 -131 503 -218 c 0,70,71
 663 -301 663 -301 847 -301 c 0,72,73
 1088 -301 1088 -301 1272 -172 c 0,74,75
 1450 -46 1450 -46 1547 180 c 1,76,-1
 1597 180 l 1,0,1
1028 703 m 0,77,78
 1028 754 1028 754 999 791 c 128,-1,79
 970 828 970 828 920 828 c 0,80,81
 854 828 854 828 787 759 c 0,82,83
 690 659 690 659 619 487 c 0,84,85
 568 361 568 361 568 285 c 0,86,87
 568 238 568 238 594 202 c 0,88,89
 623 161 623 161 668 161 c 0,90,91
 771 161 771 161 891 318 c 0,92,93
 951 397 951 397 980 477 c 0,94,95
 1028 616 1028 616 1028 703 c 0,77,78
EndSplineSet
Validated: 1
EndChar

StartChar: A
Encoding: 65 65 34
Width: 1287
GlyphClass: 2
Flags: W
LayerCount: 2
Fore
SplineSet
1267 30 m 1,0,-1
 801 30 l 1,1,-1
 801 62 l 1,2,3
 921 68 921 68 921 134 c 0,4,5
 921 173 921 173 887 255 c 2,6,-1
 815 425 l 1,7,-1
 358 425 l 1,8,-1
 278 239 l 2,9,10
 249 170 249 170 249 136 c 0,11,12
 249 72 249 72 385 62 c 1,13,-1
 385 30 l 1,14,-1
 14 30 l 1,15,-1
 14 62 l 1,16,17
 88 75 88 75 110 96 c 0,18,19
 153 137 153 137 208 266 c 2,20,-1
 623 1237 l 1,21,-1
 653 1237 l 1,22,-1
 1064 255 l 2,23,24
 1105 156 1105 156 1135 122 c 0,25,26
 1183 67 1183 67 1267 62 c 1,27,-1
 1267 30 l 1,0,-1
791 489 m 1,28,-1
 591 966 l 1,29,-1
 385 489 l 1,30,-1
 791 489 l 1,28,-1
EndSplineSet
Validated: 1
EndChar

StartChar: B
Encoding: 66 66 35
Width: 1188
GlyphClass: 2
Flags: W
LayerCount: 2
Fore
SplineSet
1091 353 m 0,0,1
 1091 258 1091 258 1031 178 c 0,2,3
 973 102 973 102 883 67 c 0,4,5
 786 30 786 30 586 30 c 2,6,-1
 30 30 l 1,7,-1
 30 62 l 1,8,-1
 74 62 l 2,9,10
 148 62 148 62 180 109 c 0,11,12
 200 139 200 139 200 239 c 2,13,-1
 200 1001 l 2,14,15
 200 1111 200 1111 175 1139 c 0,16,17
 141 1178 141 1178 74 1178 c 2,18,-1
 30 1178 l 1,19,-1
 30 1210 l 1,20,-1
 539 1210 l 2,21,22
 682 1210 682 1210 768 1189 c 0,23,24
 886 1160 886 1160 957 1089 c 0,25,26
 1036 1010 1036 1010 1036 895 c 0,27,28
 1036 701 1036 701 823 632 c 1,29,30
 946 606 946 606 1007 549 c 0,31,32
 1091 469 1091 469 1091 353 c 0,0,1
854 902 m 0,33,34
 854 1028 854 1028 747 1095 c 0,35,36
 657 1151 657 1151 524 1151 c 0,37,38
 437 1151 437 1151 367 1132 c 1,39,-1
 367 679 l 1,40,41
 432 667 432 667 532 667 c 0,42,43
 754 667 754 667 820 778 c 0,44,45
 854 835 854 835 854 902 c 0,33,34
889 338 m 0,46,47
 889 501 889 501 730 570 c 0,48,49
 646 607 646 607 521 607 c 0,50,51
 409 607 409 607 367 599 c 1,52,-1
 367 115 l 1,53,54
 468 92 468 92 566 92 c 0,55,56
 698 92 698 92 786 148 c 0,57,58
 889 213 889 213 889 338 c 0,46,47
EndSplineSet
Validated: 1
EndChar

StartChar: C
Encoding: 67 67 36
Width: 1188
GlyphClass: 2
Flags: W
LayerCount: 2
Fore
SplineSet
1127 307 m 1,0,1
 956 3 956 3 639 3 c 0,2,3
 346 3 346 3 184 221 c 0,4,5
 64 383 64 383 64 602 c 0,6,7
 64 774 64 774 140 919 c 0,8,9
 218 1072 218 1072 361 1155 c 0,10,11
 500 1237 500 1237 665 1237 c 0,12,13
 794 1237 794 1237 917 1174 c 0,14,15
 955 1155 955 1155 969 1155 c 0,16,17
 1024 1155 1024 1155 1042 1237 c 1,18,-1
 1073 1237 l 1,19,-1
 1100 836 l 1,20,-1
 1073 836 l 1,21,22
 971 1174 971 1174 679 1174 c 0,23,24
 421 1174 421 1174 317 924 c 0,25,26
 263 794 263 794 263 600 c 0,27,28
 263 267 263 267 468 142 c 0,29,30
 572 80 572 80 704 80 c 0,31,32
 837 80 837 80 933 146 c 0,33,34
 1009 199 1009 199 1100 324 c 1,35,-1
 1127 307 l 1,0,1
EndSplineSet
Validated: 1
EndChar

StartChar: D
Encoding: 68 68 37
Width: 1287
GlyphClass: 2
Flags: W
LayerCount: 2
Fore
SplineSet
1219 626 m 0,0,1
 1219 379 1219 379 1069 214 c 0,2,3
 902 30 902 30 558 30 c 2,4,-1
 30 30 l 1,5,-1
 30 62 l 1,6,-1
 75 62 l 2,7,8
 149 62 149 62 181 110 c 0,9,10
 200 139 200 139 200 239 c 2,11,-1
 200 1001 l 2,12,13
 200 1112 200 1112 176 1139 c 0,14,15
 142 1178 142 1178 75 1178 c 2,16,-1
 30 1178 l 1,17,-1
 30 1210 l 1,18,-1
 511 1210 l 2,19,20
 738 1210 738 1210 865 1167 c 0,21,22
 1039 1109 1039 1109 1135 950 c 0,23,24
 1219 810 1219 810 1219 626 c 0,0,1
1021 617 m 0,25,26
 1021 846 1021 846 899 990 c 0,27,28
 770 1144 770 1144 545 1144 c 0,29,30
 467 1144 467 1144 367 1118 c 1,31,-1
 367 115 l 1,32,33
 478 91 478 91 552 91 c 0,34,35
 772 91 772 91 901 247 c 0,36,37
 1021 393 1021 393 1021 617 c 0,25,26
EndSplineSet
Validated: 1
EndChar

StartChar: E
Encoding: 69 69 38
Width: 1088
GlyphClass: 2
Flags: W
LayerCount: 2
Fore
SplineSet
1047 326 m 1,0,-1
 946 30 l 1,1,-1
 37 30 l 1,2,-1
 37 62 l 1,3,-1
 78 62 l 2,4,5
 119 62 119 62 156 81.5 c 128,-1,6
 193 101 193 101 202 151 c 0,7,8
 205 169 205 169 205 238 c 2,9,-1
 205 1004 l 2,10,11
 205 1117 205 1117 183 1143 c 0,12,13
 152 1178 152 1178 78 1178 c 2,14,-1
 37 1178 l 1,15,-1
 37 1210 l 1,16,-1
 946 1210 l 1,17,-1
 959 951 l 1,18,-1
 925 951 l 1,19,20
 910 1027 910 1027 895 1058 c 0,21,22
 870 1112 870 1112 819 1132 c 0,23,24
 786 1145 786 1145 696 1145 c 2,25,-1
 372 1145 l 1,26,-1
 372 679 l 1,27,-1
 632 679 l 2,28,29
 732 679 732 679 766 709 c 0,30,31
 812 750 812 750 817 850 c 1,32,-1
 849 850 l 1,33,-1
 849 440 l 1,34,-1
 817 440 l 1,35,36
 805 526 805 526 793 550 c 0,37,38
 759 616 759 616 632 616 c 2,39,-1
 372 616 l 1,40,-1
 372 227 l 2,41,42
 372 122 372 122 404 104 c 0,43,44
 421 94 421 94 470 94 c 2,45,-1
 670 94 l 2,46,47
 756 94 756 94 795 103 c 0,48,49
 856 117 856 117 902 163 c 0,50,51
 956 216 956 216 1013 326 c 1,52,-1
 1047 326 l 1,0,-1
EndSplineSet
Validated: 1
EndChar

StartChar: F
Encoding: 70 70 39
Width: 991
GlyphClass: 2
Flags: W
LayerCount: 2
Fore
SplineSet
918 950 m 1,0,-1
 887 950 l 1,1,2
 848 1093 848 1093 761 1128 c 0,3,4
 717 1145 717 1145 625 1145 c 2,5,-1
 365 1145 l 1,6,-1
 365 682 l 1,7,-1
 579 682 l 2,8,9
 661 682 661 682 695 723 c 0,10,11
 723 757 723 757 733 843 c 1,12,-1
 766 843 l 1,13,-1
 766 444 l 1,14,-1
 733 444 l 1,15,16
 732 559 732 559 669 593 c 0,17,18
 639 609 639 609 579 609 c 2,19,-1
 365 609 l 1,20,-1
 365 239 l 2,21,22
 365 149 365 149 376 120 c 0,23,24
 399 62 399 62 492 62 c 2,25,-1
 535 62 l 1,26,-1
 535 30 l 1,27,-1
 29 30 l 1,28,-1
 29 62 l 1,29,-1
 70 62 l 2,30,31
 144 62 144 62 177 105 c 0,32,33
 197 132 197 132 197 239 c 2,34,-1
 197 1001 l 2,35,36
 197 1091 197 1091 186 1119 c 0,37,38
 163 1178 163 1178 70 1178 c 2,39,-1
 29 1178 l 1,40,-1
 29 1210 l 1,41,-1
 907 1210 l 1,42,-1
 918 950 l 1,0,-1
EndSplineSet
Validated: 1
EndChar

StartChar: G
Encoding: 71 71 40
Width: 1287
GlyphClass: 2
Flags: W
LayerCount: 2
Fore
SplineSet
1261 641 m 1,0,-1
 1240 641 l 2,1,2
 1172 641 1172 641 1147 595 c 0,3,4
 1129 564 1129 564 1129 468 c 2,5,-1
 1129 107 l 1,6,7
 936 3 936 3 715 3 c 0,8,9
 373 3 373 3 196 222 c 0,10,11
 63 387 63 387 63 602 c 0,12,13
 63 757 63 757 137 900 c 0,14,15
 314 1237 314 1237 687 1237 c 0,16,17
 801 1237 801 1237 954 1180 c 0,18,19
 1003 1162 1003 1162 1019 1162 c 0,20,21
 1057 1162 1057 1162 1061 1237 c 1,22,-1
 1094 1237 l 1,23,-1
 1124 864 l 1,24,-1
 1094 864 l 1,25,26
 1048 1003 1048 1003 974 1074 c 0,27,28
 869 1176 869 1176 704 1176 c 0,29,30
 478 1176 478 1176 361 997 c 0,31,32
 263 848 263 848 263 639 c 0,33,34
 263 486 263 486 318 352 c 0,35,36
 382 199 382 199 499 127 c 0,37,38
 605 62 605 62 716 62 c 0,39,40
 845 62 845 62 960 127 c 1,41,-1
 960 468 l 2,42,43
 960 598 960 598 904 626 c 0,44,45
 876 641 876 641 805 641 c 1,46,-1
 805 674 l 1,47,-1
 1261 674 l 1,48,-1
 1261 641 l 1,0,-1
EndSplineSet
Validated: 1
EndChar

StartChar: H
Encoding: 72 72 41
Width: 1287
GlyphClass: 2
Flags: W
LayerCount: 2
Fore
SplineSet
1250 30 m 1,0,-1
 746 30 l 1,1,-1
 746 62 l 1,2,-1
 787 62 l 2,3,4
 859 62 859 62 893 105 c 0,5,6
 914 133 914 133 914 239 c 2,7,-1
 914 598 l 1,8,-1
 366 598 l 1,9,-1
 366 239 l 2,10,11
 366 149 366 149 378 120 c 0,12,13
 401 62 401 62 493 62 c 2,14,-1
 536 62 l 1,15,-1
 536 30 l 1,16,-1
 30 30 l 1,17,-1
 30 62 l 1,18,-1
 72 62 l 2,19,20
 146 62 146 62 178 105 c 0,21,22
 199 132 199 132 199 239 c 2,23,-1
 199 1000 l 2,24,25
 199 1091 199 1091 188 1119 c 0,26,27
 165 1178 165 1178 72 1178 c 2,28,-1
 30 1178 l 1,29,-1
 30 1210 l 1,30,-1
 536 1210 l 1,31,-1
 536 1178 l 1,32,-1
 493 1178 l 2,33,34
 452 1178 452 1178 415.5 1158.5 c 128,-1,35
 379 1139 379 1139 370 1088 c 0,36,37
 366 1068 366 1068 366 1000 c 2,38,-1
 366 662 l 1,39,-1
 914 662 l 1,40,-1
 914 1000 l 2,41,42
 914 1091 914 1091 903 1119 c 0,43,44
 880 1178 880 1178 787 1178 c 2,45,-1
 746 1178 l 1,46,-1
 746 1210 l 1,47,-1
 1250 1210 l 1,48,-1
 1250 1178 l 1,49,-1
 1208 1178 l 2,50,51
 1168 1178 1168 1178 1130.5 1158.5 c 128,-1,52
 1093 1139 1093 1139 1085 1088 c 0,53,54
 1081 1069 1081 1069 1081 1000 c 2,55,-1
 1081 239 l 2,56,57
 1081 149 1081 149 1093 120 c 0,58,59
 1116 62 1116 62 1208 62 c 2,60,-1
 1250 62 l 1,61,-1
 1250 30 l 1,0,-1
EndSplineSet
Validated: 1
EndChar

StartChar: I
Encoding: 73 73 42
Width: 593
GlyphClass: 2
Flags: W
LayerCount: 2
Fore
SplineSet
550 30 m 1,0,-1
 44 30 l 1,1,-1
 44 62 l 1,2,-1
 86 62 l 2,3,4
 160 62 160 62 192 105 c 0,5,6
 213 132 213 132 213 239 c 2,7,-1
 213 1001 l 2,8,9
 213 1091 213 1091 202 1119 c 0,10,11
 179 1178 179 1178 86 1178 c 2,12,-1
 44 1178 l 1,13,-1
 44 1210 l 1,14,-1
 550 1210 l 1,15,-1
 550 1178 l 1,16,-1
 507 1178 l 2,17,18
 435 1178 435 1178 402 1135 c 0,19,20
 380 1107 380 1107 380 1001 c 2,21,-1
 380 239 l 2,22,23
 380 149 380 149 391 120 c 0,24,25
 415 62 415 62 507 62 c 2,26,-1
 550 62 l 1,27,-1
 550 30 l 1,0,-1
EndSplineSet
Validated: 1
EndChar

StartChar: J
Encoding: 74 74 43
Width: 693
GlyphClass: 2
Flags: W
LayerCount: 2
Fore
SplineSet
683 1178 m 1,0,-1
 640 1178 l 2,1,2
 568 1178 568 1178 535 1135 c 0,3,4
 514 1108 514 1108 514 1001 c 2,5,-1
 514 424 l 2,6,7
 514 176 514 176 385 64 c 0,8,9
 313 3 313 3 212 3 c 0,10,11
 145 3 145 3 95 35 c 0,12,13
 37 72 37 72 37 136 c 0,14,15
 37 227 37 227 125 227 c 0,16,17
 182 227 182 227 231 112 c 0,18,19
 252 65 252 65 283 65 c 0,20,21
 347 65 347 65 347 195 c 2,22,-1
 347 1001 l 2,23,24
 347 1091 347 1091 336 1119 c 0,25,26
 313 1178 313 1178 220 1178 c 2,27,-1
 177 1178 l 1,28,-1
 177 1210 l 1,29,-1
 683 1210 l 1,30,-1
 683 1178 l 1,0,-1
EndSplineSet
Validated: 1
EndChar

StartChar: K
Encoding: 75 75 44
Width: 1287
GlyphClass: 2
Flags: W
LayerCount: 2
Fore
SplineSet
1302 30 m 1,0,-1
 740 30 l 1,1,-1
 740 62 l 1,2,3
 835 62 835 62 835 117 c 0,4,5
 835 154 835 154 773 216 c 2,6,-1
 365 619 l 1,7,-1
 365 239 l 2,8,9
 365 149 365 149 377 120 c 0,10,11
 400 62 400 62 492 62 c 2,12,-1
 532 62 l 1,13,-1
 532 30 l 1,14,-1
 30 30 l 1,15,-1
 30 62 l 1,16,-1
 71 62 l 2,17,18
 145 62 145 62 177 105 c 0,19,20
 198 132 198 132 198 239 c 2,21,-1
 198 1001 l 2,22,23
 198 1092 198 1092 187 1120 c 0,24,25
 179 1141 179 1141 151 1157 c 0,26,27
 114 1178 114 1178 71 1178 c 2,28,-1
 30 1178 l 1,29,-1
 30 1210 l 1,30,-1
 532 1210 l 1,31,-1
 532 1178 l 1,32,-1
 492 1178 l 2,33,34
 452 1178 452 1178 413 1158 c 0,35,36
 378 1139 378 1139 369 1088 c 0,37,38
 365 1069 365 1069 365 1001 c 2,39,-1
 365 640 l 1,40,41
 399 672 399 672 485 750 c 0,42,43
 744 989 744 989 797 1066 c 0,44,45
 820 1101 820 1101 820 1127 c 0,46,47
 820 1178 820 1178 740 1178 c 2,48,-1
 713 1178 l 1,49,-1
 713 1210 l 1,50,-1
 1147 1210 l 1,51,-1
 1147 1178 l 1,52,53
 1076 1176 1076 1176 1000 1130 c 0,54,55
 956 1103 956 1103 889 1042 c 0,56,57
 854 1006 854 1006 713 863 c 2,58,-1
 532 684 l 1,59,-1
 967 252 l 2,60,61
 1148 73 1148 73 1302 62 c 1,62,-1
 1302 30 l 1,0,-1
EndSplineSet
Validated: 1
EndChar

StartChar: L
Encoding: 76 76 45
Width: 1088
GlyphClass: 2
Flags: W
LayerCount: 2
Fore
SplineSet
1050 350 m 1,0,-1
 949 30 l 1,1,-1
 36 30 l 1,2,-1
 36 62 l 1,3,-1
 80 62 l 2,4,5
 155 62 155 62 187 111 c 0,6,7
 205 139 205 139 205 240 c 2,8,-1
 205 1001 l 2,9,10
 205 1112 205 1112 181 1139 c 0,11,12
 147 1178 147 1178 80 1178 c 2,13,-1
 36 1178 l 1,14,-1
 36 1210 l 1,15,-1
 570 1210 l 1,16,-1
 570 1178 l 1,17,18
 419 1179 419 1179 386 1114 c 0,19,20
 372 1086 372 1086 372 981 c 2,21,-1
 372 240 l 2,22,23
 372 166 372 166 386 140 c 0,24,25
 402 111 402 111 464 105 c 0,26,27
 469 105 469 105 554 105 c 2,28,-1
 640 105 l 2,29,30
 751 105 751 105 799 116 c 0,31,32
 876 134 876 134 931 196 c 0,33,34
 976 247 976 247 1021 356 c 1,35,-1
 1050 350 l 1,0,-1
EndSplineSet
Validated: 33
EndChar

StartChar: M
Encoding: 77 77 46
Width: 1584
GlyphClass: 2
Flags: W
LayerCount: 2
Fore
SplineSet
1547 30 m 1,0,-1
 1046 30 l 1,1,-1
 1046 62 l 1,2,-1
 1087 62 l 2,3,4
 1163 62 1163 62 1194 107 c 0,5,6
 1213 136 1213 136 1213 234 c 2,7,-1
 1213 1023 l 1,8,-1
 758 30 l 1,9,-1
 729 30 l 1,10,-1
 273 1023 l 1,11,-1
 273 234 l 2,12,13
 273 126 273 126 297 99 c 0,14,15
 329 62 329 62 398 62 c 2,16,-1
 440 62 l 1,17,-1
 440 30 l 1,18,-1
 30 30 l 1,19,-1
 30 62 l 1,20,-1
 71 62 l 2,21,22
 146 62 146 62 177 107 c 0,23,24
 197 135 197 135 197 234 c 2,25,-1
 197 1005 l 2,26,27
 197 1083 197 1083 179 1118 c 0,28,29
 150 1178 150 1178 30 1178 c 1,30,-1
 30 1210 l 1,31,-1
 364 1210 l 1,32,-1
 792 287 l 1,33,-1
 1213 1210 l 1,34,-1
 1547 1210 l 1,35,-1
 1547 1178 l 1,36,-1
 1506 1178 l 2,37,38
 1430 1178 1430 1178 1399 1132 c 0,39,40
 1380 1105 1380 1105 1380 1005 c 2,41,-1
 1380 234 l 2,42,43
 1380 126 1380 126 1404 99 c 0,44,45
 1437 62 1437 62 1506 62 c 2,46,-1
 1547 62 l 1,47,-1
 1547 30 l 1,0,-1
EndSplineSet
Validated: 1
EndChar

StartChar: N
Encoding: 78 78 47
Width: 1287
GlyphClass: 2
Flags: W
LayerCount: 2
Fore
SplineSet
1261 1178 m 1,0,-1
 1220 1178 l 2,1,2
 1145 1178 1145 1178 1114 1132 c 0,3,4
 1094 1105 1094 1105 1094 1005 c 2,5,-1
 1094 11 l 1,6,-1
 1063 11 l 1,7,-1
 285 961 l 1,8,-1
 285 234 l 2,9,10
 285 125 285 125 309 99 c 0,11,12
 341 62 341 62 411 62 c 2,13,-1
 452 62 l 1,14,-1
 452 30 l 1,15,-1
 42 30 l 1,16,-1
 42 62 l 1,17,-1
 83 62 l 2,18,19
 158 62 158 62 190 107 c 0,20,21
 209 135 209 135 209 234 c 2,22,-1
 209 1055 l 1,23,24
 132 1145 132 1145 53 1170 c 0,25,26
 28 1178 28 1178 -23 1178 c 1,27,-1
 -23 1210 l 1,28,-1
 297 1210 l 1,29,-1
 1018 325 l 1,30,-1
 1018 1005 l 2,31,32
 1018 1114 1018 1114 994 1141 c 0,33,34
 961 1178 961 1178 892 1178 c 2,35,-1
 851 1178 l 1,36,-1
 851 1210 l 1,37,-1
 1261 1210 l 1,38,-1
 1261 1178 l 1,0,-1
EndSplineSet
Validated: 1
EndChar

StartChar: O
Encoding: 79 79 48
Width: 1287
GlyphClass: 2
Flags: W
LayerCount: 2
Fore
SplineSet
1218 627 m 0,0,1
 1218 369 1218 369 1058 190 c 0,2,3
 892 3 892 3 638 3 c 0,4,5
 379 3 379 3 218 187 c 0,6,7
 63 362 63 362 63 624 c 0,8,9
 63 905 63 905 254 1083 c 0,10,11
 420 1237 420 1237 652 1237 c 0,12,13
 896 1237 896 1237 1060 1052 c 0,14,15
 1218 875 1218 875 1218 627 c 0,0,1
1019 603 m 0,16,17
 1019 841 1019 841 945 985 c 0,18,19
 849 1173 849 1173 635 1173 c 0,20,21
 477 1173 477 1173 381 1056 c 0,22,23
 262 910 262 910 262 628 c 0,24,25
 262 338 262 338 385 183 c 0,26,27
 480 65 480 65 636 65 c 0,28,29
 842 65 842 65 941 240 c 0,30,31
 1019 380 1019 380 1019 603 c 0,16,17
EndSplineSet
Validated: 1
EndChar

StartChar: P
Encoding: 80 80 49
Width: 991
GlyphClass: 2
Flags: W
LayerCount: 2
Fore
SplineSet
928 883 m 0,0,1
 928 726 928 726 823 639 c 0,2,3
 724 558 724 558 564 558 c 0,4,5
 478 558 478 558 365 582 c 1,6,-1
 365 239 l 2,7,8
 365 128 365 128 390 100 c 0,9,10
 423 62 423 62 490 62 c 2,11,-1
 535 62 l 1,12,-1
 535 30 l 1,13,-1
 30 30 l 1,14,-1
 30 62 l 1,15,-1
 74 62 l 2,16,17
 149 62 149 62 181 111 c 0,18,19
 198 137 198 137 198 239 c 2,20,-1
 198 1001 l 2,21,22
 198 1113 198 1113 175 1139 c 0,23,24
 141 1178 141 1178 74 1178 c 2,25,-1
 30 1178 l 1,26,-1
 30 1210 l 1,27,-1
 462 1210 l 2,28,29
 750 1210 750 1210 866 1067 c 0,30,31
 928 990 928 990 928 883 c 0,0,1
730 866 m 0,32,33
 730 1038 730 1038 610 1107 c 0,34,35
 552 1139 552 1139 479 1139 c 0,36,37
 435 1139 435 1139 365 1123 c 1,38,-1
 365 632 l 1,39,40
 458 615 458 615 508 615 c 0,41,42
 608 615 608 615 671 692 c 0,43,44
 730 764 730 764 730 866 c 0,32,33
EndSplineSet
Validated: 1
EndChar

StartChar: Q
Encoding: 81 81 50
Width: 1287
GlyphClass: 2
Flags: W
LayerCount: 2
Fore
SplineSet
1219 619 m 0,0,1
 1219 408 1219 408 1103 244 c 0,2,3
 984 77 984 77 785 17 c 1,4,5
 951 -270 951 -270 1211 -291 c 1,6,-1
 1211 -319 l 1,7,8
 948 -309 948 -309 696 -149 c 0,9,10
 573 -71 573 -71 485 17 c 1,11,12
 357 68 357 68 286 124 c 0,13,14
 63 300 63 300 63 622 c 0,15,16
 63 879 63 879 227 1056 c 0,17,18
 395 1237 395 1237 649 1237 c 0,19,20
 897 1237 897 1237 1062 1050 c 0,21,22
 1219 871 1219 871 1219 619 c 0,0,1
1020 597 m 0,23,24
 1020 991 1020 991 823 1117 c 0,25,26
 741 1170 741 1170 639 1170 c 0,27,28
 434 1170 434 1170 338 989 c 0,29,30
 262 847 262 847 262 622 c 0,31,32
 262 336 262 336 385 181 c 0,33,34
 481 62 481 62 639 62 c 0,35,36
 842 62 842 62 940 237 c 0,37,38
 1020 377 1020 377 1020 597 c 0,23,24
EndSplineSet
Validated: 1
EndChar

StartChar: R
Encoding: 82 82 51
Width: 1188
GlyphClass: 2
Flags: W
LayerCount: 2
Fore
SplineSet
1204 30 m 1,0,-1
 889 30 l 1,1,-1
 490 582 l 1,2,3
 445 580 445 580 418 580 c 0,4,5
 394 580 394 580 366 582 c 1,6,-1
 366 239 l 2,7,8
 366 128 366 128 391 100 c 0,9,10
 424 62 424 62 490 62 c 2,11,-1
 536 62 l 1,12,-1
 536 30 l 1,13,-1
 30 30 l 1,14,-1
 30 62 l 1,15,-1
 75 62 l 2,16,17
 149 62 149 62 182 111 c 0,18,19
 200 138 200 138 200 239 c 2,20,-1
 200 1001 l 2,21,22
 200 1112 200 1112 176 1139 c 0,23,24
 142 1178 142 1178 75 1178 c 2,25,-1
 30 1178 l 1,26,-1
 30 1210 l 1,27,-1
 460 1210 l 2,28,29
 618 1210 618 1210 692 1194 c 0,30,31
 817 1167 817 1167 889 1081 c 0,32,33
 951 1008 951 1008 951 906 c 0,34,35
 951 669 951 669 660 604 c 1,36,-1
 904 266 l 2,37,38
 978 163 978 163 1029 124 c 0,39,40
 1097 74 1097 74 1204 62 c 1,41,-1
 1204 30 l 1,0,-1
755 895 m 0,42,43
 755 1007 755 1007 685.5 1075.5 c 128,-1,44
 616 1144 616 1144 503 1144 c 0,45,46
 452 1144 452 1144 366 1127 c 1,47,-1
 366 636 l 1,48,49
 374 636 374 636 390.5 636 c 128,-1,50
 407 636 407 636 415 636 c 0,51,52
 557 636 557 636 647 693 c 0,53,54
 755 761 755 761 755 895 c 0,42,43
EndSplineSet
Validated: 1
EndChar

StartChar: S
Encoding: 83 83 52
Width: 991
GlyphClass: 2
Flags: W
LayerCount: 2
Fore
SplineSet
895 331 m 0,0,1
 895 184 895 184 781 90 c 0,2,3
 674 3 674 3 524 3 c 0,4,5
 474 3 474 3 427 11 c 0,6,7
 401 15 401 15 314 44 c 0,8,9
 237 70 237 70 208 70 c 0,10,11
 165 70 165 70 155 3 c 1,12,-1
 123 3 l 1,13,-1
 123 408 l 1,14,-1
 155 408 l 1,15,16
 175 293 175 293 206 235 c 0,17,18
 247 158 247 158 333 113 c 0,19,20
 412 71 412 71 505 71 c 0,21,22
 600 71 600 71 666 119 c 0,23,24
 740 173 740 173 740 264 c 0,25,26
 740 360 740 360 642 435 c 0,27,28
 582 480 582 480 442 557 c 0,29,30
 305 631 305 631 241 681 c 0,31,32
 111 783 111 783 111 926 c 0,33,34
 111 1064 111 1064 217 1153 c 0,35,36
 317 1237 317 1237 457 1237 c 0,37,38
 551 1237 551 1237 656 1191 c 0,39,40
 705 1169 705 1169 725 1169 c 0,41,42
 770 1169 770 1169 785 1237 c 1,43,-1
 817 1237 l 1,44,-1
 817 829 l 1,45,-1
 785 829 l 1,46,47
 755 1049 755 1049 613 1126 c 0,48,49
 539 1167 539 1167 458 1167 c 256,50,51
 377 1167 377 1167 316 1118 c 0,52,53
 250 1065 250 1065 250 986 c 0,54,55
 250 933 250 933 287 888 c 0,56,57
 342 822 342 822 544 714 c 0,58,59
 684 639 684 639 723 612 c 0,60,61
 823 544 823 544 863 466 c 0,62,63
 895 401 895 401 895 331 c 0,0,1
EndSplineSet
Validated: 1
EndChar

StartChar: T
Encoding: 84 84 53
Width: 1088
GlyphClass: 2
Flags: W
LayerCount: 2
Fore
SplineSet
1044 933 m 1,0,-1
 1011 933 l 1,1,2
 1001 1006 1001 1006 985 1037 c 0,3,4
 933 1136 933 1136 795 1136 c 2,5,-1
 629 1136 l 1,6,-1
 629 234 l 2,7,8
 629 125 629 125 652 99 c 0,9,10
 685 62 685 62 754 62 c 2,11,-1
 795 62 l 1,12,-1
 795 30 l 1,13,-1
 295 30 l 1,14,-1
 295 62 l 1,15,-1
 337 62 l 2,16,17
 412 62 412 62 443 107 c 0,18,19
 462 135 462 135 462 234 c 2,20,-1
 462 1136 l 1,21,-1
 320 1136 l 2,22,23
 237 1136 237 1136 203 1124 c 0,24,25
 99 1086 99 1086 87 933 c 1,26,-1
 54 933 l 1,27,-1
 68 1210 l 1,28,-1
 1031 1210 l 1,29,-1
 1044 933 l 1,0,-1
EndSplineSet
Validated: 1
EndChar

StartChar: U
Encoding: 85 85 54
Width: 1287
GlyphClass: 2
Flags: W
LayerCount: 2
Fore
SplineSet
1268 1178 m 1,0,-1
 1223 1178 l 2,1,2
 1154 1178 1154 1178 1116 1119 c 0,3,4
 1098 1091 1098 1091 1098 994 c 2,5,-1
 1098 515 l 2,6,7
 1098 352 1098 352 1071 267 c 0,8,9
 1034 147 1034 147 924 72 c 0,10,11
 821 2 821 2 644 2 c 0,12,13
 299 2 299 2 209 249 c 0,14,15
 181 325 181 325 181 540 c 2,16,-1
 181 1001 l 2,17,18
 181 1091 181 1091 162 1127 c 0,19,20
 134 1178 134 1178 54 1178 c 2,21,-1
 10 1178 l 1,22,-1
 10 1210 l 1,23,-1
 519 1210 l 1,24,-1
 519 1178 l 1,25,-1
 474 1178 l 2,26,27
 401 1178 401 1178 370 1131 c 0,28,29
 348 1100 348 1100 348 1001 c 2,30,-1
 348 487 l 2,31,32
 348 278 348 278 406 191 c 0,33,34
 482 77 482 77 654 77 c 0,35,36
 759 77 759 77 848 120 c 0,37,38
 949 169 949 169 986 257 c 0,39,40
 1020 335 1020 335 1020 523 c 2,41,-1
 1020 1001 l 2,42,43
 1020 1112 1020 1112 995 1139 c 0,44,45
 962 1178 962 1178 894 1178 c 2,46,-1
 850 1178 l 1,47,-1
 850 1210 l 1,48,-1
 1268 1210 l 1,49,-1
 1268 1178 l 1,0,-1
EndSplineSet
Validated: 1
EndChar

StartChar: V
Encoding: 86 86 55
Width: 1287
GlyphClass: 2
Flags: W
LayerCount: 2
Fore
SplineSet
1265 1178 m 1,0,1
 1201 1166 1201 1166 1170 1138 c 0,2,3
 1125 1096 1125 1096 1088 1007 c 2,4,-1
 677 3 l 1,5,-1
 645 3 l 1,6,-1
 203 1020 l 2,7,8
 168 1099 168 1099 155 1116 c 0,9,10
 111 1170 111 1170 16 1178 c 1,11,-1
 16 1210 l 1,12,-1
 498 1210 l 1,13,-1
 498 1178 l 1,14,15
 367 1165 367 1165 367 1098 c 0,16,17
 367 1055 367 1055 407 963 c 2,18,-1
 707 271 l 1,19,-1
 986 954 l 2,20,21
 1027 1054 1027 1054 1027 1094 c 0,22,23
 1027 1157 1027 1157 916 1175 c 0,24,25
 912 1176 912 1176 901 1178 c 1,26,-1
 901 1210 l 1,27,-1
 1265 1210 l 1,28,-1
 1265 1178 l 1,0,1
EndSplineSet
Validated: 1
EndChar

StartChar: W
Encoding: 87 87 56
Width: 1682
GlyphClass: 2
Flags: W
LayerCount: 2
Fore
SplineSet
1668 1178 m 1,0,1
 1583 1178 1583 1178 1538 1099 c 0,2,3
 1527 1079 1527 1079 1483 954 c 2,4,-1
 1154 3 l 1,5,-1
 1120 3 l 1,6,-1
 851 757 l 1,7,-1
 584 3 l 1,8,-1
 552 3 l 1,9,-1
 202 983 l 2,10,11
 162 1093 162 1093 152 1112 c 0,12,13
 118 1178 118 1178 23 1178 c 1,14,-1
 23 1210 l 1,15,-1
 460 1210 l 1,16,-1
 460 1178 l 1,17,-1
 439 1178 l 2,18,19
 345 1178 345 1178 345 1106 c 0,20,21
 345 1075 345 1075 383 966 c 2,22,-1
 615 304 l 1,23,-1
 811 867 l 1,24,-1
 748 1045 l 2,25,26
 736 1080 736 1080 707 1122 c 0,27,28
 683 1157 683 1157 636 1172 c 0,29,30
 620 1178 620 1178 584 1178 c 1,31,-1
 584 1210 l 1,32,-1
 1043 1210 l 1,33,-1
 1043 1178 l 1,34,-1
 1012 1178 l 2,35,36
 918 1178 918 1178 918 1100 c 0,37,38
 918 1056 918 1056 957 945 c 2,39,-1
 1183 304 l 1,40,-1
 1408 954 l 2,41,42
 1446 1065 1446 1065 1446 1104 c 0,43,44
 1446 1149 1446 1149 1402 1165 c 0,45,46
 1368 1178 1368 1178 1315 1178 c 1,47,-1
 1315 1210 l 1,48,-1
 1668 1210 l 1,49,-1
 1668 1178 l 1,0,1
EndSplineSet
Validated: 1
EndChar

StartChar: X
Encoding: 88 88 57
Width: 1287
GlyphClass: 2
Flags: W
LayerCount: 2
Fore
SplineSet
1266 30 m 1,0,-1
 760 30 l 1,1,-1
 760 62 l 1,2,3
 798 63 798 63 817 67 c 0,4,5
 848 75 848 75 864 97 c 0,6,7
 876 113 876 113 876 129 c 0,8,9
 876 150 876 150 868 169 c 0,10,11
 864 180 864 180 820 246 c 2,12,-1
 620 549 l 1,13,-1
 373 232 l 2,14,15
 318 162 318 162 318 129 c 0,16,17
 318 67 318 67 432 62 c 1,18,-1
 432 30 l 1,19,-1
 13 30 l 1,20,-1
 13 62 l 1,21,22
 57 66 57 66 90 80 c 0,23,24
 199 127 199 127 304 259 c 2,25,-1
 582 610 l 1,26,-1
 350 950 l 2,27,28
 273 1062 273 1062 221 1107 c 0,29,30
 141 1174 141 1174 37 1178 c 1,31,-1
 37 1210 l 1,32,-1
 582 1210 l 1,33,-1
 582 1178 l 1,34,35
 461 1173 461 1173 461 1111 c 0,36,37
 461 1079 461 1079 503 1017 c 2,38,-1
 684 746 l 1,39,-1
 893 1011 l 2,40,41
 947 1079 947 1079 947 1111 c 0,42,43
 947 1153 947 1153 903 1169 c 0,44,45
 883 1177 883 1177 820 1178 c 1,46,-1
 820 1210 l 1,47,-1
 1239 1210 l 1,48,-1
 1239 1178 l 1,49,50
 1189 1175 1189 1175 1158 1162 c 0,51,52
 1074 1126 1074 1126 961 983 c 2,53,-1
 727 683 l 1,54,-1
 980 306 l 2,55,56
 1066 178 1066 178 1096 146 c 0,57,58
 1172 67 1172 67 1266 62 c 1,59,-1
 1266 30 l 1,0,-1
EndSplineSet
Validated: 1
EndChar

StartChar: Y
Encoding: 89 89 58
Width: 1287
GlyphClass: 2
Flags: W
LayerCount: 2
Fore
SplineSet
1261 1178 m 1,0,-1
 1238 1178 l 2,1,2
 1167 1178 1167 1178 1093 1100 c 0,3,4
 1061 1067 1061 1067 1005 978 c 2,5,-1
 720 530 l 1,6,-1
 720 234 l 2,7,8
 720 126 720 126 745 99 c 0,9,10
 778 62 778 62 849 62 c 2,11,-1
 887 62 l 1,12,-1
 887 30 l 1,13,-1
 386 30 l 1,14,-1
 386 62 l 1,15,-1
 428 62 l 2,16,17
 503 62 503 62 534 107 c 0,18,19
 553 135 553 135 553 234 c 2,20,-1
 553 514 l 1,21,-1
 230 1008 l 2,22,23
 177 1089 177 1089 162 1105 c 0,24,25
 132 1138 132 1138 67 1169 c 0,26,27
 49 1178 49 1178 17 1178 c 1,28,-1
 17 1210 l 1,29,-1
 521 1210 l 1,30,-1
 521 1178 l 1,31,-1
 495 1178 l 2,32,33
 385 1178 385 1178 385 1101 c 0,34,35
 385 1070 385 1070 438 988 c 2,36,-1
 685 608 l 1,37,-1
 916 971 l 2,38,39
 968 1053 968 1053 968 1093 c 0,40,41
 968 1144 968 1144 920 1167 c 0,42,43
 896 1178 896 1178 849 1178 c 1,44,-1
 849 1210 l 1,45,-1
 1261 1210 l 1,46,-1
 1261 1178 l 1,0,-1
EndSplineSet
Validated: 1
EndChar

StartChar: Z
Encoding: 90 90 59
Width: 1088
GlyphClass: 2
Flags: W
LayerCount: 2
Fore
SplineSet
1039 342 m 1,0,-1
 983 30 l 1,1,-1
 23 30 l 1,2,-1
 23 62 l 1,3,-1
 780 1139 l 1,4,-1
 402 1139 l 2,5,6
 247 1139 247 1139 201 1060 c 0,7,8
 179 1021 179 1021 161 915 c 1,9,-1
 128 915 l 1,10,-1
 152 1210 l 1,11,-1
 1025 1210 l 1,12,-1
 250 101 l 1,13,-1
 733 101 l 2,14,15
 857 101 857 101 920 165 c 0,16,17
 969 216 969 216 1010 348 c 1,18,-1
 1039 342 l 1,0,-1
EndSplineSet
Validated: 1
EndChar

StartChar: bracketleft
Encoding: 91 91 60
Width: 593
GlyphClass: 2
Flags: W
LayerCount: 2
Fore
SplineSet
529 -323 m 1,0,-1
 146 -323 l 1,1,-1
 146 1237 l 1,2,-1
 529 1237 l 1,3,-1
 529 1168 l 1,4,-1
 277 1168 l 1,5,-1
 277 -255 l 1,6,-1
 529 -255 l 1,7,-1
 529 -323 l 1,0,-1
EndSplineSet
Validated: 1
EndChar

StartChar: backslash
Encoding: 92 92 61
Width: 495
GlyphClass: 2
Flags: W
LayerCount: 2
Fore
SplineSet
499 6 m 1,0,-1
 429 6 l 1,1,-1
 3 1267 l 1,2,-1
 72 1267 l 1,3,-1
 499 6 l 1,0,-1
EndSplineSet
Validated: 1
EndChar

StartChar: bracketright
Encoding: 93 93 62
Width: 593
GlyphClass: 2
Flags: W
LayerCount: 2
Fore
SplineSet
448 -324 m 1,0,-1
 65 -324 l 1,1,-1
 65 -255 l 1,2,-1
 318 -255 l 1,3,-1
 318 1168 l 1,4,-1
 65 1168 l 1,5,-1
 65 1237 l 1,6,-1
 448 1237 l 1,7,-1
 448 -324 l 1,0,-1
EndSplineSet
Validated: 1
EndChar

StartChar: asciicircum
Encoding: 94 94 63
Width: 836
GlyphClass: 2
Flags: W
LayerCount: 2
Fore
SplineSet
803 610 m 1,0,-1
 723 610 l 1,1,-1
 418 1120 l 1,2,-1
 114 610 l 1,3,-1
 32 610 l 1,4,-1
 407 1234 l 1,5,-1
 433 1234 l 1,6,-1
 803 610 l 1,0,-1
EndSplineSet
Validated: 1
EndChar

StartChar: underscore
Encoding: 95 95 64
Width: 891
GlyphClass: 2
Flags: W
LayerCount: 2
Fore
SplineSet
907 -355 m 1,0,-1
 -15 -355 l 1,1,-1
 -15 -281 l 1,2,-1
 907 -281 l 1,3,-1
 907 -355 l 1,0,-1
EndSplineSet
Validated: 1
EndChar

StartChar: grave
Encoding: 96 96 65
Width: 593
GlyphClass: 2
Flags: W
LayerCount: 2
Fore
SplineSet
389 939 m 1,0,-1
 358 939 l 1,1,-1
 103 1239 l 1,2,-1
 297 1239 l 1,3,-1
 389 939 l 1,0,-1
EndSplineSet
Validated: 1
EndChar

StartChar: a
Encoding: 97 97 66
Width: 791
GlyphClass: 2
Flags: W
LayerCount: 2
Fore
SplineSet
787 145 m 1,0,1
 690 14 690 14 601 14 c 0,2,3
 509 14 509 14 507 145 c 1,4,5
 384 50 384 50 353 35 c 0,6,7
 307 13 307 13 253 13 c 0,8,9
 166 13 166 13 115 72 c 128,-1,10
 64 131 64 131 64 219 c 0,11,12
 64 342 64 342 214 431 c 0,13,14
 302 483 302 483 507 558 c 1,15,-1
 507 589 l 2,16,17
 507 797 507 797 359 797 c 0,18,19
 314 797 314 797 278 772 c 0,20,21
 238 744 238 744 239 700 c 2,22,-1
 241 649 l 2,23,24
 244 566 244 566 167 566 c 0,25,26
 94 566 94 566 94 650 c 0,27,28
 94 748 94 748 196 804 c 0,29,30
 280 850 280 850 385 850 c 0,31,32
 584 850 584 850 635 730 c 0,33,34
 651 693 651 693 651 577 c 2,35,-1
 651 307 l 2,36,37
 651 149 651 149 669 133 c 0,38,39
 679 124 679 124 693 124 c 256,40,41
 707 124 707 124 717 130 c 0,42,43
 735 141 735 141 787 194 c 1,44,-1
 787 145 l 1,0,1
507 201 m 1,45,-1
 507 505 l 1,46,47
 378 453 378 453 338 431 c 0,48,49
 210 359 210 359 210 260 c 0,50,51
 210 203 210 203 243 161 c 0,52,53
 278 114 278 114 333 114 c 0,54,55
 399 114 399 114 507 201 c 1,45,-1
EndSplineSet
Validated: 33
EndChar

StartChar: b
Encoding: 98 98 67
Width: 891
GlyphClass: 2
Flags: W
LayerCount: 2
Fore
SplineSet
829 459 m 0,0,1
 829 247 829 247 688 117 c 0,2,3
 567 6 567 6 418 6 c 0,4,5
 280 6 280 6 130 107 c 1,6,-1
 130 932 l 2,7,8
 130 1120 130 1120 104 1142 c 0,9,10
 90 1153 90 1153 69 1153 c 0,11,12
 44 1153 44 1153 8 1139 c 1,13,-1
 -4 1170 l 1,14,-1
 235 1267 l 1,15,-1
 274 1267 l 1,16,-1
 274 689 l 1,17,18
 390 850 390 850 524 850 c 0,19,20
 670 850 670 850 755 723 c 0,21,22
 829 612 829 612 829 459 c 0,0,1
679 409 m 256,23,24
 679 529 679 529 628 618 c 0,25,26
 566 727 566 727 455 727 c 0,27,28
 409 727 409 727 363 703 c 0,29,30
 328 686 328 686 274 634 c 1,31,-1
 274 157 l 1,32,33
 364 69 364 69 463 69 c 0,34,35
 572 69 572 69 632 192 c 0,36,37
 679 289 679 289 679 409 c 256,23,24
EndSplineSet
Validated: 1
EndChar

StartChar: c
Encoding: 99 99 68
Width: 791
GlyphClass: 2
Flags: W
LayerCount: 2
Fore
SplineSet
733 333 m 1,0,1
 705 196 705 196 623 107 c 0,2,3
 530 6 530 6 398 6 c 0,4,5
 239 6 239 6 145 141 c 0,6,7
 61 262 61 262 61 428 c 0,8,9
 61 602 61 602 163 722 c 0,10,11
 270 850 270 850 441 850 c 0,12,13
 533 850 533 850 615 802 c 0,14,15
 710 745 710 745 710 659 c 0,16,17
 710 585 710 585 629 585 c 0,18,19
 578 585 578 585 552 618 c 0,20,21
 539 634 539 634 532 690 c 0,22,23
 525 742 525 742 496 767 c 128,-1,24
 467 792 467 792 412 792 c 0,25,26
 325 792 325 792 272 728 c 0,27,28
 202 642 202 642 202 502 c 0,29,30
 202 367 202 367 263 264 c 0,31,32
 335 141 335 141 461 141 c 0,33,34
 546 141 546 141 614 200 c 0,35,36
 662 241 662 241 707 345 c 1,37,-1
 733 333 l 1,0,1
EndSplineSet
Validated: 1
EndChar

StartChar: d
Encoding: 100 100 69
Width: 891
GlyphClass: 2
Flags: W
LayerCount: 2
Fore
SplineSet
895 104 m 1,0,-1
 659 6 l 1,1,-1
 619 6 l 1,2,-1
 619 120 l 1,3,4
 509 6 509 6 385 6 c 0,5,6
 237 6 237 6 144 130 c 0,7,8
 59 243 59 243 59 395 c 0,9,10
 59 570 59 570 163 705 c 0,11,12
 275 851 275 851 445 851 c 0,13,14
 550 851 550 851 619 784 c 1,15,-1
 619 931 l 2,16,17
 619 1120 619 1120 592 1142 c 0,18,19
 578 1153 578 1153 557 1153 c 0,20,21
 534 1153 534 1153 497 1139 c 1,22,-1
 485 1170 l 1,23,-1
 723 1267 l 1,24,-1
 762 1267 l 1,25,-1
 762 346 l 2,26,27
 762 155 762 155 790 132 c 0,28,29
 804 120 804 120 823 120 c 0,30,31
 847 120 847 120 886 134 c 1,32,-1
 895 104 l 1,0,-1
619 181 m 1,33,-1
 619 591 l 1,34,35
 607 721 607 721 518 773 c 0,36,37
 475 797 475 797 434 797 c 0,38,39
 358 797 358 797 298 729 c 0,40,41
 218 638 218 638 218 464 c 0,42,43
 218 330 218 330 274 228 c 0,44,45
 342 101 342 101 465 101 c 0,46,47
 545 101 545 101 619 181 c 1,33,-1
EndSplineSet
Validated: 1
EndChar

StartChar: e
Encoding: 101 101 70
Width: 791
GlyphClass: 2
Flags: W
LayerCount: 2
Fore
SplineSet
740 321 m 1,0,1
 721 192 721 192 633 102 c 0,2,3
 540 6 540 6 414 6 c 0,4,5
 252 6 252 6 154 134 c 0,6,7
 66 250 66 250 66 418 c 0,8,9
 66 601 66 601 157 720 c 0,10,11
 257 851 257 851 434 851 c 0,12,13
 575 851 575 851 659 758 c 0,14,15
 740 669 740 669 740 527 c 1,16,-1
 190 527 l 1,17,18
 189 379 189 379 259 272 c 0,19,20
 339 147 339 147 480 147 c 0,21,22
 642 147 642 147 713 338 c 1,23,-1
 740 321 l 1,0,1
559 577 m 1,24,25
 554 654 554 654 540 685 c 0,26,27
 494 790 494 790 385 790 c 0,28,29
 302 790 302 790 247 724 c 0,30,31
 198 664 198 664 190 577 c 1,32,-1
 559 577 l 1,24,25
EndSplineSet
Validated: 33
EndChar

StartChar: f
Encoding: 102 102 71
Width: 593
GlyphClass: 2
Flags: W
LayerCount: 2
Fore
SplineSet
774 1118 m 0,0,1
 774 1092 774 1092 751.5 1069 c 128,-1,2
 729 1046 729 1046 703 1046 c 0,3,4
 658 1046 658 1046 606 1122 c 0,5,6
 552 1203 552 1203 487 1203 c 0,7,8
 403 1203 403 1203 379 1115 c 0,9,10
 367 1071 367 1071 367 884 c 2,11,-1
 367 827 l 1,12,-1
 572 827 l 1,13,-1
 572 764 l 1,14,-1
 367 764 l 1,15,-1
 367 241 l 2,16,17
 367 129 367 129 391 100 c 0,18,19
 423 61 423 61 478 61 c 2,20,-1
 550 61 l 1,21,-1
 550 30 l 1,22,-1
 74 30 l 1,23,-1
 74 61 l 1,24,-1
 110 61 l 2,25,26
 189 61 189 61 213 126 c 0,27,28
 224 155 224 155 224 241 c 2,29,-1
 224 764 l 1,30,-1
 69 764 l 1,31,-1
 69 827 l 1,32,-1
 224 827 l 1,33,-1
 224 879 l 2,34,35
 224 1114 224 1114 379 1214 c 0,36,37
 458 1265 458 1265 556 1265 c 0,38,39
 647 1265 647 1265 724 1206 c 0,40,41
 774 1167 774 1167 774 1118 c 0,0,1
EndSplineSet
Validated: 1
EndChar

StartChar: g
Encoding: 103 103 72
Width: 891
GlyphClass: 2
Flags: W
LayerCount: 2
Fore
SplineSet
859 757 m 0,0,1
 859 724 859 724 845 719 c 0,2,3
 839 716 839 716 801 716 c 2,4,-1
 698 716 l 1,5,6
 746 654 746 654 746 556 c 0,7,8
 746 431 746 431 650 356 c 0,9,10
 561 287 561 287 432 287 c 0,11,12
 373 287 373 287 311 304 c 1,13,14
 246 248 246 248 246 204 c 0,15,16
 246 165 246 165 317 155 c 0,17,18
 342 152 342 152 438 149 c 0,19,20
 617 145 617 145 671 137 c 0,21,22
 748 126 748 126 796 81 c 0,23,24
 848 32 848 32 848 -43 c 0,25,26
 848 -141 848 -141 756 -228 c 0,27,28
 620 -355 620 -355 402 -355 c 0,29,30
 233 -355 233 -355 118 -279 c 0,31,32
 53 -236 53 -236 53 -188 c 0,33,34
 53 -145 53 -145 124 -57 c 0,35,36
 131 -48 131 -48 212 37 c 1,37,38
 130 86 130 86 130 134 c 0,39,40
 130 204 130 204 269 321 c 1,41,42
 117 394 117 394 117 562 c 0,43,44
 117 690 117 690 214 772 c 0,45,46
 305 850 305 850 435 850 c 0,47,48
 549 850 549 850 632 795 c 1,49,-1
 801 795 l 2,50,51
 849 795 849 795 854 786 c 128,-1,52
 859 777 859 777 859 757 c 0,0,1
594 535 m 0,53,54
 594 673 594 673 534 751 c 0,55,56
 490 809 490 809 420 809 c 0,57,58
 269 809 269 809 269 600 c 0,59,60
 269 462 269 462 328 387 c 0,61,62
 373 329 373 329 443 329 c 0,63,64
 594 329 594 329 594 535 c 0,53,54
785 -77 m 0,65,66
 785 -17 785 -17 695 1 c 0,67,68
 664 7 664 7 561 10 c 0,69,70
 366 15 366 15 260 30 c 1,71,72
 177 -60 177 -60 177 -123 c 0,73,74
 177 -165 177 -165 228 -196 c 0,75,76
 315 -250 315 -250 479 -250 c 0,77,78
 586 -250 586 -250 670 -216 c 0,79,80
 785 -169 785 -169 785 -77 c 0,65,66
EndSplineSet
Validated: 1
EndChar

StartChar: h
Encoding: 104 104 73
Width: 891
GlyphClass: 2
Flags: W
LayerCount: 2
Fore
SplineSet
880 30 m 1,0,-1
 488 30 l 1,1,-1
 488 61 l 1,2,-1
 506 61 l 2,3,4
 598 61 598 61 614 128 c 0,5,6
 617 139 617 139 617 210 c 2,7,-1
 617 492 l 2,8,9
 617 588 617 588 613 617 c 0,10,11
 602 696 602 696 560 725 c 0,12,13
 531 745 531 745 489 745 c 0,14,15
 396 745 396 745 290 631 c 1,16,-1
 290 210 l 2,17,18
 290 147 290 147 292 134 c 0,19,20
 300 93 300 93 333 75 c 0,21,22
 358 61 358 61 418 61 c 1,23,-1
 418 30 l 1,24,-1
 23 30 l 1,25,-1
 23 61 l 1,26,27
 76 61 76 61 107 78 c 0,28,29
 145 98 145 98 145 210 c 2,30,-1
 145 931 l 2,31,32
 145 1120 145 1120 119 1142 c 0,33,34
 105 1153 105 1153 83 1153 c 0,35,36
 64 1153 64 1153 23 1139 c 1,37,-1
 11 1170 l 1,38,-1
 250 1267 l 1,39,-1
 290 1267 l 1,40,-1
 290 684 l 1,41,42
 441 850 441 850 556 850 c 0,43,44
 699 850 699 850 745 696 c 0,45,46
 761 639 761 639 761 492 c 2,47,-1
 761 210 l 2,48,49
 761 98 761 98 803 73 c 0,50,51
 824 61 824 61 880 61 c 1,52,-1
 880 30 l 1,0,-1
EndSplineSet
Validated: 1
EndChar

StartChar: i
Encoding: 105 105 74
Width: 495
GlyphClass: 2
Flags: W
LayerCount: 2
Fore
SplineSet
346 1179 m 256,0,1
 346 1142 346 1142 320.5 1116.5 c 128,-1,2
 295 1091 295 1091 258 1091 c 0,3,4
 222 1091 222 1091 196 1116.5 c 128,-1,5
 170 1142 170 1142 170 1179 c 256,6,7
 170 1216 170 1216 195.5 1241.5 c 128,-1,8
 221 1267 221 1267 258 1267 c 256,9,10
 295 1267 295 1267 320.5 1241.5 c 128,-1,11
 346 1216 346 1216 346 1179 c 256,0,1
452 30 m 1,12,-1
 64 30 l 1,13,-1
 64 61 l 1,14,15
 153 61 153 61 174 110 c 0,16,17
 186 136 186 136 186 210 c 2,18,-1
 186 517 l 2,19,20
 186 648 186 648 178 685 c 0,21,22
 168 735 168 735 124 735 c 0,23,24
 99 735 99 735 64 722 c 1,25,-1
 52 753 l 1,26,-1
 292 850 l 1,27,-1
 331 850 l 1,28,-1
 331 210 l 2,29,30
 331 98 331 98 374 73 c 0,31,32
 395 61 395 61 452 61 c 1,33,-1
 452 30 l 1,12,-1
EndSplineSet
Validated: 1
EndChar

StartChar: j
Encoding: 106 106 75
Width: 495
GlyphClass: 2
Flags: W
LayerCount: 2
Fore
SplineSet
347 1178 m 0,0,1
 347 1141 347 1141 321 1115.5 c 128,-1,2
 295 1090 295 1090 258 1090 c 256,3,4
 221 1090 221 1090 195 1116 c 128,-1,5
 169 1142 169 1142 169 1178 c 0,6,7
 169 1216 169 1216 194.5 1242 c 128,-1,8
 220 1268 220 1268 258 1268 c 0,9,10
 295 1268 295 1268 321 1242 c 128,-1,11
 347 1216 347 1216 347 1178 c 0,0,1
332 48 m 2,12,13
 332 -125 332 -125 264 -230 c 0,14,15
 183 -355 183 -355 19 -355 c 0,16,17
 -34 -355 -34 -355 -78 -337 c 0,18,19
 -137 -312 -137 -312 -137 -267 c 0,20,21
 -137 -237 -137 -237 -116 -215 c 128,-1,22
 -95 -193 -95 -193 -65 -193 c 0,23,24
 -44 -193 -44 -193 -19 -204 c 0,25,26
 -6 -210 -6 -210 42 -252 c 0,27,28
 82 -286 82 -286 109 -286 c 0,29,30
 162 -286 162 -286 179 -216 c 0,31,32
 189 -178 189 -178 189 -52 c 2,33,-1
 189 515 l 2,34,35
 189 647 189 647 181 684 c 0,36,37
 170 735 170 735 126 735 c 0,38,39
 102 735 102 735 67 722 c 1,40,-1
 55 753 l 1,41,-1
 295 850 l 1,42,-1
 332 850 l 1,43,-1
 332 48 l 2,12,13
EndSplineSet
Validated: 1
EndChar

StartChar: k
Encoding: 107 107 76
Width: 891
GlyphClass: 2
Flags: W
LayerCount: 2
Fore
SplineSet
901 30 m 1,0,-1
 514 30 l 1,1,-1
 514 61 l 1,2,3
 571 63 571 63 571 97 c 0,4,5
 571 117 571 117 536 161 c 2,6,-1
 291 474 l 1,7,-1
 291 209 l 2,8,9
 291 94 291 94 333 73 c 0,10,11
 353 62 353 62 420 61 c 1,12,-1
 420 30 l 1,13,-1
 15 30 l 1,14,-1
 15 61 l 1,15,16
 113 61 113 61 134 106 c 0,17,18
 147 134 147 134 147 205 c 2,19,-1
 147 930 l 2,20,21
 147 1120 147 1120 121 1142 c 0,22,23
 107 1154 107 1154 84 1154 c 0,24,25
 66 1154 66 1154 30 1139 c 1,26,-1
 15 1170 l 1,27,-1
 251 1267 l 1,28,-1
 291 1267 l 1,29,-1
 291 474 l 1,30,-1
 494 659 l 2,31,32
 558 717 558 717 569 734 c 0,33,34
 576 744 576 744 576 755 c 0,35,36
 576 796 576 796 514 799 c 1,37,-1
 514 827 l 1,38,-1
 860 827 l 1,39,-1
 860 799 l 1,40,41
 735 796 735 796 638 706 c 2,42,-1
 433 517 l 1,43,-1
 638 259 l 2,44,45
 720 155 720 155 753 123 c 0,46,47
 794 82 794 82 826 70 c 0,48,49
 848 61 848 61 901 61 c 1,50,-1
 901 30 l 1,0,-1
EndSplineSet
Validated: 5
EndChar

StartChar: l
Encoding: 108 108 77
Width: 495
GlyphClass: 2
Flags: W
LayerCount: 2
Fore
SplineSet
458 30 m 1,0,-1
 68 30 l 1,1,-1
 68 61 l 1,2,3
 153 61 153 61 174 110 c 0,4,5
 185 136 185 136 185 210 c 2,6,-1
 185 934 l 2,7,8
 185 1120 185 1120 160 1142 c 0,9,10
 146 1153 146 1153 125 1153 c 0,11,12
 103 1153 103 1153 68 1139 c 1,13,-1
 53 1170 l 1,14,-1
 291 1267 l 1,15,-1
 330 1267 l 1,16,-1
 330 210 l 2,17,18
 330 99 330 99 374 74 c 0,19,20
 397 61 397 61 458 61 c 1,21,-1
 458 30 l 1,0,-1
EndSplineSet
Validated: 1
EndChar

StartChar: m
Encoding: 109 109 78
Width: 1386
GlyphClass: 2
Flags: W
LayerCount: 2
Fore
SplineSet
1378 30 m 1,0,-1
 985 30 l 1,1,-1
 985 61 l 1,2,-1
 1001 61 l 2,3,4
 1093 61 1093 61 1110 126 c 0,5,6
 1114 139 1114 139 1114 210 c 2,7,-1
 1114 553 l 2,8,9
 1114 651 1114 651 1090 690 c 0,10,11
 1057 746 1057 746 981 746 c 0,12,13
 891 746 891 746 776 637 c 1,14,-1
 774 628 l 1,15,-1
 776 590 l 1,16,-1
 776 210 l 2,17,18
 776 146 776 146 778 133 c 0,19,20
 786 93 786 93 820 75 c 0,21,22
 845 61 845 61 906 61 c 1,23,-1
 906 30 l 1,24,-1
 503 30 l 1,25,-1
 503 61 l 1,26,27
 609 61 609 61 628 124 c 0,28,29
 632 138 632 138 632 210 c 2,30,-1
 632 553 l 2,31,32
 632 749 632 749 497 749 c 0,33,34
 451 749 451 749 404 723 c 0,35,36
 331 684 331 684 292 637 c 1,37,-1
 292 210 l 2,38,39
 292 97 292 97 335 73 c 0,40,41
 357 61 357 61 422 61 c 1,42,-1
 422 30 l 1,43,-1
 28 30 l 1,44,-1
 28 61 l 1,45,46
 116 61 116 61 137 110 c 0,47,48
 149 136 149 136 149 210 c 2,49,-1
 149 515 l 2,50,51
 149 647 149 647 141 684 c 0,52,53
 130 735 130 735 86 735 c 0,54,55
 62 735 62 735 28 722 c 1,56,-1
 15 753 l 1,57,-1
 255 850 l 1,58,-1
 292 850 l 1,59,-1
 292 681 l 1,60,61
 379 767 379 767 395 781 c 0,62,63
 478 850 478 850 569 850 c 0,64,65
 732 850 732 850 770 681 c 1,66,67
 916 850 916 850 1048 850 c 0,68,69
 1185 850 1185 850 1239 711 c 0,70,71
 1258 661 1258 661 1258 553 c 2,72,-1
 1258 210 l 2,73,74
 1258 134 1258 134 1269 107 c 0,75,76
 1289 61 1289 61 1378 61 c 1,77,-1
 1378 30 l 1,0,-1
EndSplineSet
Validated: 1
EndChar

StartChar: n
Encoding: 110 110 79
Width: 891
GlyphClass: 2
Flags: W
LayerCount: 2
Fore
SplineSet
883 30 m 1,0,-1
 489 30 l 1,1,-1
 489 61 l 1,2,-1
 505 61 l 2,3,4
 597 61 597 61 614 128 c 0,5,6
 618 141 618 141 618 210 c 2,7,-1
 618 536 l 2,8,9
 618 743 618 743 494 743 c 0,10,11
 391 743 391 743 288 630 c 1,12,-1
 288 210 l 2,13,14
 288 130 288 130 298 110 c 0,15,16
 321 61 321 61 418 61 c 1,17,-1
 418 30 l 1,18,-1
 23 30 l 1,19,-1
 23 61 l 1,20,-1
 41 61 l 2,21,22
 108 61 108 61 130 104 c 0,23,24
 144 133 144 133 144 210 c 2,25,-1
 144 506 l 2,26,27
 144 701 144 701 118 723 c 0,28,29
 104 735 104 735 82 735 c 0,30,31
 57 735 57 735 23 722 c 1,32,-1
 10 753 l 1,33,-1
 251 850 l 1,34,-1
 288 850 l 1,35,-1
 288 682 l 1,36,37
 428 850 428 850 555 850 c 0,38,39
 690 850 690 850 742 710 c 0,40,41
 761 659 761 659 761 550 c 2,42,-1
 761 210 l 2,43,44
 761 98 761 98 804 73 c 0,45,46
 826 61 826 61 883 61 c 1,47,-1
 883 30 l 1,0,-1
EndSplineSet
Validated: 1
EndChar

StartChar: o
Encoding: 111 111 80
Width: 891
GlyphClass: 2
Flags: W
LayerCount: 2
Fore
SplineSet
829 443 m 0,0,1
 829 333 829 333 779 228 c 0,2,3
 725 116 725 116 635.5 61 c 128,-1,4
 546 6 546 6 436 6 c 0,5,6
 256 6 256 6 150 149 c 0,7,8
 60 270 60 270 60 421 c 0,9,10
 60 530 60 530 112 635 c 0,11,12
 168 746 168 746 257 798 c 128,-1,13
 346 850 346 850 445 850 c 0,14,15
 627 850 627 850 736 713 c 0,16,17
 829 596 829 596 829 443 c 0,0,1
667 376 m 0,18,19
 667 588 667 588 576 710 c 0,20,21
 514 794 514 794 418 794 c 0,22,23
 302 794 302 794 251 670 c 0,24,25
 222 602 222 602 222 494 c 0,26,27
 222 346 222 346 275 225 c 0,28,29
 344 67 344 67 473 67 c 0,30,31
 667 67 667 67 667 376 c 0,18,19
EndSplineSet
Validated: 1
EndChar

StartChar: p
Encoding: 112 112 81
Width: 891
GlyphClass: 2
Flags: W
LayerCount: 2
Fore
SplineSet
830 457 m 0,0,1
 830 251 830 251 712 116 c 0,2,3
 614 6 614 6 466 6 c 0,4,5
 403 6 403 6 355 24 c 0,6,7
 320 37 320 37 277 76 c 1,8,-1
 277 -167 l 2,9,10
 277 -229 277 -229 280 -245 c 0,11,12
 288 -288 288 -288 321 -306 c 0,13,14
 346 -319 346 -319 412 -319 c 1,15,-1
 412 -351 l 1,16,-1
 -6 -351 l 1,17,-1
 -6 -319 l 1,18,-1
 16 -319 l 2,19,20
 102 -319 102 -319 123 -270 c 0,21,22
 132 -248 132 -248 132 -161 c 2,23,-1
 132 592 l 2,24,25
 132 702 132 702 103 722 c 0,26,27
 88 732 88 732 62 732 c 0,28,29
 41 732 41 732 9 720 c 1,30,-1
 -2 748 l 1,31,-1
 244 847 l 1,32,-1
 277 847 l 1,33,-1
 277 661 l 1,34,35
 388 850 388 850 532 850 c 0,36,37
 651 850 651 850 732 756 c 0,38,39
 830 641 830 641 830 457 c 0,0,1
675 375 m 0,40,41
 675 558 675 558 595 656 c 0,42,43
 540 724 540 724 463 724 c 0,44,45
 421 724 421 724 380 703 c 0,46,47
 349 687 349 687 277 609 c 1,48,-1
 277 312 l 2,49,50
 277 217 277 217 284 185 c 0,51,52
 299 126 299 126 350 92 c 128,-1,53
 401 58 401 58 464 58 c 0,54,55
 551 58 551 58 605 126 c 0,56,57
 675 214 675 214 675 375 c 0,40,41
EndSplineSet
Validated: 1
EndChar

StartChar: q
Encoding: 113 113 82
Width: 891
GlyphClass: 2
Flags: W
LayerCount: 2
Fore
SplineSet
891 -351 m 1,0,-1
 489 -351 l 1,1,-1
 489 -319 l 1,2,-1
 505 -319 l 2,3,4
 587 -319 587 -319 607 -271 c 0,5,6
 618 -246 618 -246 618 -174 c 2,7,-1
 618 168 l 1,8,9
 481 6 481 6 357 6 c 0,10,11
 217 6 217 6 133 134 c 0,12,13
 59 246 59 246 59 393 c 0,14,15
 59 581 59 581 168 712 c 0,16,17
 284 850 284 850 469 850 c 0,18,19
 569 850 569 850 635 795 c 1,20,21
 686 819 686 819 732 850 c 1,22,-1
 761 850 l 1,23,-1
 761 -174 l 2,24,25
 761 -283 761 -283 804 -307 c 0,26,27
 826 -319 826 -319 891 -319 c 1,28,-1
 891 -351 l 1,0,-1
618 223 m 1,29,-1
 618 597 l 2,30,31
 618 717 618 717 540 763 c 0,32,33
 497 790 497 790 442 790 c 0,34,35
 319 790 319 790 256 679 c 0,36,37
 205 589 205 589 205 456 c 0,38,39
 205 325 205 325 259 236 c 0,40,41
 324 128 324 128 447 128 c 0,42,43
 544 128 544 128 618 223 c 1,29,-1
EndSplineSet
Validated: 1
EndChar

StartChar: r
Encoding: 114 114 83
Width: 593
GlyphClass: 2
Flags: W
LayerCount: 2
Fore
SplineSet
605 754 m 0,0,1
 605 721 605 721 583 697 c 128,-1,2
 561 673 561 673 528 673 c 0,3,4
 500 673 500 673 459.5 703 c 128,-1,5
 419 733 419 733 404 733 c 256,6,7
 389 733 389 733 370 716 c 0,8,9
 330 679 330 679 289 598 c 1,10,-1
 289 216 l 2,11,12
 289 133 289 133 319 97 c 128,-1,13
 349 61 349 61 428 61 c 1,14,-1
 428 30 l 1,15,-1
 20 30 l 1,16,-1
 20 61 l 1,17,18
 123 61 123 61 141 125 c 0,19,20
 145 140 145 140 145 209 c 2,21,-1
 145 518 l 2,22,23
 145 701 145 701 119 723 c 0,24,25
 104 735 104 735 81 735 c 0,26,27
 54 735 54 735 20 722 c 1,28,-1
 11 753 l 1,29,-1
 252 850 l 1,30,-1
 289 850 l 1,31,-1
 289 671 l 1,32,33
 389 850 389 850 494 850 c 0,34,35
 538 850 538 850 571.5 823 c 128,-1,36
 605 796 605 796 605 754 c 0,0,1
EndSplineSet
Validated: 1
EndChar

StartChar: s
Encoding: 115 115 84
Width: 693
GlyphClass: 2
Flags: W
LayerCount: 2
Fore
SplineSet
631 247 m 0,0,1
 631 142 631 142 549 72 c 0,2,3
 472 6 472 6 365 6 c 0,4,5
 289 6 289 6 197 32 c 0,6,7
 167 40 167 40 151 40 c 0,8,9
 130 40 130 40 119 18 c 1,10,-1
 90 18 l 1,11,-1
 90 302 l 1,12,-1
 119 302 l 1,13,14
 140 198 140 198 199 132 c 0,15,16
 267 57 267 57 366 57 c 0,17,18
 422 57 422 57 460 89 c 0,19,20
 502 123 502 123 502 177 c 0,21,22
 502 249 502 249 428 305 c 0,23,24
 396 330 396 330 292 381.5 c 128,-1,25
 188 433 188 433 149 471 c 0,26,27
 87 530 87 530 87 620 c 0,28,29
 87 723 87 723 156 786.5 c 128,-1,30
 225 850 225 850 329 850 c 0,31,32
 375 850 375 850 443 830 c 0,33,34
 487 817 487 817 502 817 c 0,35,36
 525 817 525 817 542 850 c 1,37,-1
 571 850 l 1,38,-1
 571 579 l 1,39,-1
 542 579 l 1,40,41
 515 685 515 685 474 734 c 0,42,43
 421 799 421 799 325 799 c 0,44,45
 275 799 275 799 235 773 c 0,46,47
 190 743 190 743 190 696 c 0,48,49
 190 603 190 603 327 536 c 2,50,-1
 454 475 l 2,51,52
 631 389 631 389 631 247 c 0,0,1
EndSplineSet
Validated: 1
EndChar

StartChar: t
Encoding: 116 116 85
Width: 495
GlyphClass: 2
Flags: W
LayerCount: 2
Fore
SplineSet
498 188 m 1,0,1
 436 17 436 17 297 17 c 0,2,3
 200 17 200 17 162 103 c 0,4,5
 144 144 144 144 144 230 c 2,6,-1
 144 766 l 1,7,-1
 17 766 l 1,8,-1
 17 795 l 1,9,10
 124 837 124 837 204 968 c 0,11,12
 224 999 224 999 260 1089 c 1,13,-1
 287 1089 l 1,14,-1
 287 827 l 1,15,-1
 473 827 l 1,16,-1
 473 766 l 1,17,-1
 287 766 l 1,18,-1
 287 249 l 2,19,20
 287 118 287 118 366 118 c 0,21,22
 434 118 434 118 464 188 c 1,23,-1
 498 188 l 1,0,1
EndSplineSet
Validated: 1
EndChar

StartChar: u
Encoding: 117 117 86
Width: 891
GlyphClass: 2
Flags: W
LayerCount: 2
Fore
SplineSet
888 104 m 1,0,-1
 650 6 l 1,1,-1
 611 6 l 1,2,-1
 611 174 l 1,3,4
 532 89 532 89 492 60 c 0,5,6
 419 6 419 6 340 6 c 0,7,8
 199 6 199 6 156 144 c 0,9,10
 137 205 137 205 137 316 c 2,11,-1
 137 672 l 2,12,13
 137 760 137 760 88 784 c 0,14,15
 64 796 64 796 2 795 c 1,16,-1
 2 827 l 1,17,-1
 281 827 l 1,18,-1
 281 294 l 2,19,20
 281 113 281 113 413 113 c 0,21,22
 499 113 499 113 611 226 c 1,23,-1
 611 677 l 2,24,25
 611 748 611 748 582 772 c 0,26,27
 557 793 557 793 483 795 c 1,28,-1
 483 827 l 1,29,-1
 754 827 l 1,30,-1
 754 344 l 2,31,32
 754 155 754 155 782 132 c 0,33,34
 796 120 796 120 815 120 c 0,35,36
 842 120 842 120 876 134 c 1,37,-1
 888 104 l 1,0,-1
EndSplineSet
Validated: 33
EndChar

StartChar: v
Encoding: 118 118 87
Width: 891
GlyphClass: 2
Flags: W
LayerCount: 2
Fore
SplineSet
874 795 m 1,0,1
 829 791 829 791 812 776 c 0,2,3
 783 752 783 752 757 689 c 2,4,-1
 474 6 l 1,5,-1
 438 6 l 1,6,-1
 154 678 l 2,7,8
 122 755 122 755 73 780 c 0,9,10
 58 788 58 788 15 795 c 1,11,-1
 15 827 l 1,12,-1
 390 827 l 1,13,-1
 390 795 l 1,14,-1
 365 795 l 2,15,16
 296 795 296 795 296 734 c 0,17,18
 296 705 296 705 314 662 c 2,19,-1
 499 221 l 1,20,-1
 686 678 l 2,21,22
 706 727 706 727 706 752 c 0,23,24
 706 764 706 764 699 772 c 0,25,26
 682 795 682 795 614 795 c 1,27,-1
 614 827 l 1,28,-1
 874 827 l 1,29,-1
 874 795 l 1,0,1
EndSplineSet
Validated: 1
EndChar

StartChar: w
Encoding: 119 119 88
Width: 1287
GlyphClass: 2
Flags: W
LayerCount: 2
Fore
SplineSet
1270 795 m 1,0,1
 1194 783 1194 783 1159 692 c 2,2,-1
 893 6 l 1,3,-1
 857 6 l 1,4,-1
 658 515 l 1,5,-1
 425 6 l 1,6,-1
 393 6 l 1,7,-1
 137 676 l 2,8,9
 116 733 116 733 93 756 c 0,10,11
 66 783 66 783 11 795 c 1,12,-1
 11 827 l 1,13,-1
 345 827 l 1,14,-1
 345 795 l 1,15,16
 271 789 271 789 271 741 c 0,17,18
 271 715 271 715 285 676 c 2,19,-1
 456 217 l 1,20,-1
 627 590 l 1,21,-1
 582 708 l 2,22,23
 562 759 562 759 527 780 c 0,24,25
 507 792 507 792 456 795 c 1,26,-1
 456 827 l 1,27,-1
 835 827 l 1,28,-1
 835 795 l 1,29,30
 729 790 729 790 729 728 c 0,31,32
 729 710 729 710 736 692 c 2,33,-1
 917 234 l 1,34,-1
 1085 676 l 2,35,36
 1102 721 1102 721 1102 750 c 0,37,38
 1102 792 1102 792 1019 795 c 1,39,-1
 1019 827 l 1,40,-1
 1270 827 l 1,41,-1
 1270 795 l 1,0,1
EndSplineSet
Validated: 1
EndChar

StartChar: x
Encoding: 120 120 89
Width: 891
GlyphClass: 2
Flags: W
LayerCount: 2
Fore
SplineSet
869 30 m 1,0,-1
 493 30 l 1,1,-1
 493 61 l 1,2,3
 571 61 571 61 571 111 c 0,4,5
 571 130 571 130 515 212 c 2,6,-1
 398 382 l 1,7,-1
 271 212 l 2,8,9
 211 133 211 133 211 118 c 0,10,11
 211 65 211 65 290 61 c 1,12,-1
 290 30 l 1,13,-1
 30 30 l 1,14,-1
 30 61 l 1,15,16
 61 66 61 66 84 83 c 0,17,18
 118 108 118 108 196 212 c 2,19,-1
 363 434 l 1,20,-1
 211 653 l 2,21,22
 158 730 158 730 135 751 c 0,23,24
 88 795 88 795 23 795 c 1,25,-1
 23 827 l 1,26,-1
 398 827 l 1,27,-1
 398 795 l 1,28,29
 334 795 334 795 334 750 c 0,30,31
 334 730 334 730 365 686 c 0,32,33
 379 665 379 665 393 642 c 2,34,-1
 450 552 l 1,35,-1
 515 642 l 2,36,37
 578 729 578 729 578 751 c 0,38,39
 578 795 578 795 515 795 c 1,40,-1
 515 827 l 1,41,-1
 785 827 l 1,42,-1
 785 795 l 1,43,44
 741 792 741 792 711 771 c 0,45,46
 669 743 669 743 594 642 c 2,47,-1
 485 497 l 1,48,-1
 684 212 l 2,49,50
 742 128 742 128 759 111 c 0,51,52
 806 65 806 65 869 61 c 1,53,-1
 869 30 l 1,0,-1
EndSplineSet
Validated: 1
EndChar

StartChar: y
Encoding: 121 121 90
Width: 891
GlyphClass: 2
Flags: W
LayerCount: 2
Fore
SplineSet
880 795 m 1,0,1
 826 789 826 789 793 742 c 0,2,3
 787 734 787 734 763 675 c 2,4,-1
 438 -121 l 2,5,6
 400 -214 400 -214 335 -278 c 0,7,8
 257 -355 257 -355 169 -355 c 0,9,10
 124 -355 124 -355 89 -329 c 0,11,12
 51 -301 51 -301 51 -257 c 0,13,14
 51 -176 51 -176 141 -176 c 0,15,16
 169 -176 169 -176 219 -195 c 0,17,18
 253 -208 253 -208 263 -208 c 0,19,20
 328 -208 328 -208 382 -77 c 2,21,-1
 438 61 l 1,22,-1
 152 662 l 2,23,24
 140 688 140 688 110 729 c 0,25,26
 88 761 88 761 75 770 c 0,27,28
 56 784 56 784 10 795 c 1,29,-1
 10 827 l 1,30,-1
 382 827 l 1,31,-1
 382 795 l 1,32,-1
 364 795 l 2,33,34
 285 795 285 795 285 736 c 0,35,36
 285 701 285 701 314 642 c 2,37,-1
 508 240 l 1,38,-1
 686 680 l 2,39,40
 701 716 701 716 701 750 c 0,41,42
 701 778 701 778 673 789 c 0,43,44
 659 795 659 795 621 795 c 1,45,-1
 621 827 l 1,46,-1
 880 827 l 1,47,-1
 880 795 l 1,0,1
EndSplineSet
Validated: 1
EndChar

StartChar: z
Encoding: 122 122 91
Width: 791
GlyphClass: 2
Flags: W
LayerCount: 2
Fore
SplineSet
762 795 m 1,0,-1
 228 88 l 1,1,-1
 519 88 l 2,2,3
 591 88 591 88 620 96 c 0,4,5
 671 110 671 110 695 157 c 0,6,7
 709 184 709 184 719 274 c 1,8,-1
 748 274 l 1,9,-1
 739 30 l 1,10,-1
 36 30 l 1,11,-1
 36 61 l 1,12,-1
 565 766 l 1,13,-1
 304 766 l 2,14,15
 237 766 237 766 217 762 c 0,16,17
 171 752 171 752 151 714 c 0,18,19
 127 670 127 670 124 606 c 1,20,-1
 89 606 l 1,21,-1
 94 827 l 1,22,-1
 762 827 l 1,23,-1
 762 795 l 1,0,-1
EndSplineSet
Validated: 1
EndChar

StartChar: braceleft
Encoding: 123 123 92
Width: 855
GlyphClass: 2
Flags: W
LayerCount: 2
Fore
SplineSet
732 -355 m 1,0,1
 598 -336 598 -336 505 -246 c 0,2,3
 405 -150 405 -150 405 -20 c 0,4,5
 405 28 405 28 425 118.5 c 128,-1,6
 445 209 445 209 445 255 c 0,7,8
 445 330 445 330 381 382 c 0,9,10
 325 429 325 429 246 439 c 1,11,-1
 246 475 l 1,12,13
 325 485 325 485 381 531 c 0,14,15
 445 583 445 583 445 658 c 0,16,17
 445 704 445 704 425 795 c 128,-1,18
 405 886 405 886 405 933 c 0,19,20
 405 1063 405 1063 505 1159 c 0,21,22
 599 1250 599 1250 732 1267 c 1,23,-1
 732 1237 l 1,24,25
 535 1190 535 1190 535 1036 c 0,26,27
 535 989 535 989 554.5 897 c 128,-1,28
 574 805 574 805 574 757 c 0,29,30
 574 653 574 653 494 569 c 0,31,32
 425 497 425 497 318 459 c 1,33,34
 424 420 424 420 494 345 c 0,35,36
 574 260 574 260 574 156 c 0,37,38
 574 109 574 109 554.5 17 c 128,-1,39
 535 -75 535 -75 535 -122 c 0,40,41
 535 -275 535 -275 732 -324 c 1,42,-1
 732 -355 l 1,0,1
EndSplineSet
Validated: 1
EndChar

StartChar: bar
Encoding: 124 124 93
Width: 357
GlyphClass: 2
Flags: W
LayerCount: 2
Fore
SplineSet
212 -355 m 1,0,-1
 140 -355 l 1,1,-1
 140 1267 l 1,2,-1
 212 1267 l 1,3,-1
 212 -355 l 1,0,-1
EndSplineSet
Validated: 1
EndChar

StartChar: braceright
Encoding: 125 125 94
Width: 855
GlyphClass: 2
Flags: W
LayerCount: 2
Fore
SplineSet
639 439 m 1,0,1
 561 429 561 429 505 382 c 0,2,3
 441 330 441 330 441 255 c 0,4,5
 441 209 441 209 461 118.5 c 128,-1,6
 481 28 481 28 481 -20 c 0,7,8
 481 -150 481 -150 381 -246 c 0,9,10
 287 -336 287 -336 154 -355 c 1,11,-1
 154 -324 l 1,12,13
 351 -275 351 -275 351 -122 c 0,14,15
 351 -75 351 -75 331 16.5 c 128,-1,16
 311 108 311 108 311 155 c 0,17,18
 311 260 311 260 391 344 c 0,19,20
 460 416 460 416 568 455 c 1,21,22
 461 494 461 494 391 568 c 0,23,24
 311 654 311 654 311 757 c 0,25,26
 311 805 311 805 331 897 c 128,-1,27
 351 989 351 989 351 1036 c 0,28,29
 351 1190 351 1190 154 1237 c 1,30,-1
 154 1267 l 1,31,32
 288 1249 288 1249 382 1159 c 0,33,34
 481 1064 481 1064 481 932 c 0,35,36
 481 885 481 885 461 794.5 c 128,-1,37
 441 704 441 704 441 658 c 0,38,39
 441 583 441 583 505 531 c 0,40,41
 561 485 561 485 639 475 c 1,42,-1
 639 439 l 1,0,1
EndSplineSet
Validated: 1
EndChar

StartChar: asciitilde
Encoding: 126 126 95
Width: 964
GlyphClass: 2
Flags: W
LayerCount: 2
Fore
SplineSet
946 617 m 1,0,1
 943 516 943 516 889 449 c 0,2,3
 831 376 831 376 733 376 c 0,4,5
 672 376 672 376 566 416 c 0,6,7
 487 449 487 449 408 482 c 0,8,9
 272 537 272 537 217 537 c 0,10,11
 89 537 89 537 56 378 c 1,12,-1
 17 378 l 1,13,14
 22 478 22 478 70 544 c 0,15,16
 126 620 126 620 221 620 c 0,17,18
 258 620 258 620 299 608 c 0,19,20
 326 600 326 600 529 519 c 0,21,22
 687 455 687 455 745 455 c 0,23,24
 890 455 890 455 907 617 c 1,25,-1
 946 617 l 1,0,1
EndSplineSet
Validated: 1
EndChar

StartChar: Amacron
Encoding: 2305 2305 96
Width: 5
GlyphClass: 4
Flags: W
AnchorPoint: "Anchor-1" -230 1125 mark 0
AnchorPoint: "Anchor-0" -230 1125 mark 0
LayerCount: 2
Fore
SplineSet
-238 1600 m 1,0,-1
 -338 1498 l 1,1,-1
 -435 1598 l 1,2,-1
 -335 1695 l 1,3,-1
 -238 1600 l 1,0,-1
-18 1510 m 1,4,5
 -109 1318 -109 1318 -288 1318 c 0,6,7
 -466 1318 -466 1318 -635 1583 c 1,8,-1
 -600 1603 l 1,9,10
 -493 1418 -493 1418 -330 1418 c 0,11,12
 -198 1418 -198 1418 -110 1580 c 1,13,-1
 -18 1510 l 1,4,5
EndSplineSet
Validated: 1
EndChar

StartChar: amacron
Encoding: 2306 2306 97
Width: 5
GlyphClass: 4
Flags: W
AnchorPoint: "Anchor-1" -215 1125 mark 0
AnchorPoint: "Anchor-0" -215 1125 mark 0
LayerCount: 2
Fore
SplineSet
-88 1498 m 1,0,-1
 -220 1365 l 1,1,-1
 -353 1498 l 1,2,-1
 -220 1630 l 1,3,-1
 -88 1498 l 1,0,-1
EndSplineSet
Validated: 1
EndChar

StartChar: Abreve
Encoding: 2307 2307 98
Width: 523
GlyphClass: 1
Flags: W
LayerCount: 2
Fore
SplineSet
403 808 m 1,0,-1
 275 680 l 1,1,-1
 143 810 l 1,2,-1
 273 940 l 1,3,-1
 403 808 l 1,0,-1
403 208 m 1,4,-1
 275 78 l 1,5,-1
 143 210 l 1,6,-1
 273 338 l 1,7,-1
 403 208 l 1,4,-1
EndSplineSet
Validated: 1
EndChar

StartChar: abreve
Encoding: 2309 2309 99
Width: 1398
GlyphClass: 1
Flags: W
AnchorPoint: "Anchor-0" 1185 1125 basechar 0
LayerCount: 2
Fore
SplineSet
1480 1063 m 1,0,-1
 1245 1063 l 1,1,-1
 1245 0 l 1,2,-1
 1115 98 l 1,3,-1
 1115 518 l 1,4,5
 1074 495 1074 495 1020 495 c 0,6,7
 932 495 932 495 825 598 c 1,8,9
 865 507 865 507 865 440 c 0,10,11
 865 178 865 178 593 178 c 0,12,13
 353 178 353 178 98 615 c 1,14,-1
 148 640 l 1,15,16
 326 305 326 305 505 305 c 0,17,18
 620 305 620 305 700 370 c 128,-1,19
 780 435 780 435 780 538 c 256,20,21
 780 641 780 641 656 714 c 1,22,23
 567 657 567 657 455 625 c 1,24,-1
 383 743 l 1,25,26
 730 843 730 843 730 1008 c 0,27,28
 730 1120 730 1120 600 1120 c 0,29,30
 498 1120 498 1120 328 1013 c 1,31,-1
 250 1130 l 1,32,33
 370 1213 370 1213 503 1213 c 0,34,35
 627 1213 627 1213 715 1140 c 0,36,37
 810 1062 810 1062 810 938 c 0,38,39
 810 834 810 834 704 748 c 1,40,-1
 793 683 l 1,41,42
 854 618 854 618 978 618 c 0,43,44
 1057 618 1057 618 1115 695 c 1,45,-1
 1115 1063 l 1,46,-1
 923 1063 l 1,47,-1
 833 1193 l 1,48,-1
 1398 1193 l 1,49,-1
 1480 1063 l 1,0,-1
EndSplineSet
Validated: 1
EndChar

StartChar: Aogonek
Encoding: 2310 2310 100
Width: 1875
GlyphClass: 1
Flags: W
AnchorPoint: "Anchor-0" 1650 1125 basechar 0
LayerCount: 2
Fore
SplineSet
1963 1063 m 1,0,-1
 1723 1063 l 1,1,-1
 1723 0 l 1,2,-1
 1593 98 l 1,3,-1
 1593 1063 l 1,4,-1
 1245 1063 l 1,5,-1
 1245 0 l 1,6,-1
 1115 98 l 1,7,-1
 1115 518 l 1,8,9
 1074 495 1074 495 1020 495 c 0,10,11
 932 495 932 495 825 598 c 1,12,13
 865 507 865 507 865 440 c 0,14,15
 865 178 865 178 593 178 c 0,16,17
 353 178 353 178 98 615 c 1,18,-1
 148 640 l 1,19,20
 326 305 326 305 505 305 c 0,21,22
 620 305 620 305 700 370 c 128,-1,23
 780 435 780 435 780 538 c 256,24,25
 780 641 780 641 656 714 c 1,26,27
 567 657 567 657 455 625 c 1,28,-1
 383 743 l 1,29,30
 730 843 730 843 730 1008 c 0,31,32
 730 1120 730 1120 600 1120 c 0,33,34
 498 1120 498 1120 328 1013 c 1,35,-1
 250 1130 l 1,36,37
 370 1213 370 1213 503 1213 c 0,38,39
 627 1213 627 1213 715 1140 c 0,40,41
 810 1062 810 1062 810 938 c 0,42,43
 810 834 810 834 704 748 c 1,44,-1
 793 683 l 1,45,46
 854 618 854 618 978 618 c 0,47,48
 1057 618 1057 618 1115 695 c 1,49,-1
 1115 1063 l 1,50,-1
 923 1063 l 1,51,-1
 833 1193 l 1,52,-1
 1875 1193 l 1,53,-1
 1963 1063 l 1,0,-1
EndSplineSet
Validated: 1
EndChar

StartChar: aogonek
Encoding: 2311 2311 101
Width: 840
GlyphClass: 1
Flags: W
AnchorPoint: "Anchor-0" 610 1125 basechar 0
LayerCount: 2
Fore
SplineSet
925 1063 m 1,0,-1
 690 1063 l 1,1,-1
 690 780 l 1,2,-1
 285 780 l 2,3,4
 198 780 198 780 198 690 c 0,5,6
 198 643 198 643 227 602 c 0,7,8
 258 558 258 558 303 558 c 0,9,10
 325 558 325 558 419.5 591.5 c 128,-1,11
 514 625 514 625 558 625 c 0,12,13
 639 625 639 625 697 540 c 0,14,15
 753 460 753 460 753 360 c 0,16,17
 753 268 753 268 642 192 c 0,18,19
 552 130 552 130 438 105 c 1,20,-1
 690 -150 l 1,21,-1
 623 -213 l 1,22,-1
 365 93 l 1,23,24
 279 93 279 93 207 145 c 0,25,26
 130 201 130 201 130 278 c 0,27,28
 130 353 130 353 220 353 c 0,29,30
 300 353 300 353 368 233 c 1,31,32
 441 233 441 233 555 291 c 0,33,34
 688 360 688 360 688 438 c 0,35,36
 688 475 688 475 665.5 500 c 128,-1,37
 643 525 643 525 613 525 c 0,38,39
 587 525 587 525 494 489 c 128,-1,40
 401 453 401 453 363 453 c 0,41,42
 268 453 268 453 181 571 c 0,43,44
 100 681 100 681 100 778 c 0,45,46
 100 903 100 903 255 903 c 2,47,-1
 558 903 l 1,48,-1
 558 1063 l 1,49,-1
 3 1063 l 1,50,-1
 -83 1193 l 1,51,-1
 840 1193 l 1,52,-1
 925 1063 l 1,0,-1
EndSplineSet
Validated: 1
EndChar

StartChar: Cacute
Encoding: 2312 2312 102
Width: 840
GlyphClass: 1
Flags: W
AnchorPoint: "Anchor-0" 660 1125 basechar 0
LayerCount: 2
Fore
SplineSet
925 1063 m 1,0,-1
 690 1063 l 1,1,-1
 690 780 l 1,2,-1
 285 780 l 2,3,4
 198 780 198 780 198 690 c 0,5,6
 198 643 198 643 227 602 c 0,7,8
 258 558 258 558 303 558 c 0,9,10
 325 558 325 558 419.5 591.5 c 128,-1,11
 514 625 514 625 558 625 c 0,12,13
 639 625 639 625 697 540 c 0,14,15
 753 460 753 460 753 360 c 0,16,17
 753 268 753 268 642 192 c 0,18,19
 552 130 552 130 438 105 c 1,20,-1
 690 -150 l 1,21,-1
 623 -213 l 1,22,-1
 365 93 l 1,23,24
 279 93 279 93 207 145 c 0,25,26
 130 201 130 201 130 278 c 0,27,28
 130 353 130 353 220 353 c 0,29,30
 300 353 300 353 368 233 c 1,31,32
 441 233 441 233 555 291 c 0,33,34
 688 360 688 360 688 438 c 0,35,36
 688 475 688 475 665.5 500 c 128,-1,37
 643 525 643 525 613 525 c 0,38,39
 587 525 587 525 494 489 c 128,-1,40
 401 453 401 453 363 453 c 0,41,42
 268 453 268 453 181 571 c 0,43,44
 100 681 100 681 100 778 c 0,45,46
 100 903 100 903 255 903 c 2,47,-1
 558 903 l 1,48,-1
 558 1063 l 1,49,-1
 3 1063 l 1,50,-1
 -83 1193 l 1,51,-1
 579 1193 l 1,52,53
 395 1433 395 1433 395 1600 c 0,54,55
 395 1682 395 1682 445.5 1731 c 128,-1,56
 496 1780 496 1780 585 1780 c 0,57,58
 689 1780 689 1780 808 1643 c 1,59,-1
 783 1615 l 1,60,61
 728 1673 728 1673 670 1673 c 0,62,63
 596 1673 596 1673 544.5 1621.5 c 128,-1,64
 493 1570 493 1570 493 1508 c 0,65,66
 493 1379 493 1379 639 1193 c 1,67,-1
 840 1193 l 1,68,-1
 925 1063 l 1,0,-1
EndSplineSet
Validated: 1
EndChar

StartChar: cacute
Encoding: 2313 2313 103
Width: 985
GlyphClass: 1
Flags: W
AnchorPoint: "Anchor-0" 650 1125 basechar 0
LayerCount: 2
Fore
SplineSet
1075 1063 m 1,0,-1
 705 1063 l 1,1,2
 818 944 818 944 818 840 c 0,3,4
 818 738 818 738 662 653 c 1,5,6
 898 455 898 455 898 268 c 0,7,8
 898 146 898 146 816 79 c 0,9,10
 745 20 745 20 638 20 c 0,11,12
 354 20 354 20 95 508 c 1,13,-1
 163 540 l 1,14,15
 328 145 328 145 555 145 c 0,16,17
 636 145 636 145 706 205 c 0,18,19
 785 273 785 273 785 378 c 0,20,21
 785 503 785 503 593 619 c 1,22,23
 503 581 503 581 405 558 c 1,24,-1
 340 688 l 1,25,26
 718 772 718 772 718 923 c 0,27,28
 718 992 718 992 615 1063 c 1,29,-1
 3 1063 l 1,30,-1
 -88 1193 l 1,31,-1
 985 1193 l 1,32,-1
 1075 1063 l 1,0,-1
EndSplineSet
Validated: 1
EndChar

StartChar: Ccircumflex
Encoding: 2314 2314 104
Width: 1423
GlyphClass: 1
Flags: W
AnchorPoint: "Anchor-0" 680 1125 basechar 0
LayerCount: 2
Fore
SplineSet
1513 1063 m 1,0,-1
 705 1063 l 1,1,2
 818 944 818 944 818 840 c 0,3,4
 818 738 818 738 662 653 c 1,5,6
 711 612 711 612 756 562 c 1,7,8
 882 708 882 708 1035 708 c 0,9,10
 1168 708 1168 708 1256 614 c 0,11,12
 1340 524 1340 524 1340 400 c 0,13,14
 1340 237 1340 237 1208 73 c 1,15,-1
 1083 168 l 1,16,17
 1233 330 1233 330 1233 490 c 0,18,19
 1233 628 1233 628 1113 628 c 0,20,21
 975 628 975 628 848 435 c 1,22,23
 898 347 898 347 898 268 c 0,24,25
 898 146 898 146 816 79 c 0,26,27
 745 20 745 20 638 20 c 0,28,29
 354 20 354 20 95 508 c 1,30,-1
 163 540 l 1,31,32
 328 145 328 145 555 145 c 0,33,34
 636 145 636 145 706 205 c 0,35,36
 785 273 785 273 785 378 c 0,37,38
 785 503 785 503 593 619 c 1,39,40
 503 581 503 581 405 558 c 1,41,-1
 340 688 l 1,42,43
 718 772 718 772 718 923 c 0,44,45
 718 992 718 992 615 1063 c 1,46,-1
 3 1063 l 1,47,-1
 -88 1193 l 1,48,-1
 1423 1193 l 1,49,-1
 1513 1063 l 1,0,-1
EndSplineSet
Validated: 1
EndChar

StartChar: ccircumflex
Encoding: 2315 2315 105
Width: 1548
GlyphClass: 1
Flags: W
AnchorPoint: "Anchor-1" 710 1125 basechar 0
AnchorPoint: "Anchor-0" 710 1125 basechar 0
LayerCount: 2
Fore
SplineSet
1633 1063 m 1,0,-1
 775 1063 l 1,1,-1
 775 640 l 1,2,3
 834 605 834 605 885 605 c 0,4,5
 1008 605 1008 605 1068 710 c 1,6,7
 1038 756 1038 756 1038 800 c 0,8,9
 1038 868 1038 868 1113 868 c 0,10,11
 1170 868 1170 868 1222.5 827 c 128,-1,12
 1275 786 1275 786 1275 748 c 0,13,14
 1275 706 1275 706 1225 658 c 1,15,-1
 1390 398 l 1,16,17
 1038 346 1038 346 1038 158 c 0,18,19
 1038 23 1038 23 1165 23 c 0,20,21
 1314 23 1314 23 1400 135 c 1,22,-1
 1493 13 l 1,23,24
 1380 -55 1380 -55 1263 -55 c 0,25,26
 1133 -55 1133 -55 1041 24 c 0,27,28
 945 107 945 107 945 233 c 0,29,30
 945 395 945 395 1208 470 c 1,31,-1
 1135 585 l 1,32,33
 1053 530 1053 530 963 530 c 0,34,35
 886 530 886 530 775 585 c 1,36,-1
 775 -3 l 1,37,-1
 643 95 l 1,38,-1
 643 505 l 1,39,-1
 220 190 l 1,40,-1
 125 293 l 1,41,-1
 643 630 l 1,42,43
 490 780 490 780 363 780 c 0,44,45
 258 780 258 780 165 685 c 1,46,-1
 78 808 l 1,47,48
 187 893 187 893 310 893 c 0,49,50
 435 893 435 893 643 698 c 1,51,-1
 643 1063 l 1,52,-1
 0 1063 l 1,53,-1
 -88 1193 l 1,54,-1
 1548 1193 l 1,55,-1
 1633 1063 l 1,0,-1
EndSplineSet
Validated: 1
EndChar

StartChar: Cdot
Encoding: 2316 2316 106
Width: 1290
GlyphClass: 1
Flags: W
LayerCount: 2
Fore
SplineSet
1380 1063 m 1,0,-1
 955 1063 l 1,1,-1
 955 857 l 1,2,3
 1070 850 1070 850 1138 776 c 0,4,5
 1200 707 1200 707 1200 608 c 0,6,7
 1200 498 1200 498 1111 419 c 0,8,9
 1087 398 1087 398 944 312 c 0,10,11
 855 258 855 258 855 208 c 0,12,13
 855 169 855 169 887 143.5 c 128,-1,14
 919 118 919 118 960 118 c 0,15,16
 1051 118 1051 118 1178 200 c 1,17,-1
 1235 78 l 1,18,19
 1136 20 1136 20 1045 20 c 0,20,21
 947 20 947 20 866 89 c 0,22,23
 780 161 780 161 780 255 c 1,24,-1
 1125 663 l 1,25,26
 1125 785 1125 785 998 785 c 0,27,28
 819 785 819 785 648 478 c 1,29,-1
 530 545 l 1,30,31
 539 565 539 565 560 603 c 0,32,33
 572 619 572 619 595 653 c 1,34,35
 523 748 523 748 425 748 c 0,36,37
 340 748 340 748 286.5 688.5 c 128,-1,38
 233 629 233 629 233 540 c 0,39,40
 233 382 233 382 382 237 c 0,41,42
 433 187 433 187 610 65 c 1,43,-1
 570 5 l 1,44,45
 110 305 110 305 110 623 c 0,46,47
 110 736 110 736 183 802 c 0,48,49
 251 865 251 865 360 865 c 0,50,51
 509 865 509 865 633 700 c 1,52,53
 710 764 710 764 828 841 c 1,54,-1
 828 1063 l 1,55,-1
 0 1063 l 1,56,-1
 -90 1193 l 1,57,-1
 1290 1193 l 1,58,-1
 1380 1063 l 1,0,-1
EndSplineSet
Validated: 1
EndChar

StartChar: cdot
Encoding: 2317 2317 107
Width: 935
GlyphClass: 1
Flags: W
LayerCount: 2
Fore
SplineSet
923 1510 m 1,0,1
 831 1318 831 1318 653 1318 c 0,2,3
 474 1318 474 1318 305 1583 c 1,4,-1
 340 1603 l 1,5,6
 447 1418 447 1418 610 1418 c 0,7,8
 742 1418 742 1418 830 1580 c 1,9,-1
 923 1510 l 1,0,1
1020 1063 m 1,10,-1
 770 1063 l 1,11,-1
 770 545 l 2,12,13
 770 398 770 398 615 398 c 0,14,15
 587 398 587 398 543 405 c 1,16,-1
 453 530 l 1,17,18
 513 523 513 523 550 523 c 0,19,20
 610 523 610 523 629 556 c 0,21,22
 640 576 640 576 640 628 c 2,23,-1
 640 1063 l 1,24,-1
 250 1063 l 1,25,-1
 250 483 l 2,26,27
 250 360 250 360 383 280 c 0,28,29
 551 179 551 179 720 78 c 1,30,31
 900 -41 900 -41 900 -113 c 0,32,33
 900 -187 900 -187 838 -233 c 1,34,-1
 705 -143 l 1,35,36
 758 -108 758 -108 758 -73 c 0,37,38
 758 -10 758 -10 579 99 c 1,39,40
 463 163 463 163 348 228 c 0,41,42
 214 308 214 308 203 318 c 0,43,44
 120 383 120 383 120 460 c 2,45,-1
 120 1063 l 1,46,-1
 0 1063 l 1,47,-1
 -88 1193 l 1,48,-1
 933 1193 l 1,49,-1
 1020 1063 l 1,10,-1
EndSplineSet
Validated: 1
EndChar

StartChar: Ccaron
Encoding: 2318 2318 108
Width: 935
GlyphClass: 1
Flags: W
AnchorPoint: "Anchor-0" 870 1125 basechar 0
LayerCount: 2
Fore
SplineSet
1020 1063 m 1,0,-1
 770 1063 l 1,1,-1
 770 545 l 2,2,3
 770 398 770 398 615 398 c 0,4,5
 587 398 587 398 543 405 c 1,6,-1
 453 530 l 1,7,8
 513 523 513 523 550 523 c 0,9,10
 610 523 610 523 629 556 c 0,11,12
 640 576 640 576 640 628 c 2,13,-1
 640 1063 l 1,14,-1
 250 1063 l 1,15,-1
 250 483 l 2,16,17
 250 360 250 360 383 280 c 0,18,19
 551 179 551 179 720 78 c 1,20,21
 900 -41 900 -41 900 -113 c 0,22,23
 900 -187 900 -187 838 -233 c 1,24,-1
 705 -143 l 1,25,26
 758 -108 758 -108 758 -73 c 0,27,28
 758 -10 758 -10 579 99 c 1,29,30
 463 163 463 163 348 228 c 0,31,32
 214 308 214 308 203 318 c 0,33,34
 120 383 120 383 120 460 c 2,35,-1
 120 1063 l 1,36,-1
 0 1063 l 1,37,-1
 -88 1193 l 1,38,-1
 715 1193 l 1,39,40
 713 1251 713 1251 705 1288 c 0,41,42
 687 1364 687 1364 598 1385 c 0,43,44
 557 1395 557 1395 435 1395 c 0,45,46
 336 1395 336 1395 268 1447 c 0,47,48
 185 1511 185 1511 185 1633 c 0,49,50
 185 1695 185 1695 195 1758 c 1,51,-1
 258 1758 l 1,52,53
 248 1709 248 1709 248 1668 c 0,54,55
 248 1533 248 1533 410 1533 c 0,56,57
 558 1533 558 1533 625 1501 c 0,58,59
 719 1456 719 1456 750 1325 c 0,60,61
 759 1287 759 1287 762 1193 c 1,62,-1
 933 1193 l 1,63,-1
 1020 1063 l 1,0,-1
EndSplineSet
Validated: 1
EndChar

StartChar: ccaron
Encoding: 2319 2319 109
Width: 935
GlyphClass: 1
Flags: W
AnchorPoint: "Anchor-0" 690 1125 basechar 0
LayerCount: 2
Fore
SplineSet
1020 1063 m 1,0,-1
 770 1063 l 1,1,-1
 770 545 l 2,2,3
 770 398 770 398 615 398 c 0,4,5
 587 398 587 398 543 405 c 1,6,-1
 453 530 l 1,7,8
 513 523 513 523 550 523 c 0,9,10
 610 523 610 523 629 556 c 0,11,12
 640 576 640 576 640 628 c 2,13,-1
 640 1063 l 1,14,-1
 250 1063 l 1,15,-1
 250 483 l 2,16,17
 250 360 250 360 383 280 c 0,18,19
 551 179 551 179 720 78 c 1,20,21
 900 -41 900 -41 900 -113 c 0,22,23
 900 -187 900 -187 838 -233 c 1,24,-1
 705 -143 l 1,25,26
 758 -108 758 -108 758 -73 c 0,27,28
 758 -10 758 -10 579 99 c 1,29,30
 463 163 463 163 348 228 c 0,31,32
 214 308 214 308 203 318 c 0,33,34
 120 383 120 383 120 460 c 2,35,-1
 120 1063 l 1,36,-1
 0 1063 l 1,37,-1
 -88 1193 l 1,38,-1
 933 1193 l 1,39,-1
 1020 1063 l 1,0,-1
EndSplineSet
Validated: 1
EndChar

StartChar: Dcaron
Encoding: 2320 2320 110
Width: 935
GlyphClass: 1
Flags: W
AnchorPoint: "Anchor-0" 850 1125 basechar 0
LayerCount: 2
Fore
SplineSet
1020 1063 m 1,0,-1
 770 1063 l 1,1,-1
 770 545 l 2,2,3
 770 398 770 398 615 398 c 0,4,5
 587 398 587 398 543 405 c 1,6,-1
 453 530 l 1,7,8
 513 523 513 523 550 523 c 0,9,10
 610 523 610 523 629 556 c 0,11,12
 640 576 640 576 640 628 c 2,13,-1
 640 1063 l 1,14,-1
 250 1063 l 1,15,-1
 250 483 l 2,16,17
 250 360 250 360 383 280 c 0,18,19
 551 179 551 179 720 78 c 1,20,21
 900 -41 900 -41 900 -113 c 0,22,23
 900 -187 900 -187 838 -233 c 1,24,-1
 705 -143 l 1,25,26
 758 -108 758 -108 758 -73 c 0,27,28
 758 -10 758 -10 579 99 c 1,29,30
 463 163 463 163 348 228 c 0,31,32
 214 308 214 308 203 318 c 0,33,34
 120 383 120 383 120 460 c 2,35,-1
 120 1063 l 1,36,-1
 0 1063 l 1,37,-1
 -88 1193 l 1,38,-1
 698 1193 l 1,39,40
 661 1301 661 1301 618 1386 c 0,41,42
 510 1599 510 1599 305 1599 c 0,43,44
 259 1599 259 1599 235 1595 c 1,45,-1
 168 1763 l 1,46,47
 200 1765 200 1765 233 1765 c 0,48,49
 481 1765 481 1765 641 1445 c 0,50,51
 681 1366 681 1366 754 1193 c 1,52,-1
 933 1193 l 1,53,-1
 1020 1063 l 1,0,-1
EndSplineSet
Validated: 1
EndChar

StartChar: dcaron
Encoding: 2321 2321 111
Width: 1875
GlyphClass: 1
Flags: W
LayerCount: 2
Fore
SplineSet
1850 1510 m 1,0,1
 1759 1318 1759 1318 1580 1318 c 256,2,3
 1401 1318 1401 1318 1233 1583 c 1,4,-1
 1268 1603 l 1,5,6
 1375 1418 1375 1418 1538 1418 c 0,7,8
 1670 1418 1670 1418 1758 1580 c 1,9,-1
 1850 1510 l 1,0,1
1963 1063 m 1,10,-1
 1723 1063 l 1,11,-1
 1723 0 l 1,12,-1
 1593 98 l 1,13,-1
 1593 1063 l 1,14,-1
 1245 1063 l 1,15,-1
 1245 0 l 1,16,-1
 1115 98 l 1,17,-1
 1115 518 l 1,18,19
 1074 495 1074 495 1020 495 c 0,20,21
 932 495 932 495 825 598 c 1,22,23
 865 507 865 507 865 440 c 0,24,25
 865 178 865 178 593 178 c 0,26,27
 353 178 353 178 98 615 c 1,28,-1
 148 640 l 1,29,30
 326 305 326 305 505 305 c 0,31,32
 620 305 620 305 700 370 c 128,-1,33
 780 435 780 435 780 538 c 256,34,35
 780 641 780 641 656 714 c 1,36,37
 567 657 567 657 455 625 c 1,38,-1
 383 743 l 1,39,40
 730 843 730 843 730 1008 c 0,41,42
 730 1120 730 1120 600 1120 c 0,43,44
 498 1120 498 1120 328 1013 c 1,45,-1
 250 1130 l 1,46,47
 370 1213 370 1213 503 1213 c 0,48,49
 627 1213 627 1213 715 1140 c 0,50,51
 810 1062 810 1062 810 938 c 0,52,53
 810 834 810 834 704 748 c 1,54,-1
 793 683 l 1,55,56
 854 618 854 618 978 618 c 0,57,58
 1057 618 1057 618 1115 695 c 1,59,-1
 1115 1063 l 1,60,-1
 923 1063 l 1,61,-1
 833 1193 l 1,62,-1
 1875 1193 l 1,63,-1
 1963 1063 l 1,10,-1
EndSplineSet
Validated: 1
EndChar

StartChar: Dslash
Encoding: 2322 2322 112
Width: 1875
GlyphClass: 1
Flags: W
LayerCount: 2
Fore
SplineSet
1963 1063 m 1,0,-1
 1723 1063 l 1,1,-1
 1723 0 l 1,2,-1
 1593 98 l 1,3,-1
 1593 1063 l 1,4,-1
 1245 1063 l 1,5,-1
 1245 0 l 1,6,-1
 1115 98 l 1,7,-1
 1115 518 l 1,8,9
 1074 495 1074 495 1020 495 c 0,10,11
 932 495 932 495 825 598 c 1,12,13
 865 507 865 507 865 440 c 0,14,15
 865 178 865 178 593 178 c 0,16,17
 353 178 353 178 98 615 c 1,18,-1
 148 640 l 1,19,20
 326 305 326 305 505 305 c 0,21,22
 620 305 620 305 700 370 c 128,-1,23
 780 435 780 435 780 538 c 256,24,25
 780 641 780 641 656 714 c 1,26,27
 567 657 567 657 455 625 c 1,28,-1
 383 743 l 1,29,30
 730 843 730 843 730 1008 c 0,31,32
 730 1120 730 1120 600 1120 c 0,33,34
 498 1120 498 1120 328 1013 c 1,35,-1
 250 1130 l 1,36,37
 370 1213 370 1213 503 1213 c 0,38,39
 627 1213 627 1213 715 1140 c 0,40,41
 810 1062 810 1062 810 938 c 0,42,43
 810 834 810 834 704 748 c 1,44,-1
 793 683 l 1,45,46
 854 618 854 618 978 618 c 0,47,48
 1057 618 1057 618 1115 695 c 1,49,-1
 1115 1063 l 1,50,-1
 923 1063 l 1,51,-1
 833 1193 l 1,52,-1
 1655 1193 l 1,53,54
 1653 1251 1653 1251 1645 1288 c 0,55,56
 1627 1364 1627 1364 1538 1385 c 0,57,58
 1497 1395 1497 1395 1375 1395 c 0,59,60
 1276 1395 1276 1395 1208 1447 c 0,61,62
 1125 1511 1125 1511 1125 1633 c 0,63,64
 1125 1695 1125 1695 1135 1758 c 1,65,-1
 1198 1758 l 1,66,67
 1188 1709 1188 1709 1188 1668 c 0,68,69
 1188 1533 1188 1533 1350 1533 c 0,70,71
 1498 1533 1498 1533 1565 1501 c 0,72,73
 1659 1456 1659 1456 1690 1325 c 0,74,75
 1699 1287 1699 1287 1702 1193 c 1,76,-1
 1875 1193 l 1,77,-1
 1963 1063 l 1,0,-1
EndSplineSet
Validated: 1
EndChar

StartChar: dcroat
Encoding: 2323 2323 113
Width: 1875
GlyphClass: 1
Flags: W
AnchorPoint: "Anchor-0" 1780 1125 basechar 0
LayerCount: 2
Fore
SplineSet
1963 1063 m 1,0,-1
 1723 1063 l 1,1,-1
 1723 0 l 1,2,-1
 1593 98 l 1,3,-1
 1593 1063 l 1,4,-1
 1245 1063 l 1,5,-1
 1245 0 l 1,6,-1
 1115 98 l 1,7,-1
 1115 518 l 1,8,9
 1074 495 1074 495 1020 495 c 0,10,11
 932 495 932 495 825 598 c 1,12,13
 865 507 865 507 865 440 c 0,14,15
 865 178 865 178 593 178 c 0,16,17
 353 178 353 178 98 615 c 1,18,-1
 148 640 l 1,19,20
 326 305 326 305 505 305 c 0,21,22
 620 305 620 305 700 370 c 128,-1,23
 780 435 780 435 780 538 c 256,24,25
 780 641 780 641 656 714 c 1,26,27
 567 657 567 657 455 625 c 1,28,-1
 383 743 l 1,29,30
 730 843 730 843 730 1008 c 0,31,32
 730 1120 730 1120 600 1120 c 0,33,34
 498 1120 498 1120 328 1013 c 1,35,-1
 250 1130 l 1,36,37
 370 1213 370 1213 503 1213 c 0,38,39
 627 1213 627 1213 715 1140 c 0,40,41
 810 1062 810 1062 810 938 c 0,42,43
 810 834 810 834 704 748 c 1,44,-1
 793 683 l 1,45,46
 854 618 854 618 978 618 c 0,47,48
 1057 618 1057 618 1115 695 c 1,49,-1
 1115 1063 l 1,50,-1
 923 1063 l 1,51,-1
 833 1193 l 1,52,-1
 1645 1193 l 1,53,54
 1608 1301 1608 1301 1565 1386 c 0,55,56
 1457 1599 1457 1599 1253 1599 c 0,57,58
 1206 1599 1206 1599 1183 1595 c 1,59,-1
 1115 1763 l 1,60,61
 1148 1765 1148 1765 1180 1765 c 0,62,63
 1429 1765 1429 1765 1589 1445 c 0,64,65
 1628 1366 1628 1366 1701 1193 c 1,66,-1
 1875 1193 l 1,67,-1
 1963 1063 l 1,0,-1
EndSplineSet
Validated: 1
EndChar

StartChar: Emacron
Encoding: 2324 2324 114
Width: 1875
GlyphClass: 1
Flags: W
AnchorPoint: "Anchor-0" 1780 1125 basechar 0
LayerCount: 2
Fore
SplineSet
1963 1063 m 1,0,-1
 1723 1063 l 1,1,-1
 1723 0 l 1,2,-1
 1593 98 l 1,3,-1
 1593 1063 l 1,4,-1
 1245 1063 l 1,5,-1
 1245 0 l 1,6,-1
 1115 98 l 1,7,-1
 1115 518 l 1,8,9
 1074 495 1074 495 1020 495 c 0,10,11
 932 495 932 495 825 598 c 1,12,13
 865 507 865 507 865 440 c 0,14,15
 865 178 865 178 593 178 c 0,16,17
 353 178 353 178 98 615 c 1,18,-1
 148 640 l 1,19,20
 326 305 326 305 505 305 c 0,21,22
 620 305 620 305 700 370 c 128,-1,23
 780 435 780 435 780 538 c 256,24,25
 780 641 780 641 656 714 c 1,26,27
 567 657 567 657 455 625 c 1,28,-1
 383 743 l 1,29,30
 730 843 730 843 730 1008 c 0,31,32
 730 1120 730 1120 600 1120 c 0,33,34
 498 1120 498 1120 328 1013 c 1,35,-1
 250 1130 l 1,36,37
 370 1213 370 1213 503 1213 c 0,38,39
 627 1213 627 1213 715 1140 c 0,40,41
 810 1062 810 1062 810 938 c 0,42,43
 810 834 810 834 704 748 c 1,44,-1
 793 683 l 1,45,46
 854 618 854 618 978 618 c 0,47,48
 1057 618 1057 618 1115 695 c 1,49,-1
 1115 1063 l 1,50,-1
 923 1063 l 1,51,-1
 833 1193 l 1,52,-1
 1485 1193 l 1,53,54
 1465 1231 1465 1231 1445 1265 c 0,55,56
 1383 1370 1383 1370 1263 1370 c 0,57,58
 1248 1370 1248 1370 1227.5 1366.5 c 128,-1,59
 1207 1363 1207 1363 1205 1363 c 2,60,-1
 1170 1498 l 1,61,62
 1174 1498 1174 1498 1187 1500.5 c 128,-1,63
 1200 1503 1200 1503 1213 1503 c 0,64,65
 1356 1503 1356 1503 1470 1303 c 0,66,67
 1503 1244 1503 1244 1530 1193 c 1,68,-1
 1656 1193 l 1,69,70
 1620 1282 1620 1282 1580 1370 c 0,71,72
 1461 1635 1461 1635 1243 1635 c 0,73,74
 1210 1635 1210 1635 1175 1630 c 1,75,-1
 1138 1785 l 1,76,77
 1196 1788 1196 1788 1223 1788 c 0,78,79
 1344 1788 1344 1788 1468 1641 c 0,80,81
 1560 1533 1560 1533 1625 1385 c 0,82,83
 1667 1290 1667 1290 1704 1193 c 1,84,-1
 1875 1193 l 1,85,-1
 1963 1063 l 1,0,-1
EndSplineSet
Validated: 1
EndChar

StartChar: emacron
Encoding: 2325 2325 115
Width: 1380
GlyphClass: 1
Flags: W
AnchorPoint: "Anchor-2" 720 0 basechar 0
AnchorPoint: "Anchor-1" 720 1125 basechar 0
LayerCount: 2
Fore
SplineSet
1468 1063 m 1,0,-1
 798 1063 l 1,1,-1
 798 740 l 1,2,3
 922 823 922 823 1018 823 c 0,4,5
 1136 823 1136 823 1216 707 c 0,6,7
 1288 603 1288 603 1288 478 c 0,8,9
 1288 315 1288 315 1100 153 c 1,10,-1
 995 250 l 1,11,12
 1210 429 1210 429 1210 548 c 0,13,14
 1210 698 1210 698 1053 698 c 0,15,16
 934 698 934 698 798 573 c 1,17,-1
 798 -3 l 1,18,-1
 668 95 l 1,19,-1
 668 420 l 1,20,21
 552 313 552 313 415 313 c 0,22,23
 284 313 284 313 185 425 c 0,24,25
 90 533 90 533 90 665 c 0,26,27
 90 778 90 778 160 840 c 0,28,29
 227 900 227 900 343 900 c 0,30,31
 512 900 512 900 668 693 c 1,32,-1
 668 1063 l 1,33,-1
 0 1063 l 1,34,-1
 -90 1193 l 1,35,-1
 1380 1193 l 1,36,-1
 1468 1063 l 1,0,-1
668 593 m 1,37,38
 568 763 568 763 383 763 c 0,39,40
 300 763 300 763 243 723 c 0,41,42
 178 679 178 679 178 600 c 0,43,44
 178 529 178 529 219 483 c 0,45,46
 266 433 266 433 348 433 c 0,47,48
 512 433 512 433 668 593 c 1,37,38
EndSplineSet
Validated: 1
EndChar

StartChar: Ebreve
Encoding: 2326 2326 116
Width: 1400
GlyphClass: 1
Flags: W
AnchorPoint: "Anchor-2" 1185 0 basechar 0
AnchorPoint: "Anchor-1" 1185 1125 basechar 0
LayerCount: 2
Fore
SplineSet
1488 1063 m 1,0,-1
 1248 1063 l 1,1,-1
 1248 0 l 1,2,-1
 1118 98 l 1,3,-1
 1118 193 l 1,4,5
 934 68 934 68 728 68 c 0,6,7
 570 68 570 68 408 180 c 0,8,9
 268 278 268 278 169 424 c 0,10,11
 75 562 75 562 75 655 c 0,12,13
 75 705 75 705 120 705 c 0,14,15
 143 705 143 705 179 686.5 c 128,-1,16
 215 668 215 668 233 668 c 0,17,18
 283 668 283 668 283 720 c 2,19,-1
 283 1063 l 1,20,-1
 0 1063 l 1,21,-1
 -88 1193 l 1,22,-1
 1400 1193 l 1,23,-1
 1488 1063 l 1,0,-1
1115 637 m 1,24,25
 1010 783 1010 783 843 783 c 0,26,27
 767 783 767 783 704 741 c 0,28,29
 638 698 638 698 638 642 c 0,30,31
 638 573 638 573 699 536 c 0,32,33
 751 504 751 504 825 504 c 0,34,35
 964 504 964 504 1115 637 c 1,24,25
1118 337 m 1,36,-1
 1118 473 l 1,37,38
 1006 382 1006 382 870 382 c 0,39,40
 746 382 746 382 657 461 c 128,-1,41
 568 540 568 540 568 652 c 0,42,43
 568 766 568 766 646 835 c 0,44,45
 721 903 721 903 840 903 c 0,46,47
 979 903 979 903 1118 739 c 1,48,-1
 1118 1063 l 1,49,-1
 415 1063 l 1,50,-1
 415 688 l 2,51,52
 415 575 415 575 365 528 c 0,53,54
 319 484 319 484 225 478 c 1,55,56
 357 193 357 193 703 193 c 0,57,58
 928 193 928 193 1118 337 c 1,36,-1
EndSplineSet
Validated: 1
EndChar

StartChar: ebreve
Encoding: 2327 2327 117
Width: 1005
GlyphClass: 1
Flags: W
AnchorPoint: "Anchor-2" 780 0 basechar 0
AnchorPoint: "Anchor-1" 780 1125 basechar 0
LayerCount: 2
Fore
SplineSet
1093 1063 m 1,0,-1
 853 1063 l 1,1,-1
 853 0 l 1,2,-1
 723 98 l 1,3,-1
 723 1063 l 1,4,-1
 368 1063 l 1,5,-1
 368 498 l 2,6,7
 368 405 368 405 298 405 c 0,8,9
 251 405 251 405 169.5 494.5 c 128,-1,10
 88 584 88 584 88 635 c 0,11,12
 88 688 88 688 158 688 c 2,13,-1
 238 688 l 1,14,-1
 238 1063 l 1,15,-1
 -3 1063 l 1,16,-1
 -90 1193 l 1,17,-1
 1005 1193 l 1,18,-1
 1093 1063 l 1,0,-1
EndSplineSet
Validated: 1
EndChar

StartChar: Edot
Encoding: 2328 2328 118
Width: 1050
GlyphClass: 1
Flags: W
AnchorPoint: "Anchor-2" 825 0 basechar 0
AnchorPoint: "Anchor-1" 825 1125 basechar 0
LayerCount: 2
Fore
SplineSet
1138 1063 m 1,0,-1
 898 1063 l 1,1,-1
 898 0 l 1,2,-1
 768 98 l 1,3,-1
 768 350 l 1,4,5
 608 230 608 230 485 230 c 0,6,7
 355 230 355 230 245 335 c 0,8,9
 138 437 138 437 138 548 c 0,10,11
 138 679 138 679 272 756 c 1,12,13
 105 869 105 869 105 958 c 0,14,15
 105 1027 105 1027 145 1063 c 1,16,-1
 -3 1063 l 1,17,-1
 -90 1193 l 1,18,-1
 1050 1193 l 1,19,-1
 1138 1063 l 1,0,-1
768 529 m 1,20,-1
 768 1063 l 1,21,-1
 313 1063 l 1,22,23
 233 1008 233 1008 233 915 c 0,24,25
 233 841 233 841 336 786 c 1,26,27
 386 806 386 806 443 817 c 0,28,29
 470 823 470 823 490 825 c 1,30,-1
 558 713 l 1,31,32
 228 666 228 666 228 490 c 0,33,34
 228 436 228 436 267 390 c 0,35,36
 317 333 317 333 403 333 c 0,37,38
 542 333 542 333 768 529 c 1,20,-1
EndSplineSet
Validated: 1
EndChar

StartChar: edot
Encoding: 2329 2329 119
Width: 1290
GlyphClass: 1
Flags: W
AnchorPoint: "Anchor-3" 720 0 basechar 0
AnchorPoint: "Anchor-2" 720 0 basechar 0
AnchorPoint: "Anchor-1" 810 1125 basechar 0
LayerCount: 2
Fore
SplineSet
1210 678 m 1,0,-1
 1098 565 l 1,1,-1
 985 678 l 1,2,-1
 1098 790 l 1,3,-1
 1210 678 l 1,0,-1
1375 1063 m 1,4,-1
 870 1063 l 1,5,-1
 870 780 l 1,6,-1
 475 780 l 2,7,8
 363 780 363 780 363 663 c 0,9,10
 363 548 363 548 460 548 c 0,11,12
 489 548 489 548 601 578 c 128,-1,13
 713 608 713 608 748 608 c 0,14,15
 843 608 843 608 916 509 c 0,16,17
 985 415 985 415 985 303 c 0,18,19
 985 181 985 181 889 102 c 0,20,21
 799 28 799 28 678 28 c 0,22,23
 468 28 468 28 220 300 c 0,24,25
 163 363 163 363 63 495 c 1,26,-1
 118 530 l 1,27,28
 156 476 156 476 255 358 c 1,29,30
 435 163 435 163 600 163 c 0,31,32
 721 163 721 163 809.5 232.5 c 128,-1,33
 898 302 898 302 898 393 c 0,34,35
 898 478 898 478 830 478 c 0,36,37
 805 478 805 478 694 444 c 128,-1,38
 583 410 583 410 538 410 c 0,39,40
 447 410 447 410 346 524.5 c 128,-1,41
 245 639 245 639 245 750 c 0,42,43
 245 816 245 816 295.5 863 c 128,-1,44
 346 910 346 910 428 910 c 2,45,-1
 740 910 l 1,46,-1
 740 1063 l 1,47,-1
 0 1063 l 1,48,-1
 -90 1193 l 1,49,-1
 1290 1193 l 1,50,-1
 1375 1063 l 1,4,-1
EndSplineSet
Validated: 1
EndChar

StartChar: Eogonek
Encoding: 2330 2330 120
Width: 1195
GlyphClass: 1
Flags: W
AnchorPoint: "Anchor-2" 975 0 basechar 0
AnchorPoint: "Anchor-1" 975 1125 basechar 0
LayerCount: 2
Fore
SplineSet
1283 1063 m 1,0,-1
 1043 1063 l 1,1,-1
 1043 0 l 1,2,-1
 913 98 l 1,3,-1
 913 393 l 1,4,5
 780 263 780 263 650 263 c 0,6,7
 529 263 529 263 408.5 373 c 128,-1,8
 288 483 288 483 288 593 c 0,9,10
 288 681 288 681 353 755 c 1,11,-1
 190 755 l 1,12,-1
 110 868 l 1,13,-1
 698 868 l 1,14,-1
 778 755 l 1,15,-1
 570 755 l 1,16,17
 410 669 410 669 410 523 c 0,18,19
 410 454 410 454 461 406 c 0,20,21
 508 360 508 360 568 360 c 0,22,23
 709 360 709 360 913 562 c 1,24,-1
 913 1063 l 1,25,-1
 -3 1063 l 1,26,-1
 -90 1193 l 1,27,-1
 1195 1193 l 1,28,-1
 1283 1063 l 1,0,-1
EndSplineSet
Validated: 1
EndChar

StartChar: eogonek
Encoding: 2331 2331 121
Width: 1215
GlyphClass: 1
Flags: W
AnchorPoint: "Anchor-3" 690 0 basechar 0
AnchorPoint: "Anchor-2" 690 0 basechar 0
AnchorPoint: "Anchor-1" 855 1125 basechar 0
LayerCount: 2
Fore
SplineSet
1303 1063 m 1,0,-1
 925 1063 l 1,1,-1
 925 927 l 1,2,3
 1014 893 1014 893 1066 802 c 128,-1,4
 1118 711 1118 711 1118 595 c 0,5,6
 1118 356 1118 356 963 190 c 0,7,8
 804 20 804 20 563 20 c 0,9,10
 416 20 416 20 286 125 c 0,11,12
 153 232 153 232 153 363 c 0,13,14
 153 460 153 460 221 527 c 1,15,16
 78 642 78 642 78 748 c 0,17,18
 78 830 78 830 140 877 c 0,19,20
 198 920 198 920 288 920 c 0,21,22
 362 920 362 920 438 900 c 1,23,-1
 488 775 l 1,24,25
 391 803 391 803 310 803 c 0,26,27
 253 803 253 803 215 772 c 0,28,29
 175 738 175 738 175 683 c 0,30,31
 175 624 175 624 273 566 c 1,32,33
 353 613 353 613 460 620 c 1,34,-1
 520 488 l 1,35,36
 440 488 440 488 357 449 c 0,37,38
 245 396 245 396 245 305 c 0,39,40
 245 223 245 223 327 173 c 0,41,42
 400 130 400 130 498 130 c 0,43,44
 757 130 757 130 907 364 c 1,45,46
 620 577 620 577 620 750 c 0,47,48
 620 922 620 922 793 943 c 1,49,-1
 793 1063 l 1,50,-1
 -3 1063 l 1,51,-1
 -90 1193 l 1,52,-1
 1215 1193 l 1,53,-1
 1303 1063 l 1,0,-1
1003 698 m 0,54,55
 1003 888 1003 888 875 888 c 0,56,57
 829 888 829 888 799.5 840 c 128,-1,58
 770 792 770 792 770 713 c 0,59,60
 770 539 770 539 940 422 c 1,61,62
 1003 550 1003 550 1003 698 c 0,54,55
EndSplineSet
Validated: 1
EndChar

StartChar: Ecaron
Encoding: 2332 2332 122
Width: 1190
GlyphClass: 1
Flags: W
AnchorPoint: "Anchor-2" 960 0 basechar 0
AnchorPoint: "Anchor-1" 960 1125 basechar 0
LayerCount: 2
Fore
SplineSet
1278 1063 m 1,0,-1
 1038 1063 l 1,1,-1
 1038 0 l 1,2,-1
 908 98 l 1,3,-1
 908 723 l 1,4,-1
 583 723 l 1,5,6
 710 580 710 580 710 478 c 0,7,8
 710 285 710 285 518 285 c 0,9,10
 276 285 276 285 65 778 c 1,11,-1
 118 805 l 1,12,13
 277 405 277 405 435 405 c 0,14,15
 590 405 590 405 590 543 c 0,16,17
 590 691 590 691 390 820 c 1,18,-1
 408 853 l 1,19,-1
 908 853 l 1,20,-1
 908 1063 l 1,21,-1
 -3 1063 l 1,22,-1
 -90 1193 l 1,23,-1
 1190 1193 l 1,24,-1
 1278 1063 l 1,0,-1
EndSplineSet
Validated: 1
EndChar

StartChar: ecaron
Encoding: 2333 2333 123
Width: 1273
GlyphClass: 1
Flags: W
AnchorPoint: "Anchor-2" 1050 0 basechar 0
AnchorPoint: "Anchor-1" 1050 1125 basechar 0
LayerCount: 2
Fore
SplineSet
1360 1063 m 1,0,-1
 1120 1063 l 1,1,-1
 1120 0 l 1,2,-1
 990 98 l 1,3,-1
 990 510 l 1,4,5
 927 463 927 463 858 463 c 0,6,7
 793 463 793 463 715 510 c 1,8,9
 753 439 753 439 753 360 c 0,10,11
 753 268 753 268 642 192 c 0,12,13
 552 130 552 130 438 105 c 1,14,-1
 638 -93 l 1,15,-1
 570 -155 l 1,16,-1
 365 93 l 1,17,18
 279 93 279 93 207 145 c 0,19,20
 130 201 130 201 130 278 c 0,21,22
 130 353 130 353 220 353 c 0,23,24
 300 353 300 353 368 233 c 1,25,26
 441 233 441 233 555 291 c 0,27,28
 688 360 688 360 688 438 c 0,29,30
 688 475 688 475 665.5 500 c 128,-1,31
 643 525 643 525 613 525 c 0,32,33
 587 525 587 525 494 489 c 128,-1,34
 401 453 401 453 363 453 c 0,35,36
 268 453 268 453 181 571 c 0,37,38
 100 681 100 681 100 778 c 0,39,40
 100 903 100 903 255 903 c 2,41,-1
 558 903 l 1,42,-1
 558 1063 l 1,43,-1
 3 1063 l 1,44,-1
 -83 1193 l 1,45,-1
 1273 1193 l 1,46,-1
 1360 1063 l 1,0,-1
990 663 m 1,47,-1
 990 1063 l 1,48,-1
 690 1063 l 1,49,-1
 690 780 l 1,50,-1
 285 780 l 2,51,52
 198 780 198 780 198 690 c 0,53,54
 198 643 198 643 227 602 c 0,55,56
 258 558 258 558 303 558 c 0,57,58
 325 558 325 558 419.5 591.5 c 128,-1,59
 514 625 514 625 558 625 c 0,60,61
 618 625 618 625 668 576 c 1,62,63
 715 563 715 563 773 563 c 0,64,65
 884 563 884 563 990 663 c 1,47,-1
EndSplineSet
Validated: 1
EndChar

StartChar: Gcircumflex
Encoding: 2334 2334 124
Width: 1268
GlyphClass: 1
Flags: W
AnchorPoint: "Anchor-2" 1050 0 basechar 0
AnchorPoint: "Anchor-1" 1050 1125 basechar 0
LayerCount: 2
Fore
SplineSet
1355 1063 m 1,0,-1
 1115 1063 l 1,1,-1
 1115 0 l 1,2,-1
 985 98 l 1,3,-1
 985 535 l 1,4,5
 947 518 947 518 910 518 c 0,6,7
 867 518 867 518 815 561 c 1,8,-1
 815 555 l 2,9,10
 817 433 817 433 742.5 363 c 128,-1,11
 668 293 668 293 548 293 c 0,12,13
 325 293 325 293 80 608 c 1,14,-1
 123 643 l 1,15,16
 286 398 286 398 463 398 c 0,17,18
 567 398 567 398 636 470 c 128,-1,19
 705 542 705 542 705 655 c 0,20,21
 705 702 705 702 670 736 c 128,-1,22
 635 770 635 770 580 770 c 0,23,24
 499 770 499 770 415 655 c 1,25,-1
 303 763 l 1,26,27
 399 860 399 860 518 860 c 0,28,29
 598 860 598 860 680.5 796 c 128,-1,30
 763 732 763 732 797 644 c 1,31,32
 846 628 846 628 863 628 c 0,33,34
 928 628 928 628 985 670 c 1,35,-1
 985 1063 l 1,36,-1
 -3 1063 l 1,37,-1
 -90 1193 l 1,38,-1
 1268 1193 l 1,39,-1
 1355 1063 l 1,0,-1
EndSplineSet
Validated: 33
EndChar

StartChar: gcircumflex
Encoding: 2335 2335 125
Width: 960
GlyphClass: 1
Flags: W
AnchorPoint: "Anchor-3" 570 0 basechar 0
AnchorPoint: "Anchor-2" 570 0 basechar 0
AnchorPoint: "Anchor-1" 645 1125 basechar 0
LayerCount: 2
Fore
SplineSet
1048 1063 m 1,0,-1
 700 1063 l 1,1,-1
 700 830 l 2,2,3
 700 749 700 749 563 691 c 1,4,5
 435 642 435 642 307 593 c 1,6,7
 170 526 170 526 170 425 c 0,8,9
 170 310 170 310 259 233 c 0,10,11
 343 160 343 160 455 160 c 0,12,13
 648 160 648 160 818 308 c 1,14,-1
 903 185 l 1,15,16
 725 30 725 30 533 30 c 0,17,18
 370 30 370 30 217.5 176 c 128,-1,19
 65 322 65 322 65 475 c 0,20,21
 65 611 65 611 196 694 c 0,22,23
 250 728 250 728 439 795 c 0,24,25
 570 841 570 841 570 890 c 2,26,-1
 570 1063 l 1,27,-1
 -3 1063 l 1,28,-1
 -90 1193 l 1,29,-1
 960 1193 l 1,30,-1
 1048 1063 l 1,0,-1
EndSplineSet
Validated: 1
EndChar

StartChar: Gbreve
Encoding: 2336 2336 126
Width: 1000
GlyphClass: 1
Flags: W
AnchorPoint: "Anchor-3" 570 0 basechar 0
AnchorPoint: "Anchor-2" 570 0 basechar 0
AnchorPoint: "Anchor-1" 645 1125 basechar 0
LayerCount: 2
Fore
SplineSet
1088 1063 m 1,0,-1
 700 1063 l 1,1,-1
 700 830 l 2,2,3
 700 749 700 749 563 691 c 1,4,5
 435 642 435 642 307 593 c 1,6,7
 170 526 170 526 170 425 c 0,8,9
 170 323 170 323 252 236.5 c 128,-1,10
 334 150 334 150 433 150 c 0,11,12
 558 150 558 150 671 240 c 0,13,14
 788 333 788 333 788 443 c 0,15,16
 788 566 788 566 618 643 c 1,17,-1
 690 728 l 1,18,19
 903 552 903 552 903 350 c 0,20,21
 903 213 903 213 791 121.5 c 128,-1,22
 679 30 679 30 518 30 c 256,23,24
 357 30 357 30 213 166 c 0,25,26
 65 307 65 307 65 475 c 0,27,28
 65 611 65 611 196 694 c 0,29,30
 250 728 250 728 439 795 c 0,31,32
 570 841 570 841 570 890 c 2,33,-1
 570 1063 l 1,34,-1
 -3 1063 l 1,35,-1
 -90 1193 l 1,36,-1
 1000 1193 l 1,37,-1
 1088 1063 l 1,0,-1
EndSplineSet
Validated: 1
EndChar

StartChar: gbreve
Encoding: 2337 2337 127
Width: 1080
GlyphClass: 1
Flags: W
AnchorPoint: "Anchor-3" 690 0 basechar 0
AnchorPoint: "Anchor-2" 690 0 basechar 0
AnchorPoint: "Anchor-1" 810 1125 basechar 0
LayerCount: 2
Fore
SplineSet
1165 1063 m 1,0,-1
 870 1063 l 1,1,-1
 870 780 l 1,2,-1
 475 780 l 2,3,4
 363 780 363 780 363 663 c 0,5,6
 363 548 363 548 460 548 c 0,7,8
 489 548 489 548 601 578 c 128,-1,9
 713 608 713 608 748 608 c 0,10,11
 843 608 843 608 916 509 c 0,12,13
 985 415 985 415 985 303 c 0,14,15
 985 181 985 181 889 102 c 0,16,17
 799 28 799 28 678 28 c 0,18,19
 468 28 468 28 220 300 c 0,20,21
 163 363 163 363 63 495 c 1,22,-1
 118 530 l 1,23,24
 156 476 156 476 255 358 c 1,25,26
 435 163 435 163 600 163 c 0,27,28
 721 163 721 163 809.5 232.5 c 128,-1,29
 898 302 898 302 898 393 c 0,30,31
 898 478 898 478 830 478 c 0,32,33
 805 478 805 478 694 444 c 128,-1,34
 583 410 583 410 538 410 c 0,35,36
 447 410 447 410 346 524.5 c 128,-1,37
 245 639 245 639 245 750 c 0,38,39
 245 816 245 816 295.5 863 c 128,-1,40
 346 910 346 910 428 910 c 2,41,-1
 740 910 l 1,42,-1
 740 1063 l 1,43,-1
 0 1063 l 1,44,-1
 -90 1193 l 1,45,-1
 1080 1193 l 1,46,-1
 1165 1063 l 1,0,-1
EndSplineSet
Validated: 1
EndChar

StartChar: Gdot
Encoding: 2338 2338 128
Width: 970
GlyphClass: 1
Flags: W
AnchorPoint: "Anchor-3" 570 0 basechar 0
AnchorPoint: "Anchor-2" 570 0 basechar 0
AnchorPoint: "Anchor-1" 680 1125 basechar 0
LayerCount: 2
Fore
SplineSet
1060 1063 m 1,0,-1
 750 1063 l 1,1,-1
 750 730 l 1,2,-1
 420 730 l 2,3,4
 183 730 183 730 183 485 c 0,5,6
 183 366 183 366 264 280 c 0,7,8
 335 204 335 204 445 175 c 1,9,10
 375 281 375 281 375 370 c 0,11,12
 375 457 375 457 423 513 c 0,13,14
 483 583 483 583 603 583 c 0,15,16
 704 583 704 583 781 495.5 c 128,-1,17
 858 408 858 408 858 298 c 0,18,19
 858 174 858 174 782.5 103.5 c 128,-1,20
 707 33 707 33 585 33 c 0,21,22
 415 33 415 33 244 201 c 0,23,24
 63 380 63 380 63 588 c 0,25,26
 63 718 63 718 152 792 c 0,27,28
 232 858 232 858 353 858 c 2,29,-1
 618 858 l 1,30,-1
 618 1063 l 1,31,-1
 -3 1063 l 1,32,-1
 -90 1193 l 1,33,-1
 970 1193 l 1,34,-1
 1060 1063 l 1,0,-1
783 365 m 0,35,36
 783 418 783 418 750 448 c 0,37,38
 720 475 720 475 678 475 c 0,39,40
 591 475 591 475 533 417.5 c 128,-1,41
 475 360 475 360 475 273 c 0,42,43
 475 209 475 209 508 164 c 1,44,45
 525 163 525 163 543 163 c 0,46,47
 622 163 622 163 698 219 c 0,48,49
 783 281 783 281 783 365 c 0,35,36
EndSplineSet
Validated: 1
EndChar

StartChar: gdot
Encoding: 2339 2339 129
Width: 1250
GlyphClass: 1
Flags: W
AnchorPoint: "Anchor-2" 1035 0 basechar 0
AnchorPoint: "Anchor-1" 1040 1125 basechar 0
LayerCount: 2
Fore
SplineSet
1338 1063 m 1,0,-1
 1098 1063 l 1,1,-1
 1098 0 l 1,2,-1
 968 98 l 1,3,-1
 968 1063 l 1,4,-1
 693 1063 l 1,5,-1
 693 585 l 2,6,7
 693 488 693 488 631 428 c 128,-1,8
 569 368 569 368 473 368 c 0,9,10
 364 368 364 368 256 448 c 0,11,12
 138 537 138 537 138 653 c 2,13,-1
 138 1063 l 1,14,-1
 -3 1063 l 1,15,-1
 -90 1193 l 1,16,-1
 1250 1193 l 1,17,-1
 1338 1063 l 1,0,-1
560 600 m 2,18,-1
 560 1063 l 1,19,-1
 268 1063 l 1,20,-1
 268 595 l 2,21,22
 268 448 268 448 398 448 c 0,23,24
 471 448 471 448 515.5 488.5 c 128,-1,25
 560 529 560 529 560 600 c 2,18,-1
EndSplineSet
Validated: 1
EndChar

StartChar: Gcedilla
Encoding: 2340 2340 130
Width: 1028
GlyphClass: 1
Flags: W
AnchorPoint: "Anchor-2" 810 0 basechar 0
AnchorPoint: "Anchor-1" 805 1125 basechar 0
LayerCount: 2
Fore
SplineSet
1115 1063 m 1,0,-1
 875 1063 l 1,1,-1
 875 0 l 1,2,-1
 745 98 l 1,3,-1
 745 723 l 1,4,-1
 378 723 l 2,5,6
 203 723 203 723 203 545 c 0,7,8
 203 324 203 324 455 85 c 1,9,-1
 403 38 l 1,10,11
 80 400 80 400 80 623 c 0,12,13
 80 853 80 853 338 853 c 2,14,-1
 745 853 l 1,15,-1
 745 1063 l 1,16,-1
 0 1063 l 1,17,-1
 -90 1193 l 1,18,-1
 1028 1193 l 1,19,-1
 1115 1063 l 1,0,-1
EndSplineSet
Validated: 1
EndChar

StartChar: gcedilla
Encoding: 2341 2341 131
Width: 1088
GlyphClass: 1
Flags: W
AnchorPoint: "Anchor-2" 855 0 basechar 0
AnchorPoint: "Anchor-1" 855 1125 basechar 0
LayerCount: 2
Fore
SplineSet
1175 1063 m 1,0,-1
 935 1063 l 1,1,-1
 935 0 l 1,2,-1
 805 98 l 1,3,-1
 805 415 l 1,4,5
 677 295 677 295 505 295 c 0,6,7
 284 295 284 295 80 625 c 1,8,9
 265 706 265 706 327 748 c 0,10,11
 498 860 498 860 498 998 c 0,12,13
 498 1070 498 1070 458 1113 c 0,14,15
 422 1153 422 1153 370 1153 c 0,16,17
 306 1153 306 1153 264.5 1100.5 c 128,-1,18
 223 1048 223 1048 223 980 c 0,19,20
 223 862 223 862 340 813 c 1,21,-1
 315 778 l 1,22,23
 235 812 235 812 175 875 c 0,24,25
 100 953 100 953 100 1038 c 0,26,27
 100 1109 100 1109 144 1154 c 0,28,29
 196 1208 196 1208 298 1208 c 0,30,31
 427 1208 427 1208 514 1120 c 0,32,33
 598 1037 598 1037 598 923 c 0,34,35
 598 822 598 822 519 738 c 0,36,37
 461 676 461 676 354 618 c 0,38,39
 282 581 282 581 210 545 c 1,40,41
 300 400 300 400 425 400 c 0,42,43
 620 400 620 400 805 588 c 1,44,-1
 805 1063 l 1,45,-1
 653 1063 l 1,46,-1
 563 1193 l 1,47,-1
 1088 1193 l 1,48,-1
 1175 1063 l 1,0,-1
EndSplineSet
Validated: 1
EndChar

StartChar: Hcircumflex
Encoding: 2342 2342 132
Width: 898
GlyphClass: 1
Flags: W
AnchorPoint: "Anchor-2" 720 -45 basechar 0
AnchorPoint: "Anchor-1" 645 1125 basechar 0
LayerCount: 2
Fore
SplineSet
985 1063 m 1,0,-1
 703 1063 l 1,1,-1
 703 735 l 1,2,-1
 325 735 l 2,3,4
 262 735 262 735 222.5 692 c 128,-1,5
 183 649 183 649 183 575 c 0,6,7
 183 472 183 472 251 393 c 0,8,9
 324 310 324 310 428 310 c 0,10,11
 490 310 490 310 538 335 c 1,12,13
 485 396 485 396 485 443 c 256,14,15
 485 490 485 490 543 490 c 0,16,17
 597 490 597 490 672.5 443.5 c 128,-1,18
 748 397 748 397 748 358 c 0,19,20
 748 299 748 299 663 245 c 1,21,-1
 795 -70 l 1,22,-1
 718 -108 l 1,23,-1
 598 208 l 1,24,25
 554 188 554 188 503 188 c 0,26,27
 359 188 359 188 213.5 342 c 128,-1,28
 68 496 68 496 68 638 c 0,29,30
 68 745 68 745 136 805 c 0,31,32
 200 860 200 860 303 860 c 2,33,-1
 570 860 l 1,34,-1
 570 1063 l 1,35,-1
 -5 1063 l 1,36,-1
 -93 1193 l 1,37,-1
 898 1193 l 1,38,-1
 985 1063 l 1,0,-1
EndSplineSet
Validated: 1
EndChar

StartChar: hcircumflex
Encoding: 2343 2343 133
Width: 1080
GlyphClass: 1
Flags: W
AnchorPoint: "Anchor-2" 855 0 basechar 0
AnchorPoint: "Anchor-1" 855 1125 basechar 0
LayerCount: 2
Fore
SplineSet
1167 1063 m 1,0,-1
 930 1063 l 1,1,-1
 930 0 l 1,2,-1
 797 98 l 1,3,-1
 797 373 l 1,4,5
 671 275 671 275 550 275 c 0,6,7
 416 275 416 275 289 374 c 0,8,9
 155 477 155 477 155 600 c 0,10,11
 155 709 155 709 265 786 c 1,12,13
 100 955 100 955 100 1058 c 0,14,15
 100 1215 100 1215 290 1215 c 0,16,17
 343 1215 343 1215 410 1193 c 1,18,-1
 488 1058 l 1,19,20
 405 1083 405 1083 338 1083 c 0,21,22
 223 1083 223 1083 223 980 c 0,23,24
 223 889 223 889 315 816 c 1,25,26
 397 860 397 860 495 880 c 1,27,-1
 560 758 l 1,28,29
 288 689 288 689 288 540 c 0,30,31
 288 464 288 464 334 419.5 c 128,-1,32
 380 375 380 375 445 375 c 0,33,34
 582 375 582 375 797 565 c 1,35,-1
 797 1063 l 1,36,-1
 645 1063 l 1,37,-1
 542 1193 l 1,38,-1
 1080 1193 l 1,39,-1
 1167 1063 l 1,0,-1
EndSplineSet
Validated: 1
EndChar

StartChar: Hbar
Encoding: 2344 2344 134
Width: 998
GlyphClass: 1
Flags: W
AnchorPoint: "Anchor-2" 780 0 basechar 0
AnchorPoint: "Anchor-1" 780 1125 basechar 0
LayerCount: 2
Fore
SplineSet
1085 1063 m 1,0,-1
 845 1063 l 1,1,-1
 845 0 l 1,2,-1
 715 98 l 1,3,-1
 715 608 l 1,4,-1
 330 608 l 1,5,-1
 330 503 l 2,6,7
 330 430 330 430 270 430 c 0,8,9
 218 430 218 430 148 516 c 128,-1,10
 78 602 78 602 78 663 c 0,11,12
 78 730 78 730 180 730 c 2,13,-1
 715 730 l 1,14,-1
 715 1063 l 1,15,-1
 -3 1063 l 1,16,-1
 -90 1193 l 1,17,-1
 998 1193 l 1,18,-1
 1085 1063 l 1,0,-1
EndSplineSet
Validated: 1
EndChar

StartChar: hbar
Encoding: 2346 2346 135
Width: 935
GlyphClass: 1
Flags: W
AnchorPoint: "Anchor-2" 705 0 basechar 0
AnchorPoint: "Anchor-1" 705 1125 basechar 0
LayerCount: 2
Fore
SplineSet
1023 1063 m 1,0,-1
 783 1063 l 1,1,-1
 783 0 l 1,2,-1
 653 98 l 1,3,-1
 653 458 l 1,4,5
 555 395 555 395 463 395 c 0,6,7
 334 395 334 395 226 495 c 0,8,9
 123 591 123 591 123 693 c 2,10,-1
 123 1063 l 1,11,-1
 0 1063 l 1,12,-1
 -90 1193 l 1,13,-1
 935 1193 l 1,14,-1
 1023 1063 l 1,0,-1
653 625 m 1,15,-1
 653 1063 l 1,16,-1
 253 1063 l 1,17,-1
 253 663 l 2,18,19
 253 572 253 572 296.5 520 c 128,-1,20
 340 468 340 468 415 468 c 0,21,22
 522 468 522 468 653 625 c 1,15,-1
EndSplineSet
Validated: 1
EndChar

StartChar: Itilde
Encoding: 2347 2347 136
Width: 1313
GlyphClass: 1
Flags: W
AnchorPoint: "Anchor-2" 680 0 basechar 0
AnchorPoint: "Anchor-1" 680 1125 basechar 0
LayerCount: 2
Fore
SplineSet
1403 1063 m 1,0,-1
 745 1063 l 1,1,-1
 745 708 l 1,2,3
 855 773 855 773 948 773 c 0,4,5
 1052 773 1052 773 1138.5 672.5 c 128,-1,6
 1225 572 1225 572 1225 450 c 0,7,8
 1225 297 1225 297 1070 138 c 1,9,-1
 950 245 l 1,10,11
 1128 416 1128 416 1128 555 c 0,12,13
 1128 665 1128 665 1015 665 c 0,14,15
 894 665 894 665 745 543 c 1,16,-1
 745 0 l 1,17,-1
 613 98 l 1,18,-1
 613 460 l 1,19,20
 537 413 537 413 460 413 c 0,21,22
 349 413 349 413 239 508 c 0,23,24
 125 607 125 607 125 715 c 2,25,-1
 125 1063 l 1,26,-1
 3 1063 l 1,27,-1
 -90 1193 l 1,28,-1
 1313 1193 l 1,29,-1
 1403 1063 l 1,0,-1
613 610 m 1,30,-1
 613 1063 l 1,31,-1
 255 1063 l 1,32,-1
 255 665 l 2,33,34
 255 520 255 520 395 520 c 0,35,36
 513 520 513 520 613 610 c 1,30,-1
EndSplineSet
Validated: 1
EndChar

StartChar: itilde
Encoding: 2348 2348 137
Width: 1033
GlyphClass: 1
Flags: W
AnchorPoint: "Anchor-2" 810 0 basechar 0
AnchorPoint: "Anchor-1" 810 1125 basechar 0
LayerCount: 2
Fore
SplineSet
1120 1063 m 1,0,-1
 880 1063 l 1,1,-1
 880 0 l 1,2,-1
 750 98 l 1,3,-1
 750 413 l 1,4,5
 631 298 631 298 453 298 c 0,6,7
 318 298 318 298 199 401 c 0,8,9
 75 508 75 508 75 640 c 0,10,11
 75 761 75 761 177 831 c 0,12,13
 267 893 267 893 393 893 c 0,14,15
 585 893 585 893 750 751 c 1,16,-1
 750 1063 l 1,17,-1
 -3 1063 l 1,18,-1
 -90 1193 l 1,19,-1
 1033 1193 l 1,20,-1
 1120 1063 l 1,0,-1
745 575 m 1,21,-1
 745 670 l 1,22,23
 646 795 646 795 470 795 c 0,24,25
 405 795 405 795 373 780 c 1,26,-1
 593 450 l 1,27,28
 610 461 610 461 670 505 c 0,29,30
 712 538 712 538 745 575 c 1,21,-1
530 423 m 1,31,-1
 308 750 l 1,32,33
 193 679 193 679 193 563 c 0,34,35
 193 481 193 481 256 438 c 0,36,37
 311 400 311 400 395 400 c 0,38,39
 476 400 476 400 530 423 c 1,31,-1
EndSplineSet
Validated: 1
EndChar

StartChar: Imacron
Encoding: 2349 2349 138
Width: 1188
GlyphClass: 1
Flags: W
AnchorPoint: "Anchor-2" 960 0 basechar 0
AnchorPoint: "Anchor-1" 960 1125 basechar 0
LayerCount: 2
Fore
SplineSet
1275 1063 m 1,0,-1
 1035 1063 l 1,1,-1
 1035 0 l 1,2,-1
 905 98 l 1,3,-1
 905 483 l 1,4,-1
 513 483 l 1,5,-1
 513 413 l 2,6,7
 513 343 513 343 463 343 c 0,8,9
 419 343 419 343 324.5 434.5 c 128,-1,10
 230 526 230 526 230 563 c 0,11,12
 230 608 230 608 280 608 c 2,13,-1
 380 608 l 1,14,-1
 380 1078 l 2,15,16
 380 1145 380 1145 315 1145 c 0,17,18
 259 1145 259 1145 200 1055 c 1,19,-1
 113 1150 l 1,20,21
 172 1205 172 1205 268 1205 c 0,22,23
 378 1205 378 1205 451 1118 c 0,24,25
 513 1043 513 1043 513 963 c 2,26,-1
 513 610 l 1,27,-1
 905 610 l 1,28,-1
 905 1063 l 1,29,-1
 643 1063 l 1,30,-1
 553 1193 l 1,31,-1
 1188 1193 l 1,32,-1
 1275 1063 l 1,0,-1
EndSplineSet
Validated: 1
EndChar

StartChar: imacron
Encoding: 2350 2350 139
Width: 1083
GlyphClass: 1
Flags: W
AnchorPoint: "Anchor-2" 870 0 basechar 0
AnchorPoint: "Anchor-1" 870 1125 basechar 0
LayerCount: 2
Fore
SplineSet
1170 1063 m 1,0,-1
 930 1063 l 1,1,-1
 930 0 l 1,2,-1
 800 98 l 1,3,-1
 800 483 l 1,4,-1
 363 483 l 1,5,-1
 363 395 l 2,6,7
 363 330 363 330 318 330 c 0,8,9
 265 330 265 330 173 425 c 0,10,11
 83 517 83 517 83 563 c 0,12,13
 83 610 83 610 138 610 c 2,14,-1
 233 610 l 1,15,-1
 233 1063 l 1,16,-1
 0 1063 l 1,17,-1
 -90 1193 l 1,18,-1
 1083 1193 l 1,19,-1
 1170 1063 l 1,0,-1
800 610 m 1,20,-1
 800 1063 l 1,21,-1
 363 1063 l 1,22,-1
 363 610 l 1,23,-1
 800 610 l 1,20,-1
EndSplineSet
Validated: 1
EndChar

StartChar: Ibreve
Encoding: 2351 2351 140
Width: 1033
GlyphClass: 1
Flags: W
AnchorPoint: "Anchor-5" 810 0 basechar 0
AnchorPoint: "Anchor-2" 810 0 basechar 0
AnchorPoint: "Anchor-1" 810 1125 basechar 0
LayerCount: 2
Fore
SplineSet
1120 1063 m 1,0,-1
 880 1063 l 1,1,-1
 880 0 l 1,2,-1
 750 98 l 1,3,-1
 750 425 l 1,4,5
 633 340 633 340 508 340 c 0,6,7
 304 340 304 340 171 533 c 0,8,9
 115 613 115 613 78 725 c 1,10,11
 375 806 375 806 375 915 c 0,12,13
 375 982 375 982 290 1063 c 1,14,-1
 0 1063 l 1,15,-1
 -90 1193 l 1,16,-1
 1033 1193 l 1,17,-1
 1120 1063 l 1,0,-1
750 594 m 1,18,-1
 750 1063 l 1,19,-1
 360 1063 l 1,20,21
 480 924 480 924 480 850 c 0,22,23
 480 725 480 725 193 620 c 1,24,25
 264 450 264 450 420 450 c 0,26,27
 580 450 580 450 750 594 c 1,18,-1
EndSplineSet
Validated: 1
EndChar

StartChar: ibreve
Encoding: 2352 2352 141
Width: 788
GlyphClass: 1
Flags: W
AnchorPoint: "Anchor-2" 585 0 basechar 0
AnchorPoint: "Anchor-1" 495 1125 basechar 0
LayerCount: 2
Fore
SplineSet
873 1063 m 1,0,-1
 560 1063 l 1,1,-1
 560 720 l 2,2,3
 560 612 560 612 503 558 c 0,4,5
 440 499 440 499 318 460 c 1,6,-1
 675 35 l 1,7,-1
 610 -18 l 1,8,-1
 188 490 l 2,9,10
 105 589 105 589 105 648 c 0,11,12
 105 703 105 703 168 703 c 0,13,14
 223 703 223 703 278 603 c 1,15,16
 307 611 307 611 375 648 c 1,17,18
 430 688 430 688 430 748 c 2,19,-1
 430 1063 l 1,20,-1
 -3 1063 l 1,21,-1
 -90 1193 l 1,22,-1
 788 1193 l 1,23,-1
 873 1063 l 1,0,-1
EndSplineSet
Validated: 1
EndChar

StartChar: Iogonek
Encoding: 2354 2354 142
Width: 1290
GlyphClass: 1
Flags: W
AnchorPoint: "Anchor-2" 840 0 basechar 0
AnchorPoint: "Anchor-1" 930 1125 basechar 0
LayerCount: 2
Fore
SplineSet
1378 1063 m 1,0,-1
 995 1063 l 1,1,-1
 995 808 l 1,2,3
 1101 786 1101 786 1165 709 c 0,4,5
 1233 627 1233 627 1233 505 c 0,6,7
 1233 233 1233 233 913 0 c 1,8,-1
 813 128 l 1,9,10
 1153 363 1153 363 1153 568 c 0,11,12
 1153 655 1153 655 1102 702 c 0,13,14
 1057 745 1057 745 983 745 c 0,15,16
 815 745 815 745 663 445 c 1,17,-1
 530 528 l 1,18,19
 562 579 562 579 612 652 c 1,20,21
 533 748 533 748 443 748 c 0,22,23
 352 748 352 748 282.5 668.5 c 128,-1,24
 213 589 213 589 213 475 c 0,25,26
 213 330 213 330 332 216 c 0,27,28
 378 172 378 172 560 53 c 1,29,-1
 515 -5 l 1,30,31
 78 266 78 266 78 560 c 0,32,33
 78 695 78 695 166 771 c 0,34,35
 246 840 246 840 368 840 c 0,36,37
 515 840 515 840 646 689 c 1,38,39
 747 791 747 791 868 811 c 1,40,-1
 868 1063 l 1,41,-1
 0 1063 l 1,42,-1
 -90 1193 l 1,43,-1
 1290 1193 l 1,44,-1
 1378 1063 l 1,0,-1
EndSplineSet
Validated: 1
EndChar

StartChar: iogonek
Encoding: 2355 2355 143
Width: 1403
GlyphClass: 1
Flags: W
AnchorPoint: "Anchor-2" 990 0 basechar 0
AnchorPoint: "Anchor-1" 1005 1125 basechar 0
LayerCount: 2
Fore
SplineSet
1490 1063 m 1,0,-1
 1080 1063 l 1,1,-1
 1080 814 l 1,2,3
 1196 788 1196 788 1264 677 c 0,4,5
 1325 577 1325 577 1325 450 c 0,6,7
 1325 285 1325 285 1245 165 c 0,8,9
 1159 35 1159 35 1023 35 c 0,10,11
 871 35 871 35 666 268 c 1,12,13
 510 43 510 43 400 43 c 0,14,15
 268 43 268 43 173 162.5 c 128,-1,16
 78 282 78 282 78 450 c 0,17,18
 78 610 78 610 159 711 c 0,19,20
 245 818 245 818 398 818 c 0,21,22
 540 818 540 818 705 598 c 1,23,24
 835 769 835 769 948 807 c 1,25,-1
 948 1063 l 1,26,-1
 0 1063 l 1,27,-1
 -90 1193 l 1,28,-1
 1403 1193 l 1,29,-1
 1490 1063 l 1,0,-1
1238 535 m 0,30,31
 1238 621 1238 621 1188 677 c 0,32,33
 1139 730 1139 730 1070 730 c 0,34,35
 991 730 991 730 886 595 c 0,36,37
 866 569 866 569 699 317 c 1,38,39
 846 143 846 143 960 143 c 0,40,41
 1057 143 1057 143 1147.5 270.5 c 128,-1,42
 1238 398 1238 398 1238 535 c 0,30,31
661 538 m 1,43,44
 564 703 564 703 453 703 c 0,45,46
 337 703 337 703 256 587 c 0,47,48
 180 478 180 478 180 340 c 0,49,50
 180 262 180 262 213 207 c 0,51,52
 255 138 255 138 335 138 c 0,53,54
 392 138 392 138 507 302 c 1,55,56
 584 420 584 420 661 538 c 1,43,44
EndSplineSet
Validated: 1
EndChar

StartChar: Idotaccent
Encoding: 2357 2357 144
Width: 1065
GlyphClass: 1
Flags: W
AnchorPoint: "Anchor-2" 855 0 basechar 0
AnchorPoint: "Anchor-1" 855 1125 basechar 0
LayerCount: 2
Fore
SplineSet
1153 1063 m 1,0,-1
 913 1063 l 1,1,-1
 913 0 l 1,2,-1
 783 98 l 1,3,-1
 783 410 l 1,4,5
 649 283 649 283 478 283 c 0,6,7
 334 283 334 283 208 388 c 0,8,9
 75 500 75 500 80 640 c 0,10,11
 85 761 85 761 184 833 c 0,12,13
 274 898 274 898 400 898 c 0,14,15
 511 898 511 898 622 818 c 0,16,17
 716 751 716 751 783 650 c 1,18,-1
 783 1063 l 1,19,-1
 -3 1063 l 1,20,-1
 -90 1193 l 1,21,-1
 1065 1193 l 1,22,-1
 1153 1063 l 1,0,-1
780 580 m 1,23,24
 612 775 612 775 448 775 c 0,25,26
 339 775 339 775 266 702 c 0,27,28
 200 637 200 637 200 560 c 0,29,30
 200 385 200 385 363 385 c 0,31,32
 544 385 544 385 780 580 c 1,23,24
EndSplineSet
Validated: 33
EndChar

StartChar: dotlessi
Encoding: 2358 2358 145
Width: 1210
GlyphClass: 1
Flags: W
AnchorPoint: "Anchor-2" 990 -15 basechar 0
AnchorPoint: "Anchor-1" 990 1125 basechar 0
LayerCount: 2
Fore
SplineSet
1298 1063 m 1,0,-1
 1058 1063 l 1,1,-1
 1058 0 l 1,2,-1
 928 98 l 1,3,-1
 928 1063 l 1,4,-1
 463 1063 l 1,5,-1
 463 928 l 1,6,7
 577 896 577 896 650 800 c 128,-1,8
 723 704 723 704 723 585 c 0,9,10
 723 362 723 362 425 225 c 1,11,-1
 648 -30 l 1,12,-1
 568 -88 l 1,13,-1
 353 205 l 1,14,15
 320 206 320 206 233 233 c 1,16,17
 125 281 125 281 125 375 c 0,18,19
 125 463 125 463 220 463 c 0,20,21
 308 463 308 463 365 350 c 1,22,23
 630 470 630 470 630 663 c 0,24,25
 630 749 630 749 579 797 c 128,-1,26
 528 845 528 845 440 845 c 0,27,28
 298 845 298 845 190 710 c 1,29,-1
 78 803 l 1,30,31
 89 820 89 820 165 880 c 1,32,33
 235 926 235 926 333 933 c 1,34,-1
 333 1063 l 1,35,-1
 -3 1063 l 1,36,-1
 -90 1193 l 1,37,-1
 1210 1193 l 1,38,-1
 1298 1063 l 1,0,-1
EndSplineSet
Validated: 1
EndChar

StartChar: IJ
Encoding: 2359 2359 146
Width: 995
GlyphClass: 1
Flags: W
AnchorPoint: "Anchor-5" 780 50 basechar 0
AnchorPoint: "Anchor-2" 780 50 basechar 0
AnchorPoint: "Anchor-1" 780 1125 basechar 0
LayerCount: 2
Fore
SplineSet
1083 1063 m 1,0,-1
 843 1063 l 1,1,-1
 843 0 l 1,2,-1
 713 98 l 1,3,-1
 713 430 l 1,4,5
 600 330 600 330 470 330 c 0,6,7
 338 330 338 330 228 437 c 128,-1,8
 118 544 118 544 118 670 c 2,9,-1
 118 1063 l 1,10,-1
 -3 1063 l 1,11,-1
 -90 1193 l 1,12,-1
 995 1193 l 1,13,-1
 1083 1063 l 1,0,-1
713 677 m 1,14,-1
 713 1063 l 1,15,-1
 248 1063 l 1,16,-1
 713 677 l 1,14,-1
708 585 m 1,17,-1
 248 968 l 1,18,-1
 248 618 l 2,19,20
 248 425 248 425 385 425 c 0,21,22
 557 425 557 425 708 585 c 1,17,-1
EndSplineSet
Validated: 1
EndChar

StartChar: ij
Encoding: 2360 2360 147
Width: 1230
GlyphClass: 1
Flags: W
AnchorPoint: "Anchor-2" 990 0 basechar 0
AnchorPoint: "Anchor-1" 1005 1125 basechar 0
LayerCount: 2
Fore
SplineSet
1318 1063 m 1,0,-1
 1078 1063 l 1,1,-1
 1078 0 l 1,2,-1
 948 98 l 1,3,-1
 948 501 l 1,4,5
 887 468 887 468 820 468 c 0,6,7
 714 468 714 468 538 610 c 1,8,9
 524 578 524 578 503 558 c 0,10,11
 440 499 440 499 318 460 c 1,12,-1
 675 35 l 1,13,-1
 610 -18 l 1,14,-1
 188 490 l 2,15,16
 105 589 105 589 105 648 c 0,17,18
 105 703 105 703 168 703 c 0,19,20
 223 703 223 703 278 603 c 1,21,22
 307 611 307 611 375 648 c 1,23,24
 430 688 430 688 430 748 c 2,25,-1
 430 1063 l 1,26,-1
 -3 1063 l 1,27,-1
 -90 1193 l 1,28,-1
 1230 1193 l 1,29,-1
 1318 1063 l 1,0,-1
948 666 m 1,30,-1
 948 1063 l 1,31,-1
 560 1063 l 1,32,-1
 560 720 l 2,33,34
 560 699 560 699 557 676 c 1,35,36
 645 590 645 590 760 590 c 0,37,38
 869 590 869 590 948 666 c 1,30,-1
EndSplineSet
Validated: 1
EndChar

StartChar: Jcircumflex
Encoding: 2361 2361 148
Width: 923
GlyphClass: 1
Flags: W
AnchorPoint: "Anchor-2" 600 -60 basechar 0
AnchorPoint: "Anchor-1" 645 1125 basechar 0
LayerCount: 2
Fore
SplineSet
1010 1063 m 1,0,-1
 713 1063 l 1,1,-1
 713 775 l 1,2,-1
 275 775 l 2,3,4
 237 775 237 775 210 750 c 128,-1,5
 183 725 183 725 183 690 c 0,6,7
 183 632 183 632 245 598 c 1,8,9
 337 653 337 653 460 653 c 0,10,11
 568 653 568 653 668 557.5 c 128,-1,12
 768 462 768 462 768 360 c 0,13,14
 768 232 768 232 630 150 c 1,15,-1
 540 260 l 1,16,17
 678 332 678 332 678 420 c 0,18,19
 678 490 678 490 625 526 c 0,20,21
 580 558 580 558 513 558 c 0,22,23
 410 558 410 558 316 484 c 0,24,25
 210 401 210 401 210 283 c 0,26,27
 210 171 210 171 370 70 c 0,28,29
 451 19 451 19 628 -53 c 1,30,-1
 598 -113 l 1,31,32
 379 -20 379 -20 272 57 c 0,33,34
 83 194 83 194 83 355 c 0,35,36
 83 473 83 473 190 560 c 1,37,38
 78 660 78 660 78 763 c 0,39,40
 78 825 78 825 120 864 c 128,-1,41
 162 903 162 903 223 903 c 2,42,-1
 580 903 l 1,43,-1
 580 1063 l 1,44,-1
 -3 1063 l 1,45,-1
 -90 1193 l 1,46,-1
 923 1193 l 1,47,-1
 1010 1063 l 1,0,-1
EndSplineSet
Validated: 1
EndChar

StartChar: lacute
Encoding: 2364 2364 149
Width: 10
GlyphClass: 4
Flags: W
LayerCount: 2
Fore
SplineSet
-402 13 m 1,0,-1
 -533 -118 l 1,1,-1
 -663 13 l 1,2,-1
 -533 143 l 1,3,-1
 -402 13 l 1,0,-1
EndSplineSet
Validated: 1
EndChar

StartChar: Lcedilla
Encoding: 2365 2365 150
Width: 845
GlyphClass: 1
Flags: W
LayerCount: 2
Fore
SplineSet
765 278 m 0,0,1
 765 166 765 166 691 87 c 0,2,3
 610 0 610 0 475 0 c 0,4,5
 277 0 277 0 78 290 c 1,6,-1
 133 330 l 1,7,8
 165 260 165 260 223 203 c 0,9,10
 302 125 302 125 388 125 c 0,11,12
 495 125 495 125 560 196 c 0,13,14
 618 260 618 260 618 350 c 256,15,16
 618 440 618 440 555 512 c 0,17,18
 538 531 538 531 398 653 c 0,19,20
 250 780 250 780 228 803 c 0,21,22
 125 912 125 912 125 1005 c 0,23,24
 125 1093 125 1093 187 1147 c 0,25,26
 240 1193 240 1193 305 1193 c 2,27,-1
 653 1193 l 1,28,-1
 743 1063 l 1,29,-1
 348 1063 l 2,30,31
 311 1063 311 1063 280 1034 c 0,32,33
 245 1002 245 1002 245 955 c 0,34,35
 245 894 245 894 316 824 c 1,36,37
 394 754 394 754 473 685 c 0,38,39
 637 535 637 535 664 504 c 0,40,41
 765 387 765 387 765 278 c 0,0,1
EndSplineSet
Validated: 1
EndChar

StartChar: lcedilla
Encoding: 2366 2366 151
Width: 430
GlyphClass: 1
Flags: W
LayerCount: 2
Fore
SplineSet
520 1063 m 1,0,-1
 280 1063 l 1,1,-1
 280 0 l 1,2,-1
 150 98 l 1,3,-1
 150 1063 l 1,4,-1
 -3 1063 l 1,5,-1
 -93 1193 l 1,6,-1
 433 1193 l 1,7,-1
 520 1063 l 1,0,-1
EndSplineSet
Validated: 1
EndChar

StartChar: Lcaron
Encoding: 2367 2367 152
Width: 430
GlyphClass: 1
Flags: W
LayerCount: 2
Fore
SplineSet
1709 1217 m 1,0,-1
 1673 1174 l 1,1,2
 946 1665 946 1665 595 1665 c 0,3,4
 372 1665 372 1665 255.5 1575.5 c 128,-1,5
 139 1486 139 1486 139 1325 c 0,6,7
 139 1253 139 1253 201 1193 c 1,8,-1
 433 1193 l 1,9,-1
 520 1063 l 1,10,-1
 280 1063 l 1,11,-1
 280 -3 l 1,12,-1
 150 98 l 1,13,-1
 150 1063 l 1,14,-1
 0 1063 l 1,15,-1
 -90 1193 l 1,16,-1
 145 1193 l 1,17,18
 41 1324 41 1324 41 1435 c 0,19,20
 41 1738 41 1738 409 1738 c 0,21,22
 764 1738 764 1738 1272 1478 c 0,23,24
 1484 1369 1484 1369 1709 1217 c 1,0,-1
EndSplineSet
Validated: 1
Substitution2: "Single Substitution lookup 25 subtable" afii10021
Substitution2: "Single Substitution lookup 24 subtable" afii10020
EndChar

StartChar: lcaron
Encoding: 2368 2368 153
Width: 430
GlyphClass: 1
Flags: W
LayerCount: 2
Fore
SplineSet
520 1063 m 1,0,-1
 280 1063 l 1,1,-1
 280 -3 l 1,2,-1
 150 98 l 1,3,-1
 150 1063 l 1,4,-1
 5 1063 l 1,5,-1
 -83 1193 l 1,6,-1
 178 1193 l 1,7,8
 154 1320 154 1320 95 1411 c 0,9,10
 13 1540 13 1540 -113 1540 c 0,11,12
 -193 1540 -193 1540 -245 1491 c 0,13,14
 -293 1445 -293 1445 -293 1383 c 0,15,16
 -293 1290 -293 1290 -228 1193 c 1,17,-1
 -285 1193 l 1,18,19
 -385 1342 -385 1342 -385 1465 c 0,20,21
 -385 1563 -385 1563 -323.5 1620.5 c 128,-1,22
 -262 1678 -262 1678 -160 1678 c 0,23,24
 -20 1678 -20 1678 101 1504 c 0,25,26
 204 1357 204 1357 233 1193 c 1,27,-1
 433 1193 l 1,28,-1
 520 1063 l 1,0,-1
EndSplineSet
Validated: 1
EndChar

StartChar: Ldot
Encoding: 2369 2369 154
Width: 10
GlyphClass: 4
Flags: W
AnchorPoint: "Anchor-2" -185 0 mark 0
LayerCount: 2
Fore
SplineSet
15 -255 m 0,0,1
 15 -349 15 -349 -43 -403 c 0,2,3
 -98 -453 -98 -453 -188 -453 c 0,4,5
 -349 -453 -349 -453 -605 -248 c 0,6,7
 -675 -192 -675 -192 -763 -110 c 1,8,-1
 -730 -78 l 1,9,10
 -688 -116 -688 -116 -558 -220 c 1,11,12
 -388 -345 -388 -345 -283 -345 c 0,13,14
 -187 -345 -187 -345 -126 -286 c 0,15,16
 -70 -232 -70 -232 -70 -163 c 0,17,18
 -70 -70 -70 -70 -165 -70 c 0,19,20
 -232 -70 -232 -70 -303 -163 c 1,21,-1
 -418 -75 l 1,22,23
 -356 15 -356 15 -238 15 c 0,24,25
 -130 15 -130 15 -57.5 -59 c 128,-1,26
 15 -133 15 -133 15 -255 c 0,0,1
EndSplineSet
Validated: 1
Substitution2: "Single Substitution lookup 26 subtable" afii10018
EndChar

StartChar: ldot
Encoding: 2370 2370 155
Width: 10
GlyphClass: 4
Flags: W
AnchorPoint: "Anchor-2" -185 -30 mark 0
LayerCount: 2
Fore
SplineSet
270 -430 m 1,0,-1
 228 -460 l 1,1,2
 185 -400 185 -400 68 -240 c 0,3,4
 -34 -105 -34 -105 -160 -105 c 0,5,6
 -233 -105 -233 -105 -285 -144 c 0,7,8
 -343 -187 -343 -187 -343 -258 c 0,9,10
 -343 -335 -343 -335 -255 -335 c 0,11,12
 -178 -335 -178 -335 -98 -248 c 1,13,-1
 -13 -353 l 1,14,15
 -87 -433 -87 -433 -175 -433 c 0,16,17
 -279 -433 -279 -433 -358.5 -356.5 c 128,-1,18
 -438 -280 -438 -280 -438 -185 c 0,19,20
 -438 -97 -438 -97 -380.5 -43.5 c 128,-1,21
 -323 10 -323 10 -233 10 c 0,22,23
 -66 10 -66 10 90 -183 c 0,24,25
 149 -255 149 -255 270 -430 c 1,0,-1
EndSplineSet
Validated: 1
Substitution2: "Single Substitution lookup 26 subtable" afii10019
EndChar

StartChar: Lslash
Encoding: 2371 2371 156
Width: 10
GlyphClass: 4
Flags: W
AnchorPoint: "Anchor-4" -185 -30 mark 0
AnchorPoint: "Anchor-2" -185 -30 mark 0
LayerCount: 2
Fore
SplineSet
-8 -360 m 1,0,1
 -98 -420 -98 -420 -208 -420 c 0,2,3
 -327 -420 -327 -420 -423 -335 c 0,4,5
 -525 -246 -525 -246 -525 -125 c 0,6,7
 -525 65 -525 65 -275 105 c 1,8,-1
 -153 15 l 1,9,10
 -450 -45 -450 -45 -450 -188 c 0,11,12
 -450 -241 -450 -241 -398 -272 c 0,13,14
 -355 -298 -355 -298 -300 -298 c 0,15,16
 -170 -298 -170 -298 -65 -235 c 1,17,-1
 -8 -360 l 1,0,1
EndSplineSet
Validated: 1
EndChar

StartChar: lslash
Encoding: 2372 2372 157
Width: 10
GlyphClass: 4
Flags: W
AnchorPoint: "Anchor-4" -270 30 mark 0
AnchorPoint: "Anchor-2" -270 30 mark 0
LayerCount: 2
Fore
SplineSet
-23 -573 m 1,0,1
 -117 -650 -117 -650 -240 -650 c 0,2,3
 -334 -650 -334 -650 -416 -578 c 0,4,5
 -503 -502 -503 -502 -503 -403 c 0,6,7
 -503 -319 -503 -319 -434 -266 c 1,8,9
 -525 -196 -525 -196 -525 -110 c 0,10,11
 -525 55 -525 55 -280 103 c 1,12,-1
 -153 5 l 1,13,14
 -450 -35 -450 -35 -450 -163 c 0,15,16
 -450 -208 -450 -208 -388 -238 c 1,17,18
 -322 -208 -322 -208 -242 -208 c 0,19,20
 -212 -208 -212 -208 -178 -210 c 1,21,-1
 -98 -320 l 1,22,23
 -154 -312 -154 -312 -195 -312 c 0,24,25
 -286 -312 -286 -312 -346 -350 c 0,26,27
 -415 -393 -415 -393 -415 -470 c 0,28,29
 -415 -513 -415 -513 -385.5 -540.5 c 128,-1,30
 -356 -568 -356 -568 -313 -568 c 0,31,32
 -208 -568 -208 -568 -95 -465 c 1,33,-1
 -23 -573 l 1,0,1
EndSplineSet
Validated: 1
EndChar

StartChar: Nacute
Encoding: 2373 2373 158
Width: 10
GlyphClass: 4
Flags: W
AnchorPoint: "Anchor-1" -230 1125 mark 0
AnchorPoint: "Anchor-0" -230 1125 mark 0
LayerCount: 2
Fore
SplineSet
-18 1510 m 1,0,1
 -109 1318 -109 1318 -288 1318 c 0,2,3
 -466 1318 -466 1318 -635 1583 c 1,4,-1
 -600 1603 l 1,5,6
 -493 1418 -493 1418 -330 1418 c 0,7,8
 -198 1418 -198 1418 -110 1580 c 1,9,-1
 -18 1510 l 1,0,1
EndSplineSet
Validated: 1
EndChar

StartChar: nacute
Encoding: 2374 2374 159
Width: 10
GlyphClass: 4
Flags: W
AnchorPoint: "Anchor-1" -210 1125 mark 0
LayerCount: 2
Fore
SplineSet
-165 1178 m 1,0,-1
 -213 1178 l 1,1,2
 -213 1245 -213 1245 -223 1288 c 0,3,4
 -240 1364 -240 1364 -329 1385 c 0,5,6
 -370 1395 -370 1395 -493 1395 c 0,7,8
 -592 1395 -592 1395 -660 1447 c 0,9,10
 -743 1511 -743 1511 -743 1633 c 0,11,12
 -743 1695 -743 1695 -733 1758 c 1,13,-1
 -670 1758 l 1,14,15
 -680 1709 -680 1709 -680 1668 c 0,16,17
 -680 1533 -680 1533 -518 1533 c 0,18,19
 -369 1533 -369 1533 -302 1501 c 0,20,21
 -208 1456 -208 1456 -178 1325 c 0,22,23
 -167 1280 -167 1280 -165 1178 c 1,0,-1
EndSplineSet
Validated: 1
EndChar

StartChar: Ncedilla
Encoding: 2375 2375 160
Width: 10
GlyphClass: 4
Flags: W
AnchorPoint: "Anchor-1" -205 1125 mark 0
LayerCount: 2
Fore
SplineSet
-163 1178 m 1,0,-1
 -220 1178 l 1,1,2
 -237 1232 -237 1232 -305 1386 c 1,3,4
 -413 1599 -413 1599 -618 1599 c 0,5,6
 -664 1599 -664 1599 -688 1595 c 1,7,-1
 -755 1763 l 1,8,9
 -722 1765 -722 1765 -690 1765 c 0,10,11
 -441 1765 -441 1765 -281 1445 c 0,12,13
 -240 1363 -240 1363 -163 1178 c 1,0,-1
EndSplineSet
Validated: 1
EndChar

StartChar: ncedilla
Encoding: 2376 2376 161
Width: 10
GlyphClass: 4
Flags: W
AnchorPoint: "Anchor-1" -205 1125 mark 0
LayerCount: 2
Fore
SplineSet
-155 1183 m 1,0,-1
 -203 1183 l 1,1,2
 -220 1226 -220 1226 -283 1370 c 0,3,4
 -402 1635 -402 1635 -620 1635 c 0,5,6
 -653 1635 -653 1635 -688 1630 c 1,7,-1
 -725 1785 l 1,8,9
 -666 1788 -666 1788 -640 1788 c 0,10,11
 -519 1788 -519 1788 -395 1641 c 0,12,13
 -303 1533 -303 1533 -238 1385 c 0,14,15
 -193 1285 -193 1285 -155 1183 c 1,0,-1
-303 1183 m 1,16,-1
 -348 1183 l 1,17,18
 -357 1202 -357 1202 -393 1265 c 0,19,20
 -454 1370 -454 1370 -575 1370 c 0,21,22
 -590 1370 -590 1370 -622.5 1366.5 c 128,-1,23
 -655 1363 -655 1363 -658 1363 c 2,24,-1
 -693 1498 l 1,25,26
 -688 1498 -688 1498 -663 1500.5 c 128,-1,27
 -638 1503 -638 1503 -625 1503 c 0,28,29
 -482 1503 -482 1503 -368 1303 c 0,30,31
 -330 1237 -330 1237 -303 1183 c 1,16,-1
EndSplineSet
Validated: 1
EndChar

StartChar: Ncaron
Encoding: 2377 2377 162
Width: 430
GlyphClass: 1
Flags: W
LayerCount: 2
Fore
SplineSet
430 1510 m 1,0,1
 339 1318 339 1318 160 1318 c 256,2,3
 -19 1318 -19 1318 -188 1583 c 1,4,-1
 -153 1603 l 1,5,6
 -45 1418 -45 1418 118 1418 c 0,7,8
 250 1418 250 1418 338 1580 c 1,9,-1
 430 1510 l 1,0,1
520 1063 m 1,10,-1
 280 1063 l 1,11,-1
 280 0 l 1,12,-1
 150 98 l 1,13,-1
 150 1063 l 1,14,-1
 -3 1063 l 1,15,-1
 -93 1193 l 1,16,-1
 433 1193 l 1,17,-1
 520 1063 l 1,10,-1
EndSplineSet
Validated: 1
EndChar

StartChar: ncaron
Encoding: 2378 2378 163
Width: 430
GlyphClass: 1
Flags: W
LayerCount: 2
Fore
SplineSet
520 1063 m 1,0,-1
 280 1063 l 1,1,-1
 280 0 l 1,2,-1
 150 98 l 1,3,-1
 150 1063 l 1,4,-1
 -3 1063 l 1,5,-1
 -93 1193 l 1,6,-1
 217 1193 l 1,7,8
 216 1251 216 1251 208 1288 c 0,9,10
 190 1364 190 1364 101 1385 c 0,11,12
 60 1395 60 1395 -63 1395 c 0,13,14
 -162 1395 -162 1395 -230 1447 c 0,15,16
 -313 1511 -313 1511 -313 1633 c 0,17,18
 -313 1695 -313 1695 -303 1758 c 1,19,-1
 -240 1758 l 1,20,21
 -250 1709 -250 1709 -250 1668 c 0,22,23
 -250 1533 -250 1533 -88 1533 c 0,24,25
 61 1533 61 1533 128 1501 c 0,26,27
 222 1456 222 1456 253 1325 c 0,28,29
 261 1287 261 1287 265 1193 c 1,30,-1
 433 1193 l 1,31,-1
 520 1063 l 1,0,-1
EndSplineSet
Validated: 1
EndChar

StartChar: napostrophe
Encoding: 2379 2379 164
Width: 430
GlyphClass: 1
Flags: W
LayerCount: 2
Fore
SplineSet
520 1063 m 1,0,-1
 280 1063 l 1,1,-1
 280 0 l 1,2,-1
 150 98 l 1,3,-1
 150 1063 l 1,4,-1
 -3 1063 l 1,5,-1
 -93 1193 l 1,6,-1
 200 1193 l 1,7,8
 163 1301 163 1301 120 1386 c 0,9,10
 12 1599 12 1599 -193 1599 c 0,11,12
 -239 1599 -239 1599 -263 1595 c 1,13,-1
 -330 1763 l 1,14,15
 -297 1765 -297 1765 -265 1765 c 0,16,17
 -16 1765 -16 1765 144 1445 c 0,18,19
 183 1366 183 1366 256 1193 c 1,20,-1
 433 1193 l 1,21,-1
 520 1063 l 1,0,-1
EndSplineSet
Validated: 1
EndChar

StartChar: Eng
Encoding: 2380 2380 165
Width: 430
GlyphClass: 1
Flags: W
LayerCount: 2
Fore
SplineSet
520 1063 m 1,0,-1
 280 1063 l 1,1,-1
 280 0 l 1,2,-1
 150 98 l 1,3,-1
 150 1063 l 1,4,-1
 -3 1063 l 1,5,-1
 -93 1193 l 1,6,-1
 60 1193 l 1,7,8
 40 1231 40 1231 20 1265 c 0,9,10
 -42 1370 -42 1370 -163 1370 c 0,11,12
 -177 1370 -177 1370 -210 1366.5 c 128,-1,13
 -243 1363 -243 1363 -245 1363 c 2,14,-1
 -280 1498 l 1,15,16
 -276 1498 -276 1498 -250.5 1500.5 c 128,-1,17
 -225 1503 -225 1503 -213 1503 c 0,18,19
 -69 1503 -69 1503 45 1303 c 0,20,21
 78 1244 78 1244 105 1193 c 1,22,-1
 206 1193 l 1,23,24
 170 1282 170 1282 130 1370 c 0,25,26
 11 1635 11 1635 -208 1635 c 0,27,28
 -240 1635 -240 1635 -275 1630 c 1,29,-1
 -313 1785 l 1,30,31
 -254 1788 -254 1788 -228 1788 c 0,32,33
 -106 1788 -106 1788 18 1641 c 0,34,35
 110 1533 110 1533 175 1385 c 0,36,37
 217 1290 217 1290 254 1193 c 1,38,-1
 433 1193 l 1,39,-1
 520 1063 l 1,0,-1
EndSplineSet
Validated: 1
EndChar

StartChar: eng
Encoding: 2381 2381 166
Width: 10
GlyphClass: 4
Flags: W
AnchorPoint: "Anchor-4" -185 -30 mark 0
AnchorPoint: "Anchor-2" -185 -30 mark 0
LayerCount: 2
Fore
SplineSet
278 -490 m 1,0,-1
 248 -518 l 1,1,2
 205 -465 205 -465 95 -340 c 0,3,4
 10 -249 10 -249 -11 -231 c 0,5,6
 -79 -175 -79 -175 -145 -175 c 0,7,8
 -198 -175 -198 -175 -253 -213 c 1,9,-1
 -340 -95 l 1,10,11
 -276 -60 -276 -60 -218 -60 c 0,12,13
 -129 -60 -129 -60 -23 -151 c 0,14,15
 37 -202 37 -202 145 -328 c 0,16,17
 187 -376 187 -376 278 -490 c 1,0,-1
EndSplineSet
Validated: 1
PairPos2: "'blwm' Below Base Mark in Devanagari lookup 6 subtable" afii10062 dx=-165 dy=-150 dh=0 dv=0 dx=0 dy=0 dh=0 dv=0
EndChar

StartChar: Obreve
Encoding: 2384 2384 167
Width: 1973
GlyphClass: 1
Flags: W
LayerCount: 2
Fore
SplineSet
1260 1235 m 1,0,-1
 1160 1133 l 1,1,-1
 1063 1233 l 1,2,-1
 1163 1330 l 1,3,-1
 1260 1235 l 1,0,-1
1535 1145 m 1,4,5
 1420 930 1420 930 1230 930 c 0,6,7
 1051 930 1051 930 863 1218 c 1,8,-1
 898 1238 l 1,9,10
 1025 1030 1025 1030 1188 1030 c 0,11,12
 1331 1030 1331 1030 1443 1215 c 1,13,-1
 1535 1145 l 1,4,5
1900 495 m 0,14,15
 1900 340 1900 340 1827.5 246.5 c 128,-1,16
 1755 153 1755 153 1643 153 c 0,17,18
 1503 153 1503 153 1356 349 c 1,19,20
 1233 205 1233 205 1145 205 c 0,21,22
 1026 205 1026 205 883 361 c 1,23,24
 885 343 885 343 885 325 c 0,25,26
 885 198 885 198 797 124 c 0,27,28
 719 58 719 58 610 58 c 0,29,30
 419 58 419 58 239 299 c 0,31,32
 164 399 164 399 98 540 c 1,33,-1
 160 575 l 1,34,35
 326 185 326 185 505 185 c 0,36,37
 617 185 617 185 698.5 255 c 128,-1,38
 780 325 780 325 780 418 c 0,39,40
 780 529 780 529 656 639 c 1,41,42
 560 578 560 578 455 550 c 1,43,-1
 383 668 l 1,44,45
 730 768 730 768 730 933 c 0,46,47
 730 992 730 992 691.5 1027.5 c 128,-1,48
 653 1063 653 1063 590 1063 c 0,49,50
 476 1063 476 1063 323 948 c 1,51,-1
 240 1073 l 1,52,53
 370 1155 370 1155 503 1155 c 0,54,55
 625 1155 625 1155 715 1074 c 0,56,57
 810 988 810 988 810 863 c 0,58,59
 810 759 810 759 704 673 c 1,60,61
 759 618 759 618 779 595 c 0,62,63
 829 535 829 535 856 473 c 1,64,65
 981 320 981 320 1075 320 c 0,66,67
 1145 320 1145 320 1261 468 c 1,68,69
 1362 605 1362 605 1463 742 c 1,70,71
 1579 890 1579 890 1648 890 c 0,72,73
 1758 890 1758 890 1833 757 c 0,74,75
 1900 638 1900 638 1900 495 c 0,14,15
1813 618 m 0,76,77
 1813 689 1813 689 1782 741 c 128,-1,78
 1751 793 1751 793 1713 793 c 0,79,80
 1674 793 1674 793 1576 654 c 0,81,82
 1396 399 1396 399 1386 386 c 1,83,84
 1479 258 1479 258 1570 258 c 256,85,86
 1661 258 1661 258 1735 362 c 0,87,88
 1813 470 1813 470 1813 618 c 0,76,77
EndSplineSet
Validated: 1
EndChar

StartChar: obreve
Encoding: 2385 2385 168
Width: 10
GlyphClass: 4
Flags: W
LayerCount: 2
Fore
SplineSet
-150 1308 m 1,0,-1
 -220 1308 l 1,1,-1
 -220 1705 l 1,2,-1
 -150 1705 l 1,3,-1
 -150 1308 l 1,0,-1
EndSplineSet
Validated: 1
EndChar

StartChar: Odblacute
Encoding: 2386 2386 169
Width: 10
GlyphClass: 4
Flags: W
LayerCount: 2
Fore
SplineSet
-135 -153 m 1,0,-1
 -838 -153 l 1,1,-1
 -838 -83 l 1,2,-1
 -135 -83 l 1,3,-1
 -135 -153 l 1,0,-1
EndSplineSet
Validated: 1
EndChar

StartChar: odblacute
Encoding: 2387 2387 170
Width: 10
GlyphClass: 4
Flags: W
LayerCount: 2
Fore
SplineSet
-150 1308 m 1,0,-1
 -220 1308 l 1,1,-1
 -465 1705 l 1,2,-1
 -300 1705 l 1,3,-1
 -150 1308 l 1,0,-1
EndSplineSet
Validated: 1
EndChar

StartChar: OE
Encoding: 2388 2388 171
Width: 10
GlyphClass: 4
Flags: W
LayerCount: 2
Fore
SplineSet
0 1705 m 1,0,-1
 -220 1308 l 1,1,-1
 -290 1308 l 1,2,-1
 -150 1705 l 1,3,-1
 0 1705 l 1,0,-1
EndSplineSet
Validated: 1
EndChar

StartChar: Racute
Encoding: 2392 2392 172
Width: 1380
GlyphClass: 1
Flags: W
AnchorPoint: "Anchor-5" 720 60 basechar 0
AnchorPoint: "Anchor-2" 720 60 basechar 0
AnchorPoint: "Anchor-1" 720 1125 basechar 0
LayerCount: 2
Fore
SplineSet
1468 1063 m 1,0,-1
 798 1063 l 1,1,-1
 798 740 l 1,2,3
 922 823 922 823 1018 823 c 0,4,5
 1136 823 1136 823 1216 707 c 0,6,7
 1288 603 1288 603 1288 478 c 0,8,9
 1288 315 1288 315 1100 153 c 1,10,-1
 995 250 l 1,11,12
 1210 429 1210 429 1210 548 c 0,13,14
 1210 698 1210 698 1053 698 c 0,15,16
 934 698 934 698 798 573 c 1,17,-1
 798 -3 l 1,18,-1
 668 95 l 1,19,-1
 668 420 l 1,20,21
 552 313 552 313 415 313 c 0,22,23
 284 313 284 313 185 425 c 0,24,25
 90 533 90 533 90 665 c 0,26,27
 90 778 90 778 160 840 c 0,28,29
 227 900 227 900 343 900 c 0,30,31
 512 900 512 900 668 693 c 1,32,-1
 668 1063 l 1,33,-1
 0 1063 l 1,34,-1
 -90 1193 l 1,35,-1
 1380 1193 l 1,36,-1
 1468 1063 l 1,0,-1
540 95 m 1,37,-1
 410 -35 l 1,38,-1
 280 95 l 1,39,-1
 410 225 l 1,40,-1
 540 95 l 1,37,-1
668 593 m 1,41,42
 568 763 568 763 383 763 c 0,43,44
 300 763 300 763 243 723 c 0,45,46
 178 679 178 679 178 600 c 0,47,48
 178 529 178 529 219 483 c 0,49,50
 266 433 266 433 348 433 c 0,51,52
 512 433 512 433 668 593 c 1,41,42
EndSplineSet
Validated: 1
Ligature2: "'nukt' Nukta Forms in Devanagari lookup 7 subtable" emacron lacute
EndChar

StartChar: racute
Encoding: 2393 2393 173
Width: 1400
GlyphClass: 1
Flags: W
AnchorPoint: "Anchor-5" 1185 -150 basechar 0
AnchorPoint: "Anchor-2" 1185 -150 basechar 0
AnchorPoint: "Anchor-1" 1175 1125 basechar 0
LayerCount: 2
Fore
SplineSet
1488 1063 m 1,0,-1
 1248 1063 l 1,1,-1
 1248 0 l 1,2,-1
 1118 98 l 1,3,-1
 1118 193 l 1,4,5
 934 68 934 68 728 68 c 0,6,7
 570 68 570 68 408 180 c 0,8,9
 268 278 268 278 169 424 c 0,10,11
 75 562 75 562 75 655 c 0,12,13
 75 705 75 705 120 705 c 0,14,15
 143 705 143 705 179 686.5 c 128,-1,16
 215 668 215 668 233 668 c 0,17,18
 283 668 283 668 283 720 c 2,19,-1
 283 1063 l 1,20,-1
 0 1063 l 1,21,-1
 -88 1193 l 1,22,-1
 1400 1193 l 1,23,-1
 1488 1063 l 1,0,-1
405 -45 m 1,24,-1
 275 -175 l 1,25,-1
 145 -45 l 1,26,-1
 275 85 l 1,27,-1
 405 -45 l 1,24,-1
1115 637 m 1,28,29
 1010 783 1010 783 843 783 c 0,30,31
 767 783 767 783 704 741 c 0,32,33
 638 698 638 698 638 642 c 0,34,35
 638 573 638 573 699 536 c 0,36,37
 751 504 751 504 825 504 c 0,38,39
 964 504 964 504 1115 637 c 1,28,29
1118 337 m 1,40,-1
 1118 473 l 1,41,42
 1006 382 1006 382 870 382 c 0,43,44
 749 382 749 382 658.5 466 c 128,-1,45
 568 550 568 550 568 652 c 0,46,47
 568 766 568 766 646 835 c 0,48,49
 721 903 721 903 840 903 c 0,50,51
 961 903 961 903 1118 728 c 1,52,-1
 1118 1063 l 1,53,-1
 415 1063 l 1,54,-1
 415 688 l 2,55,56
 415 575 415 575 365 528 c 0,57,58
 319 484 319 484 225 478 c 1,59,60
 357 193 357 193 703 193 c 0,61,62
 928 193 928 193 1118 337 c 1,40,-1
EndSplineSet
Validated: 1
Ligature2: "'nukt' Nukta Forms in Devanagari lookup 7 subtable" Ebreve lacute
EndChar

StartChar: Rcedilla
Encoding: 2394 2394 174
Width: 1005
GlyphClass: 1
Flags: W
AnchorPoint: "Anchor-5" 785 90 basechar 0
AnchorPoint: "Anchor-2" 785 90 basechar 0
AnchorPoint: "Anchor-1" 780 1125 basechar 0
LayerCount: 2
Fore
SplineSet
1093 1063 m 1,0,-1
 853 1063 l 1,1,-1
 853 0 l 1,2,-1
 723 98 l 1,3,-1
 723 1063 l 1,4,-1
 368 1063 l 1,5,-1
 368 498 l 2,6,7
 368 405 368 405 298 405 c 0,8,9
 251 405 251 405 169.5 494.5 c 128,-1,10
 88 584 88 584 88 635 c 0,11,12
 88 688 88 688 158 688 c 2,13,-1
 238 688 l 1,14,-1
 238 1063 l 1,15,-1
 -3 1063 l 1,16,-1
 -90 1193 l 1,17,-1
 1005 1193 l 1,18,-1
 1093 1063 l 1,0,-1
556 92 m 1,19,-1
 426 -38 l 1,20,-1
 296 92 l 1,21,-1
 426 222 l 1,22,-1
 556 92 l 1,19,-1
EndSplineSet
Validated: 1
Ligature2: "'nukt' Nukta Forms in Devanagari lookup 7 subtable" ebreve lacute
EndChar

StartChar: rcedilla
Encoding: 2395 2395 175
Width: 1190
GlyphClass: 1
Flags: W
AnchorPoint: "Anchor-5" 950 0 basechar 0
AnchorPoint: "Anchor-2" 950 0 basechar 0
AnchorPoint: "Anchor-1" 960 1125 basechar 0
LayerCount: 2
Fore
SplineSet
1278 1063 m 1,0,-1
 1038 1063 l 1,1,-1
 1038 0 l 1,2,-1
 908 98 l 1,3,-1
 908 723 l 1,4,-1
 583 723 l 1,5,6
 692 614 692 614 692 503 c 0,7,8
 692 423 692 423 634.5 374 c 128,-1,9
 577 325 577 325 499 325 c 0,10,11
 258 325 258 325 65 778 c 1,12,-1
 118 805 l 1,13,14
 259 445 259 445 417 445 c 0,15,16
 482 445 482 445 527 484.5 c 128,-1,17
 572 524 572 524 572 583 c 0,18,19
 572 713 572 713 390 820 c 1,20,-1
 408 853 l 1,21,-1
 908 853 l 1,22,-1
 908 1063 l 1,23,-1
 -3 1063 l 1,24,-1
 -90 1193 l 1,25,-1
 1190 1193 l 1,26,-1
 1278 1063 l 1,0,-1
756 92 m 1,27,-1
 626 -38 l 1,28,-1
 496 92 l 1,29,-1
 626 222 l 1,30,-1
 756 92 l 1,27,-1
EndSplineSet
Validated: 1
Ligature2: "'nukt' Nukta Forms in Devanagari lookup 7 subtable" Ecaron lacute
EndChar

StartChar: Rcaron
Encoding: 2396 2396 176
Width: 1080
GlyphClass: 1
Flags: W
AnchorPoint: "Anchor-2" 705 -270 basechar 0
AnchorPoint: "Anchor-1" 805 1125 basechar 0
LayerCount: 2
Fore
SplineSet
1165 1063 m 1,0,-1
 870 1063 l 1,1,-1
 870 780 l 1,2,-1
 475 780 l 2,3,4
 363 780 363 780 363 663 c 0,5,6
 363 548 363 548 460 548 c 0,7,8
 489 548 489 548 601 578 c 128,-1,9
 713 608 713 608 748 608 c 0,10,11
 843 608 843 608 916 509 c 0,12,13
 985 415 985 415 985 303 c 0,14,15
 985 181 985 181 889 102 c 0,16,17
 799 28 799 28 678 28 c 0,18,19
 468 28 468 28 220 300 c 0,20,21
 163 363 163 363 63 495 c 1,22,-1
 118 530 l 1,23,24
 156 476 156 476 255 358 c 1,25,26
 435 163 435 163 600 163 c 0,27,28
 721 163 721 163 809.5 232.5 c 128,-1,29
 898 302 898 302 898 393 c 0,30,31
 898 478 898 478 830 478 c 0,32,33
 805 478 805 478 694 444 c 128,-1,34
 583 410 583 410 538 410 c 0,35,36
 447 410 447 410 346 524.5 c 128,-1,37
 245 639 245 639 245 750 c 0,38,39
 245 816 245 816 295.5 863 c 128,-1,40
 346 910 346 910 428 910 c 2,41,-1
 740 910 l 1,42,-1
 740 1063 l 1,43,-1
 0 1063 l 1,44,-1
 -90 1193 l 1,45,-1
 1080 1193 l 1,46,-1
 1165 1063 l 1,0,-1
745 -163 m 1,47,-1
 625 -283 l 1,48,-1
 508 -165 l 1,49,-1
 625 -45 l 1,50,-1
 745 -163 l 1,47,-1
EndSplineSet
Validated: 1
Ligature2: "'nukt' Nukta Forms in Devanagari lookup 7 subtable" gbreve lacute
EndChar

StartChar: rcaron
Encoding: 2397 2397 177
Width: 970
GlyphClass: 1
Flags: W
AnchorPoint: "Anchor-2" 645 -315 basechar 0
AnchorPoint: "Anchor-1" 680 1125 basechar 0
LayerCount: 2
Fore
SplineSet
1060 1063 m 1,0,-1
 750 1063 l 1,1,-1
 750 730 l 1,2,-1
 420 730 l 2,3,4
 183 730 183 730 183 485 c 0,5,6
 183 366 183 366 264 280 c 0,7,8
 335 204 335 204 445 175 c 1,9,10
 375 281 375 281 375 370 c 0,11,12
 375 457 375 457 423 513 c 0,13,14
 483 583 483 583 603 583 c 0,15,16
 704 583 704 583 781 495.5 c 128,-1,17
 858 408 858 408 858 298 c 0,18,19
 858 174 858 174 782.5 103.5 c 128,-1,20
 707 33 707 33 585 33 c 0,21,22
 415 33 415 33 244 201 c 0,23,24
 63 380 63 380 63 588 c 0,25,26
 63 718 63 718 152 792 c 0,27,28
 232 858 232 858 353 858 c 2,29,-1
 618 858 l 1,30,-1
 618 1063 l 1,31,-1
 -3 1063 l 1,32,-1
 -90 1193 l 1,33,-1
 970 1193 l 1,34,-1
 1060 1063 l 1,0,-1
688 -165 m 1,35,-1
 568 -285 l 1,36,-1
 450 -168 l 1,37,-1
 570 -48 l 1,38,-1
 688 -165 l 1,35,-1
783 365 m 0,39,40
 783 418 783 418 750 448 c 0,41,42
 720 475 720 475 678 475 c 0,43,44
 591 475 591 475 533 417.5 c 128,-1,45
 475 360 475 360 475 273 c 0,46,47
 475 209 475 209 508 164 c 1,48,49
 525 163 525 163 543 163 c 0,50,51
 622 163 622 163 698 219 c 0,52,53
 783 281 783 281 783 365 c 0,39,40
EndSplineSet
Validated: 1
Ligature2: "'nukt' Nukta Forms in Devanagari lookup 7 subtable" Gdot lacute
EndChar

StartChar: Sacute
Encoding: 2345 2345 178
Width: 998
GlyphClass: 1
Flags: W
AnchorPoint: "Anchor-2" 780 0 basechar 0
AnchorPoint: "Anchor-1" 780 1125 basechar 0
LayerCount: 2
Fore
SplineSet
1085 1063 m 1,0,-1
 845 1063 l 1,1,-1
 845 0 l 1,2,-1
 715 98 l 1,3,-1
 715 608 l 1,4,-1
 330 608 l 1,5,-1
 330 503 l 2,6,7
 330 430 330 430 270 430 c 0,8,9
 218 430 218 430 148 516 c 128,-1,10
 78 602 78 602 78 663 c 0,11,12
 78 730 78 730 180 730 c 2,13,-1
 715 730 l 1,14,-1
 715 1063 l 1,15,-1
 -3 1063 l 1,16,-1
 -90 1193 l 1,17,-1
 998 1193 l 1,18,-1
 1085 1063 l 1,0,-1
656 92 m 1,19,-1
 526 -38 l 1,20,-1
 396 92 l 1,21,-1
 526 222 l 1,22,-1
 656 92 l 1,19,-1
EndSplineSet
Validated: 1
Ligature2: "'nukt' Nukta Forms in Devanagari lookup 7 subtable" Hbar lacute
EndChar

StartChar: sacute
Encoding: 2398 2398 179
Width: 1313
GlyphClass: 1
Flags: W
AnchorPoint: "Anchor-5" 685 120 basechar 0
AnchorPoint: "Anchor-2" 685 120 basechar 0
AnchorPoint: "Anchor-1" 685 1125 basechar 0
LayerCount: 2
Fore
SplineSet
1403 1063 m 1,0,-1
 745 1063 l 1,1,-1
 745 708 l 1,2,3
 855 773 855 773 948 773 c 0,4,5
 1052 773 1052 773 1138.5 672.5 c 128,-1,6
 1225 572 1225 572 1225 450 c 0,7,8
 1225 297 1225 297 1070 138 c 1,9,-1
 950 245 l 1,10,11
 1128 416 1128 416 1128 555 c 0,12,13
 1128 665 1128 665 1015 665 c 0,14,15
 894 665 894 665 745 543 c 1,16,-1
 745 0 l 1,17,-1
 613 98 l 1,18,-1
 613 460 l 1,19,20
 537 413 537 413 460 413 c 0,21,22
 349 413 349 413 239 508 c 0,23,24
 125 607 125 607 125 715 c 2,25,-1
 125 1063 l 1,26,-1
 3 1063 l 1,27,-1
 -90 1193 l 1,28,-1
 1313 1193 l 1,29,-1
 1403 1063 l 1,0,-1
490 130 m 1,30,-1
 360 0 l 1,31,-1
 230 130 l 1,32,-1
 360 260 l 1,33,-1
 490 130 l 1,30,-1
613 610 m 1,34,-1
 613 1063 l 1,35,-1
 255 1063 l 1,36,-1
 255 665 l 2,37,38
 255 520 255 520 395 520 c 0,39,40
 513 520 513 520 613 610 c 1,34,-1
EndSplineSet
Validated: 1
Ligature2: "'nukt' Nukta Forms in Devanagari lookup 7 subtable" Itilde lacute
EndChar

StartChar: Scircumflex
Encoding: 2399 2399 180
Width: 1033
GlyphClass: 1
Flags: W
AnchorPoint: "Anchor-2" 810 0 basechar 0
AnchorPoint: "Anchor-1" 810 1125 basechar 0
LayerCount: 2
Fore
SplineSet
1120 1063 m 1,0,-1
 880 1063 l 1,1,-1
 880 0 l 1,2,-1
 750 98 l 1,3,-1
 750 425 l 1,4,5
 633 340 633 340 508 340 c 0,6,7
 304 340 304 340 171 533 c 0,8,9
 115 613 115 613 78 725 c 1,10,11
 375 806 375 806 375 915 c 0,12,13
 375 982 375 982 290 1063 c 1,14,-1
 0 1063 l 1,15,-1
 -90 1193 l 1,16,-1
 1033 1193 l 1,17,-1
 1120 1063 l 1,0,-1
614 92 m 1,18,-1
 484 -38 l 1,19,-1
 354 92 l 1,20,-1
 484 222 l 1,21,-1
 614 92 l 1,18,-1
750 594 m 1,22,-1
 750 1063 l 1,23,-1
 360 1063 l 1,24,25
 480 924 480 924 480 850 c 0,26,27
 480 725 480 725 193 620 c 1,28,29
 264 450 264 450 420 450 c 0,30,31
 580 450 580 450 750 594 c 1,22,-1
EndSplineSet
Validated: 1
Ligature2: "'nukt' Nukta Forms in Devanagari lookup 7 subtable" Ibreve lacute
EndChar

StartChar: scircumflex
Encoding: 2353 2353 181
Width: 788
GlyphClass: 1
Flags: W
AnchorPoint: "Anchor-2" 600 0 basechar 0
AnchorPoint: "Anchor-1" 495 1125 basechar 0
LayerCount: 2
Fore
SplineSet
873 1063 m 1,0,-1
 560 1063 l 1,1,-1
 560 720 l 2,2,3
 560 612 560 612 503 558 c 0,4,5
 440 499 440 499 318 460 c 1,6,-1
 675 35 l 1,7,-1
 610 -18 l 1,8,-1
 188 490 l 2,9,10
 105 589 105 589 105 648 c 0,11,12
 105 703 105 703 168 703 c 0,13,14
 223 703 223 703 278 603 c 1,15,16
 307 611 307 611 375 648 c 1,17,18
 430 688 430 688 430 748 c 2,19,-1
 430 1063 l 1,20,-1
 -3 1063 l 1,21,-1
 -90 1193 l 1,22,-1
 788 1193 l 1,23,-1
 873 1063 l 1,0,-1
348 130 m 1,24,-1
 218 0 l 1,25,-1
 83 130 l 1,26,-1
 213 260 l 1,27,-1
 348 130 l 1,24,-1
EndSplineSet
Validated: 1
Ligature2: "'nukt' Nukta Forms in Devanagari lookup 7 subtable" ibreve lacute
EndChar

StartChar: Scedilla
Encoding: 2356 2356 182
Width: 1403
GlyphClass: 1
Flags: W
AnchorPoint: "Anchor-2" 1005 -120 basechar 0
AnchorPoint: "Anchor-1" 1005 1125 basechar 0
LayerCount: 2
Fore
SplineSet
1490 1063 m 1,0,-1
 1080 1063 l 1,1,-1
 1080 814 l 1,2,3
 1196 788 1196 788 1264 677 c 0,4,5
 1325 577 1325 577 1325 450 c 0,6,7
 1325 285 1325 285 1245 165 c 0,8,9
 1159 35 1159 35 1023 35 c 0,10,11
 871 35 871 35 666 268 c 1,12,13
 510 43 510 43 400 43 c 0,14,15
 268 43 268 43 173 162.5 c 128,-1,16
 78 282 78 282 78 450 c 0,17,18
 78 610 78 610 159 711 c 0,19,20
 245 818 245 818 398 818 c 0,21,22
 540 818 540 818 705 598 c 1,23,24
 835 769 835 769 948 807 c 1,25,-1
 948 1063 l 1,26,-1
 0 1063 l 1,27,-1
 -90 1193 l 1,28,-1
 1403 1193 l 1,29,-1
 1490 1063 l 1,0,-1
765 -118 m 1,30,-1
 645 -238 l 1,31,-1
 528 -120 l 1,32,-1
 648 0 l 1,33,-1
 765 -118 l 1,30,-1
1238 535 m 0,34,35
 1238 621 1238 621 1188 677 c 0,36,37
 1139 730 1139 730 1070 730 c 0,38,39
 991 730 991 730 886 595 c 0,40,41
 866 569 866 569 699 317 c 1,42,43
 846 143 846 143 960 143 c 0,44,45
 1057 143 1057 143 1147.5 270.5 c 128,-1,46
 1238 398 1238 398 1238 535 c 0,34,35
661 538 m 1,47,48
 564 703 564 703 453 703 c 0,49,50
 337 703 337 703 256 587 c 0,51,52
 180 478 180 478 180 340 c 0,53,54
 180 262 180 262 213 207 c 0,55,56
 255 138 255 138 335 138 c 0,57,58
 392 138 392 138 507 302 c 1,59,60
 584 420 584 420 661 538 c 1,47,48
EndSplineSet
Validated: 1
Ligature2: "'nukt' Nukta Forms in Devanagari lookup 7 subtable" iogonek lacute
EndChar

StartChar: scedilla
Encoding: 2400 2400 183
Width: 1530
GlyphClass: 1
Flags: W
AnchorPoint: "Anchor-1" 710 1125 basechar 0
AnchorPoint: "Anchor-0" 710 1125 basechar 0
LayerCount: 2
Fore
SplineSet
1615 1063 m 1,0,-1
 775 1063 l 1,1,-1
 775 640 l 1,2,3
 834 605 834 605 885 605 c 0,4,5
 1008 605 1008 605 1068 710 c 1,6,7
 1038 756 1038 756 1038 800 c 0,8,9
 1038 868 1038 868 1113 868 c 0,10,11
 1170 868 1170 868 1222.5 827 c 128,-1,12
 1275 786 1275 786 1275 748 c 0,13,14
 1275 706 1275 706 1225 658 c 1,15,-1
 1365 435 l 1,16,-1
 1270 383 l 1,17,18
 1025 361 1025 361 1025 238 c 0,19,20
 1025 189 1025 189 1087 165 c 1,21,22
 1153 196 1153 196 1233 196 c 0,23,24
 1263 196 1263 196 1298 193 c 1,25,-1
 1378 83 l 1,26,27
 1321 92 1321 92 1280 92 c 0,28,29
 1190 92 1190 92 1129 57 c 0,30,31
 1060 17 1060 17 1060 -52 c 0,32,33
 1060 -147 1060 -147 1163 -147 c 0,34,35
 1267 -147 1267 -147 1380 -44 c 1,36,-1
 1453 -152 l 1,37,38
 1358 -229 1358 -229 1235 -229 c 0,39,40
 1138 -229 1138 -229 1059 -166 c 0,41,42
 973 -97 973 -97 973 1 c 0,43,44
 973 84 973 84 1041 137 c 1,45,46
 950 212 950 212 950 290 c 0,47,48
 950 446 950 446 1203 480 c 1,49,-1
 1135 585 l 1,50,51
 1053 530 1053 530 963 530 c 0,52,53
 886 530 886 530 775 585 c 1,54,-1
 775 -3 l 1,55,-1
 643 95 l 1,56,-1
 643 505 l 1,57,-1
 220 190 l 1,58,-1
 125 293 l 1,59,-1
 643 630 l 1,60,61
 490 780 490 780 363 780 c 0,62,63
 258 780 258 780 165 685 c 1,64,-1
 78 808 l 1,65,66
 187 893 187 893 310 893 c 0,67,68
 435 893 435 893 643 698 c 1,69,-1
 643 1063 l 1,70,-1
 0 1063 l 1,71,-1
 -88 1193 l 1,72,-1
 1530 1193 l 1,73,-1
 1615 1063 l 1,0,-1
EndSplineSet
Validated: 1
EndChar

StartChar: Scaron
Encoding: 2401 2401 184
Width: 1263
GlyphClass: 1
Flags: W
LayerCount: 2
Fore
SplineSet
1350 1063 m 1,0,-1
 923 1063 l 1,1,-1
 923 843 l 1,2,3
 935 842 935 842 955 840 c 0,4,5
 1047 827 1047 827 1103.5 770.5 c 128,-1,6
 1160 714 1160 714 1160 628 c 0,7,8
 1160 497 1160 497 1069 412 c 0,9,10
 1040 385 1040 385 901 303 c 0,11,12
 810 249 810 249 810 193 c 0,13,14
 810 120 810 120 895 120 c 0,15,16
 979 120 979 120 1140 215 c 1,17,-1
 1195 93 l 1,18,19
 1109 79 1109 79 1025 38 c 0,20,21
 915 -18 915 -18 915 -85 c 0,22,23
 915 -155 915 -155 1033 -155 c 0,24,25
 1121 -155 1121 -155 1218 -85 c 1,26,-1
 1280 -203 l 1,27,28
 1184 -265 1184 -265 1080 -265 c 0,29,30
 981 -265 981 -265 909 -198 c 0,31,32
 840 -134 840 -134 840 -48 c 0,33,34
 840 4 840 4 870 63 c 1,35,36
 730 122 730 122 730 243 c 0,37,38
 730 324 730 324 824 399 c 1,39,40
 911 459 911 459 999 519 c 1,41,42
 1093 590 1093 590 1093 665 c 0,43,44
 1093 765 1093 765 973 765 c 0,45,46
 766 765 766 765 608 478 c 1,47,-1
 498 545 l 1,48,49
 510 571 510 571 535 615 c 0,50,51
 539 621 539 621 565 655 c 1,52,53
 499 748 499 748 390 748 c 0,54,55
 302 748 302 748 251 690 c 128,-1,56
 200 632 200 632 200 540 c 0,57,58
 200 397 200 397 313 288 c 0,59,60
 362 239 362 239 578 63 c 1,61,-1
 528 5 l 1,62,63
 275 200 275 200 173 335 c 0,64,65
 78 460 78 460 78 628 c 0,66,67
 78 727 78 727 147.5 796 c 128,-1,68
 217 865 217 865 328 865 c 0,69,70
 445 865 445 865 600 700 c 1,71,72
 614 721 614 721 685 784 c 1,73,74
 724 813 724 813 795 835 c 1,75,-1
 795 1063 l 1,76,-1
 0 1063 l 1,77,-1
 -90 1193 l 1,78,-1
 1263 1193 l 1,79,-1
 1350 1063 l 1,0,-1
EndSplineSet
Validated: 1
EndChar

StartChar: scaron
Encoding: 2402 2402 185
Width: 10
GlyphClass: 4
Flags: W
AnchorPoint: "Anchor-2" -185 0 mark 0
LayerCount: 2
Fore
SplineSet
28 -419 m 1,0,1
 -27 -453 -27 -453 -86 -453 c 0,2,3
 -144 -453 -144 -453 -190 -410 c 128,-1,4
 -236 -367 -236 -367 -236 -305 c 0,5,6
 -236 -246 -236 -246 -140.5 -187.5 c 128,-1,7
 -45 -129 -45 -129 -45 -93 c 0,8,9
 -45 -33 -45 -33 -110 -33 c 0,10,11
 -221 -33 -221 -33 -320 -210 c 1,12,-1
 -400 -160 l 1,13,14
 -390 -146 -390 -146 -372 -122 c 0,15,16
 -370 -118 -370 -118 -355 -98 c 1,17,18
 -400 -35 -400 -35 -459 -35 c 0,19,20
 -501 -35 -501 -35 -535 -71 c 0,21,22
 -573 -111 -573 -111 -573 -167 c 0,23,24
 -573 -284 -573 -284 -375 -402 c 1,25,-1
 -400 -435 l 1,26,27
 -647 -282 -647 -282 -647 -115 c 0,28,29
 -647 -50 -647 -50 -607.5 -11 c 128,-1,30
 -568 28 -568 28 -508 28 c 0,31,32
 -410 28 -410 28 -333 -71 c 1,33,34
 -254 25 -254 25 -145 25 c 0,35,36
 -86 25 -86 25 -42 -15.5 c 128,-1,37
 2 -56 2 -56 2 -114 c 0,38,39
 2 -180 2 -180 -48 -224 c 0,40,41
 -61 -235 -61 -235 -141 -281 c 0,42,43
 -191 -310 -191 -310 -191 -341 c 0,44,45
 -191 -395 -191 -395 -137 -395 c 0,46,47
 -91 -395 -91 -395 -8 -338 c 1,48,-1
 28 -419 l 1,0,1
EndSplineSet
Validated: 1
EndChar

StartChar: Tcedilla
Encoding: 2403 2403 186
Width: 10
GlyphClass: 4
Flags: W
AnchorPoint: "Anchor-2" -185 0 mark 0
LayerCount: 2
Fore
SplineSet
70 -597 m 1,0,1
 24 -638 24 -638 -43 -638 c 0,2,3
 -99 -638 -99 -638 -145 -599 c 0,4,5
 -194 -559 -194 -559 -194 -504 c 0,6,7
 -194 -470 -194 -470 -176 -438 c 1,8,9
 -260 -404 -260 -404 -260 -330 c 0,10,11
 -260 -269 -260 -269 -154 -201.5 c 128,-1,12
 -48 -134 -48 -134 -48 -95 c 0,13,14
 -48 -69 -48 -69 -70 -51 c 128,-1,15
 -92 -33 -92 -33 -115 -33 c 0,16,17
 -210 -33 -210 -33 -325 -218 c 1,18,-1
 -405 -165 l 1,19,-1
 -385 -135 l 2,20,21
 -376 -121 -376 -121 -360 -103 c 1,22,23
 -409 -48 -409 -48 -458 -48 c 0,24,25
 -521 -48 -521 -48 -556 -87 c 0,26,27
 -587 -121 -587 -121 -587 -172 c 0,28,29
 -587 -312 -587 -312 -365 -447 c 1,30,-1
 -390 -483 l 1,31,32
 -661 -311 -661 -311 -661 -125 c 0,33,34
 -661 -58 -661 -58 -622 -18 c 128,-1,35
 -583 22 -583 22 -515 22 c 0,36,37
 -422 22 -422 22 -337 -77 c 1,38,39
 -262 18 -262 18 -164 18 c 0,40,41
 -97 18 -97 18 -49.5 -25 c 128,-1,42
 -2 -68 -2 -68 -2 -128 c 0,43,44
 -2 -202 -2 -202 -107 -264.5 c 128,-1,45
 -212 -327 -212 -327 -212 -360 c 0,46,47
 -212 -403 -212 -403 -161 -403 c 0,48,49
 -119 -403 -119 -403 -13 -338 c 1,50,-1
 19 -420 l 1,51,52
 -149 -469 -149 -469 -149 -526 c 0,53,54
 -149 -568 -149 -568 -85 -568 c 0,55,56
 -20 -568 -20 -568 33 -525 c 1,57,-1
 70 -597 l 1,0,1
EndSplineSet
Validated: 1
EndChar

StartChar: tcedilla
Encoding: 2404 2404 187
Width: 938
GlyphClass: 1
Flags: W
LayerCount: 2
Fore
SplineSet
683 -3 m 1,0,-1
 553 93 l 1,1,-1
 553 1213 l 1,2,-1
 683 1125 l 1,3,-1
 683 -3 l 1,0,-1
EndSplineSet
Validated: 1
EndChar

StartChar: Tcaron
Encoding: 2405 2405 188
Width: 1360
GlyphClass: 1
Flags: W
LayerCount: 2
Fore
SplineSet
1100 -3 m 1,0,-1
 970 93 l 1,1,-1
 970 1213 l 1,2,-1
 1100 1125 l 1,3,-1
 1100 -3 l 1,0,-1
683 -3 m 1,4,-1
 553 93 l 1,5,-1
 553 1213 l 1,6,-1
 683 1125 l 1,7,-1
 683 -3 l 1,4,-1
EndSplineSet
Validated: 1
EndChar

StartChar: tcaron
Encoding: 2406 2406 189
Width: 935
GlyphClass: 1
Flags: W
LayerCount: 2
Fore
SplineSet
858 543 m 0,0,1
 858 413 858 413 772 333 c 0,2,3
 690 258 690 258 565 258 c 0,4,5
 412 258 412 258 287 379 c 0,6,7
 158 506 158 506 158 675 c 0,8,9
 158 798 158 798 240 875.5 c 128,-1,10
 322 953 322 953 450 953 c 0,11,12
 603 953 603 953 730.5 823.5 c 128,-1,13
 858 694 858 694 858 543 c 0,0,1
740 648 m 0,14,15
 740 735 740 735 684.5 789 c 128,-1,16
 629 843 629 843 543 843 c 0,17,18
 431 843 431 843 354.5 759.5 c 128,-1,19
 278 676 278 676 278 563 c 0,20,21
 278 478 278 478 329.5 418 c 128,-1,22
 381 358 381 358 460 358 c 0,23,24
 575 358 575 358 659 449 c 0,25,26
 740 537 740 537 740 648 c 0,14,15
EndSplineSet
Validated: 1
EndChar

StartChar: Tbar
Encoding: 2407 2407 190
Width: 805
GlyphClass: 1
Flags: W
LayerCount: 2
Fore
SplineSet
698 5 m 0,0,1
 698 -72 698 -72 618 -128 c 1,2,-1
 475 -25 l 1,3,4
 543 20 543 20 543 85 c 0,5,6
 543 135 543 135 464 210 c 0,7,8
 402 265 402 265 340 320 c 0,9,10
 275 383 275 383 123 518 c 1,11,12
 245 618 245 618 405 759 c 1,13,14
 145 895 145 895 145 1053 c 0,15,16
 145 1142 145 1142 204 1195 c 128,-1,17
 263 1248 263 1248 363 1248 c 0,18,19
 482 1248 482 1248 582 1168 c 0,20,21
 688 1084 688 1084 688 970 c 0,22,23
 688 832 688 832 518 659 c 0,24,25
 456 595 456 595 288 463 c 1,26,27
 346 408 346 408 438 318 c 0,28,29
 517 243 517 243 597 168 c 0,30,31
 698 67 698 67 698 5 c 0,0,1
555 1028 m 0,32,33
 555 1168 555 1168 433 1168 c 0,34,35
 370 1168 370 1168 329 1114 c 0,36,37
 291 1065 291 1065 291 1003 c 0,38,39
 291 869 291 869 445 803 c 1,40,41
 555 934 555 934 555 1028 c 0,32,33
EndSplineSet
Validated: 1
EndChar

StartChar: tbar
Encoding: 2408 2408 191
Width: 980
GlyphClass: 1
Flags: W
LayerCount: 2
Fore
SplineSet
893 786 m 0,0,1
 893 531 893 531 588 433 c 1,2,-1
 858 -33 l 1,3,-1
 778 -85 l 1,4,-1
 513 405 l 1,5,6
 478 400 478 400 445 400 c 0,7,8
 374 400 374 400 321 456.5 c 128,-1,9
 268 513 268 513 268 590 c 0,10,11
 268 700 268 700 373 700 c 0,12,13
 461 700 461 700 538 580 c 1,14,15
 788 672 788 672 788 871 c 0,16,17
 788 1124 788 1124 525 1124 c 0,18,19
 388 1124 388 1124 220 1001 c 1,20,-1
 123 1134 l 1,21,22
 284 1246 284 1246 438 1246 c 0,23,24
 635 1246 635 1246 768 1100 c 0,25,26
 893 963 893 963 893 786 c 0,0,1
EndSplineSet
Validated: 1
EndChar

StartChar: Utilde
Encoding: 2409 2409 192
Width: 958
GlyphClass: 1
Flags: W
LayerCount: 2
Fore
SplineSet
805 470 m 0,0,1
 805 244 805 244 549 159 c 1,2,-1
 753 -95 l 1,3,-1
 678 -155 l 1,4,-1
 474 141 l 1,5,6
 368 139 368 139 297.5 190.5 c 128,-1,7
 227 242 227 242 227 324 c 0,8,9
 227 367 227 367 257 396.5 c 128,-1,10
 287 426 287 426 332 426 c 0,11,12
 429 426 429 426 487 296 c 1,13,14
 566 308 566 308 626 373 c 0,15,16
 693 445 693 445 693 542 c 0,17,18
 693 649 693 649 570 722 c 1,19,20
 491 673 491 673 373 640 c 1,21,-1
 300 757 l 1,22,23
 648 864 648 864 648 1022 c 0,24,25
 648 1145 648 1145 493 1145 c 0,26,27
 383 1145 383 1145 245 1060 c 1,28,-1
 168 1177 l 1,29,30
 296 1247 296 1247 408 1247 c 0,31,32
 526 1247 526 1247 621 1170 c 0,33,34
 728 1084 728 1084 728 952 c 0,35,36
 728 818 728 818 620 757 c 1,37,38
 805 618 805 618 805 470 c 0,0,1
EndSplineSet
Validated: 33
EndChar

StartChar: utilde
Encoding: 2410 2410 193
Width: 1180
GlyphClass: 1
Flags: W
LayerCount: 2
Fore
SplineSet
1115 1127 m 1,0,-1
 700 661 l 1,1,-1
 788 565 l 2,2,3
 930 410 930 410 930 250 c 0,4,5
 930 130 930 130 848 60 c 0,6,7
 778 0 778 0 683 0 c 0,8,9
 549 0 549 0 426 99 c 0,10,11
 295 203 295 203 295 335 c 0,12,13
 295 464 295 464 408 583 c 2,14,-1
 533 714 l 1,15,-1
 135 1175 l 1,16,-1
 200 1242 l 1,17,-1
 593 777 l 1,18,-1
 1000 1242 l 1,19,-1
 1115 1127 l 1,0,-1
793 328 m 0,20,21
 793 438 793 438 685 553 c 2,22,-1
 641 600 l 1,23,-1
 525 480 l 2,24,25
 497 451 497 451 472 389 c 0,26,27
 443 317 443 317 443 255 c 0,28,29
 443 95 443 95 593 95 c 0,30,31
 686 95 686 95 744 179 c 0,32,33
 793 249 793 249 793 328 c 0,20,21
EndSplineSet
Validated: 1
EndChar

StartChar: Umacron
Encoding: 2411 2411 194
Width: 1118
GlyphClass: 1
Flags: W
LayerCount: 2
Fore
SplineSet
998 -58 m 1,0,-1
 915 -100 l 1,1,-1
 711 398 l 1,2,3
 628 358 628 358 530 358 c 0,4,5
 372 358 372 358 241 503.5 c 128,-1,6
 110 649 110 649 110 830 c 0,7,8
 110 1095 110 1095 330 1248 c 1,9,-1
 460 1133 l 1,10,11
 228 967 228 967 228 698 c 0,12,13
 228 601 228 601 286.5 537 c 128,-1,14
 345 473 345 473 435 473 c 0,15,16
 570 473 570 473 665 580 c 1,17,18
 628 630 628 630 628 665 c 0,19,20
 628 730 628 730 700 730 c 0,21,22
 766 730 766 730 824.5 693 c 128,-1,23
 883 656 883 656 883 615 c 0,24,25
 883 524 883 524 777 440 c 1,26,-1
 998 -58 l 1,0,-1
EndSplineSet
Validated: 1
EndChar

StartChar: umacron
Encoding: 2412 2412 195
Width: 1015
GlyphClass: 1
Flags: W
LayerCount: 2
Fore
SplineSet
928 -50 m 1,0,-1
 838 -95 l 1,1,-1
 713 225 l 1,2,3
 643 190 643 190 585 190 c 0,4,5
 426 190 426 190 300 313 c 0,6,7
 180 431 180 431 180 566 c 0,8,9
 180 691 180 691 271 768 c 1,10,11
 123 936 123 936 123 1041 c 0,12,13
 123 1148 123 1148 211 1204 c 0,14,15
 285 1251 285 1251 393 1251 c 0,16,17
 485 1251 485 1251 570 1231 c 1,18,-1
 648 1066 l 1,19,20
 541 1106 541 1106 423 1106 c 0,21,22
 329 1106 329 1106 277 1063 c 0,23,24
 233 1027 233 1027 233 974 c 0,25,26
 233 890 233 890 334 809 c 1,27,28
 407 844 407 844 495 844 c 0,29,30
 558 844 558 844 630 834 c 1,31,-1
 723 674 l 1,32,33
 606 691 606 691 520 691 c 0,34,35
 414 691 414 691 354 636 c 0,36,37
 298 584 298 584 298 499 c 0,38,39
 298 411 298 411 355 361 c 0,40,41
 405 318 405 318 478 318 c 0,42,43
 568 318 568 318 628 363 c 1,44,45
 600 420 600 420 600 458 c 0,46,47
 600 520 600 520 665 520 c 0,48,49
 706 520 706 520 772 475 c 0,50,51
 848 425 848 425 848 373 c 0,52,53
 848 317 848 317 775 260 c 1,54,-1
 928 -50 l 1,0,-1
EndSplineSet
Validated: 1
EndChar

StartChar: Ubreve
Encoding: 2413 2413 196
Width: 1265
GlyphClass: 1
Flags: W
LayerCount: 2
Fore
SplineSet
1183 520 m 0,0,1
 1183 311 1183 311 1073 162 c 0,2,3
 955 0 955 0 768 0 c 0,4,5
 536 0 536 0 375 214 c 0,6,7
 235 400 235 400 167 720 c 0,8,9
 112 977 112 977 100 1199 c 1,10,-1
 192 1218 l 1,11,12
 234 656 234 656 367 432 c 0,13,14
 533 151 533 151 745 151 c 0,15,16
 895 151 895 151 981 309 c 0,17,18
 1042 423 1042 423 1053 570 c 1,19,20
 985 511 985 511 864 511 c 0,21,22
 748 511 748 511 658.5 592.5 c 128,-1,23
 569 674 569 674 569 780 c 0,24,25
 569 892 569 892 641 957 c 128,-1,26
 713 1022 713 1022 831 1022 c 0,27,28
 990 1022 990 1022 1092 859 c 0,29,30
 1183 711 1183 711 1183 520 c 0,0,1
1048 661 m 1,31,32
 1048 760 1048 760 1018 820 c 0,33,34
 994 868 994 868 952 906 c 0,35,36
 902 951 902 951 857 951 c 0,37,38
 791 951 791 951 750 895 c 0,39,40
 713 843 713 843 713 766 c 0,41,42
 713 685 713 685 763 627.5 c 128,-1,43
 813 570 813 570 883 570 c 0,44,45
 972 570 972 570 1048 661 c 1,31,32
EndSplineSet
Validated: 1
EndChar

StartChar: ubreve
Encoding: 2414 2414 197
Width: 993
GlyphClass: 1
Flags: W
LayerCount: 2
Fore
SplineSet
885 1137 m 1,0,-1
 313 559 l 2,1,2
 284 530 284 530 253 463 c 0,3,4
 215 380 215 380 215 315 c 0,5,6
 215 215 215 215 276 155 c 0,7,8
 330 103 330 103 405 103 c 0,9,10
 609 103 609 103 725 313 c 1,11,-1
 851 193 l 1,12,13
 725 0 725 0 516 0 c 0,14,15
 366 0 366 0 238 111 c 0,16,17
 103 229 103 229 103 388 c 0,18,19
 103 462 103 462 138 546 c 0,20,21
 169 623 169 623 210 664 c 2,22,-1
 785 1239 l 1,23,-1
 885 1137 l 1,0,-1
EndSplineSet
Validated: 1
EndChar

StartChar: Uring
Encoding: 2415 2415 198
Width: 935
GlyphClass: 1
Flags: W
LayerCount: 2
Fore
SplineSet
823 88 m 0,0,1
 823 -25 823 -25 723 -90 c 1,2,-1
 586 12 l 1,3,4
 681 75 681 75 681 150 c 0,5,6
 681 206 681 206 609 289 c 1,7,8
 523 380 523 380 436 470 c 0,9,10
 125 798 125 798 125 994 c 0,11,12
 125 1120 125 1120 204 1186 c 0,13,14
 276 1246 276 1246 400 1246 c 0,15,16
 530 1246 530 1246 644.5 1128.5 c 128,-1,17
 759 1011 759 1011 759 872 c 0,18,19
 759 766 759 766 698 704 c 0,20,21
 633 639 633 639 512 639 c 0,22,23
 442 639 442 639 358 667 c 1,24,25
 405 612 405 612 593 413 c 1,26,27
 823 179 823 179 823 88 c 0,0,1
631 983 m 0,28,29
 631 1042 631 1042 593.5 1087 c 128,-1,30
 556 1132 556 1132 503 1132 c 0,31,32
 398 1132 398 1132 327 1049 c 0,33,34
 260 970 260 970 260 864 c 0,35,36
 260 794 260 794 315 739 c 1,37,38
 357 729 357 729 384 729 c 0,39,40
 492 729 492 729 561.5 801.5 c 128,-1,41
 631 874 631 874 631 983 c 0,28,29
EndSplineSet
Validated: 1
EndChar

StartChar: uring
Encoding: 2416 2416 199
Width: 598
GlyphClass: 4
Flags: W
LayerCount: 2
Fore
SplineSet
527 1018 m 0,0,1
 527 924 527 924 457 845 c 0,2,3
 384 763 384 763 290 763 c 0,4,5
 208 763 208 763 158 815 c 128,-1,6
 108 867 108 867 108 943 c 0,7,8
 108 1041 108 1041 180.5 1118 c 128,-1,9
 253 1195 253 1195 347 1195 c 0,10,11
 427 1195 427 1195 477 1144 c 128,-1,12
 527 1093 527 1093 527 1018 c 0,0,1
451 970 m 0,13,14
 451 1033 451 1033 408 1084 c 128,-1,15
 365 1135 365 1135 303 1135 c 0,16,17
 247 1135 247 1135 213 1097 c 0,18,19
 183 1062 183 1062 183 1012 c 0,20,21
 183 939 183 939 226 886 c 0,22,23
 270 830 270 830 335 830 c 0,24,25
 384 830 384 830 417.5 872 c 128,-1,26
 451 914 451 914 451 970 c 0,13,14
EndSplineSet
Validated: 1
EndChar

StartChar: Udblacute
Encoding: 65539 -1 200
Width: 915
GlyphClass: 1
Flags: W
LayerCount: 2
Fore
SplineSet
1110 800 m 1,0,-1
 1085 695 l 1,1,2
 1066 698 1066 698 1053 698 c 0,3,4
 934 698 934 698 798 573 c 1,5,-1
 798 -3 l 1,6,-1
 668 95 l 1,7,-1
 668 420 l 1,8,9
 552 313 552 313 415 313 c 0,10,11
 284 313 284 313 185 425 c 0,12,13
 90 533 90 533 90 665 c 0,14,15
 90 778 90 778 160 840 c 0,16,17
 227 900 227 900 343 900 c 0,18,19
 512 900 512 900 668 693 c 1,20,-1
 668 1063 l 1,21,-1
 0 1063 l 1,22,-1
 -90 1193 l 1,23,-1
 915 1193 l 1,24,-1
 1003 1063 l 1,25,-1
 798 1063 l 1,26,-1
 798 740 l 1,27,28
 922 823 922 823 1018 823 c 0,29,30
 1064 823 1064 823 1110 800 c 1,0,-1
668 593 m 1,31,32
 568 763 568 763 383 763 c 0,33,34
 300 763 300 763 243 723 c 0,35,36
 178 679 178 679 178 600 c 0,37,38
 178 529 178 529 219 483 c 0,39,40
 266 433 266 433 348 433 c 0,41,42
 512 433 512 433 668 593 c 1,31,32
EndSplineSet
Validated: 1
Ligature2: "'half' Half Forms in Devanagari lookup 5 subtable" emacron eng
EndChar

StartChar: udblacute
Encoding: 65540 -1 201
Width: 955
GlyphClass: 1
Flags: W
LayerCount: 2
Fore
SplineSet
1123 483 m 1,0,1
 1009 382 1009 382 870 382 c 0,2,3
 746 382 746 382 657 461 c 128,-1,4
 568 540 568 540 568 652 c 0,5,6
 568 766 568 766 646 835 c 0,7,8
 721 903 721 903 840 903 c 0,9,10
 982 903 982 903 1123 703 c 1,11,-1
 1123 483 l 1,0,1
1123 200 m 1,12,13
 934 68 934 68 728 68 c 0,14,15
 570 68 570 68 408 180 c 0,16,17
 268 278 268 278 169 424 c 0,18,19
 75 562 75 562 75 655 c 0,20,21
 75 705 75 705 120 705 c 0,22,23
 143 705 143 705 179 686.5 c 128,-1,24
 215 668 215 668 233 668 c 0,25,26
 283 668 283 668 283 720 c 2,27,-1
 283 1063 l 1,28,-1
 0 1063 l 1,29,-1
 -88 1193 l 1,30,-1
 955 1193 l 1,31,-1
 1043 1063 l 1,32,-1
 415 1063 l 1,33,-1
 415 688 l 2,34,35
 415 575 415 575 365 528 c 0,36,37
 319 484 319 484 225 478 c 1,38,39
 357 193 357 193 703 193 c 0,40,41
 928 193 928 193 1123 343 c 1,42,-1
 1123 200 l 1,12,13
1115 637 m 1,43,44
 1002 783 1002 783 828 783 c 0,45,46
 753 783 753 783 697 744 c 0,47,48
 638 703 638 703 638 642 c 0,49,50
 638 584 638 584 688 544 c 128,-1,51
 738 504 738 504 813 504 c 0,52,53
 970 504 970 504 1115 637 c 1,43,44
EndSplineSet
Validated: 1
Ligature2: "'half' Half Forms in Devanagari lookup 5 subtable" Ebreve eng
EndChar

StartChar: Uogonek
Encoding: 65541 -1 202
Width: 570
GlyphClass: 1
Flags: W
LayerCount: 2
Fore
SplineSet
658 1063 m 1,0,-1
 368 1063 l 1,1,-1
 368 498 l 2,2,3
 368 405 368 405 298 405 c 0,4,5
 251 405 251 405 169.5 494.5 c 128,-1,6
 88 584 88 584 88 635 c 0,7,8
 88 688 88 688 158 688 c 2,9,-1
 238 688 l 1,10,-1
 238 1063 l 1,11,-1
 -3 1063 l 1,12,-1
 -90 1193 l 1,13,-1
 570 1193 l 1,14,-1
 658 1063 l 1,0,-1
EndSplineSet
Validated: 1
Ligature2: "'half' Half Forms in Devanagari lookup 5 subtable" ebreve eng
EndChar

StartChar: uogonek
Encoding: 65542 -1 203
Width: 615
GlyphClass: 1
Flags: W
LayerCount: 2
Fore
SplineSet
785 358 m 1,0,1
 641 230 641 230 485 230 c 0,2,3
 355 230 355 230 245 335 c 0,4,5
 138 437 138 437 138 548 c 0,6,7
 138 679 138 679 272 756 c 1,8,9
 105 869 105 869 105 958 c 0,10,11
 105 1027 105 1027 145 1063 c 1,12,-1
 -3 1063 l 1,13,-1
 -90 1193 l 1,14,-1
 615 1193 l 1,15,-1
 703 1063 l 1,16,-1
 313 1063 l 1,17,18
 233 1008 233 1008 233 915 c 0,19,20
 233 841 233 841 336 786 c 1,21,22
 386 806 386 806 443 817 c 0,23,24
 470 823 470 823 490 825 c 1,25,-1
 558 713 l 1,26,27
 228 666 228 666 228 490 c 0,28,29
 228 436 228 436 267 390 c 0,30,31
 317 333 317 333 403 333 c 0,32,33
 542 333 542 333 785 536 c 1,34,-1
 785 358 l 1,0,1
EndSplineSet
Validated: 1
Ligature2: "'half' Half Forms in Devanagari lookup 5 subtable" Edot eng
EndChar

StartChar: Wcircumflex
Encoding: 65543 -1 204
Width: 1290
GlyphClass: 1
Flags: W
LayerCount: 2
Fore
SplineSet
1210 678 m 1,0,-1
 1098 565 l 1,1,-1
 985 678 l 1,2,-1
 1098 790 l 1,3,-1
 1210 678 l 1,0,-1
1375 1063 m 1,4,-1
 870 1063 l 1,5,-1
 870 780 l 1,6,-1
 475 780 l 2,7,8
 363 780 363 780 363 663 c 0,9,10
 363 548 363 548 460 548 c 0,11,12
 489 548 489 548 601 578 c 128,-1,13
 713 608 713 608 748 608 c 0,14,15
 843 608 843 608 916 509 c 0,16,17
 985 415 985 415 985 303 c 0,18,19
 985 181 985 181 889 102 c 0,20,21
 799 28 799 28 678 28 c 0,22,23
 468 28 468 28 220 300 c 0,24,25
 163 363 163 363 63 495 c 1,26,-1
 118 530 l 1,27,28
 156 476 156 476 255 358 c 1,29,30
 435 163 435 163 600 163 c 0,31,32
 721 163 721 163 809.5 232.5 c 128,-1,33
 898 302 898 302 898 393 c 0,34,35
 898 478 898 478 830 478 c 0,36,37
 805 478 805 478 694 444 c 128,-1,38
 583 410 583 410 538 410 c 0,39,40
 447 410 447 410 346 524.5 c 128,-1,41
 245 639 245 639 245 750 c 0,42,43
 245 816 245 816 295.5 863 c 128,-1,44
 346 910 346 910 428 910 c 2,45,-1
 740 910 l 1,46,-1
 740 1063 l 1,47,-1
 0 1063 l 1,48,-1
 -90 1193 l 1,49,-1
 1290 1193 l 1,50,-1
 1375 1063 l 1,4,-1
1187 -490 m 1,51,-1
 1157 -518 l 1,52,53
 1115 -465 1115 -465 1005 -340 c 1,54,55
 919 -249 919 -249 898 -231 c 0,56,57
 831 -175 831 -175 765 -175 c 0,58,59
 711 -175 711 -175 657 -213 c 1,60,-1
 570 -95 l 1,61,62
 634 -60 634 -60 692 -60 c 0,63,64
 781 -60 781 -60 887 -151 c 0,65,66
 947 -202 947 -202 1055 -328 c 0,67,68
 1096 -376 1096 -376 1187 -490 c 1,51,-1
EndSplineSet
Validated: 1
Ligature2: "'half' Half Forms in Devanagari lookup 5 subtable" edot eng
EndChar

StartChar: wcircumflex
Encoding: 65544 -1 205
Width: 760
GlyphClass: 1
Flags: W
LayerCount: 2
Fore
SplineSet
848 1063 m 1,0,-1
 -3 1063 l 1,1,-1
 -90 1193 l 1,2,-1
 760 1193 l 1,3,-1
 848 1063 l 1,0,-1
930 408 m 1,4,5
 785 263 785 263 650 263 c 0,6,7
 529 263 529 263 408.5 373 c 128,-1,8
 288 483 288 483 288 593 c 0,9,10
 288 681 288 681 353 755 c 1,11,-1
 190 755 l 1,12,-1
 110 868 l 1,13,-1
 698 868 l 1,14,-1
 778 755 l 1,15,-1
 570 755 l 1,16,17
 410 669 410 669 410 523 c 0,18,19
 410 454 410 454 461 406 c 0,20,21
 508 360 508 360 568 360 c 0,22,23
 716 360 716 360 930 580 c 1,24,-1
 930 408 l 1,4,5
EndSplineSet
Validated: 1
Ligature2: "'half' Half Forms in Devanagari lookup 5 subtable" Eogonek eng
EndChar

StartChar: Ycircumflex
Encoding: 65545 -1 206
Width: 1215
GlyphClass: 1
Flags: W
LayerCount: 2
Fore
SplineSet
1303 1063 m 1,0,-1
 925 1063 l 1,1,-1
 925 927 l 1,2,3
 1014 893 1014 893 1066 802 c 128,-1,4
 1118 711 1118 711 1118 595 c 0,5,6
 1118 356 1118 356 963 190 c 0,7,8
 804 20 804 20 563 20 c 0,9,10
 416 20 416 20 286 125 c 0,11,12
 153 232 153 232 153 363 c 0,13,14
 153 460 153 460 221 527 c 1,15,16
 78 642 78 642 78 748 c 0,17,18
 78 830 78 830 140 877 c 0,19,20
 198 920 198 920 288 920 c 0,21,22
 362 920 362 920 438 900 c 1,23,-1
 488 775 l 1,24,25
 391 803 391 803 310 803 c 0,26,27
 253 803 253 803 215 772 c 0,28,29
 175 738 175 738 175 683 c 0,30,31
 175 624 175 624 273 566 c 1,32,33
 353 613 353 613 460 620 c 1,34,-1
 520 488 l 1,35,36
 440 488 440 488 357 449 c 0,37,38
 245 396 245 396 245 305 c 0,39,40
 245 223 245 223 327 173 c 0,41,42
 400 130 400 130 498 130 c 0,43,44
 757 130 757 130 907 364 c 1,45,46
 620 577 620 577 620 750 c 0,47,48
 620 922 620 922 793 943 c 1,49,-1
 793 1063 l 1,50,-1
 -3 1063 l 1,51,-1
 -90 1193 l 1,52,-1
 1215 1193 l 1,53,-1
 1303 1063 l 1,0,-1
1081 -490 m 1,54,-1
 1051 -518 l 1,55,56
 1009 -465 1009 -465 899 -340 c 1,57,58
 813 -249 813 -249 792 -231 c 0,59,60
 725 -175 725 -175 659 -175 c 0,61,62
 605 -175 605 -175 551 -213 c 1,63,-1
 464 -95 l 1,64,65
 528 -60 528 -60 586 -60 c 0,66,67
 675 -60 675 -60 781 -151 c 0,68,69
 841 -202 841 -202 949 -328 c 0,70,71
 990 -376 990 -376 1081 -490 c 1,54,-1
1003 698 m 0,72,73
 1003 888 1003 888 875 888 c 0,74,75
 829 888 829 888 799.5 840 c 128,-1,76
 770 792 770 792 770 713 c 0,77,78
 770 539 770 539 940 422 c 1,79,80
 1003 550 1003 550 1003 698 c 0,72,73
EndSplineSet
Validated: 1
Ligature2: "'half' Half Forms in Devanagari lookup 5 subtable" eogonek eng
EndChar

StartChar: ycircumflex
Encoding: 65546 -1 207
Width: 803
GlyphClass: 1
Flags: W
LayerCount: 2
Fore
SplineSet
890 1063 m 1,0,-1
 -3 1063 l 1,1,-1
 -90 1193 l 1,2,-1
 803 1193 l 1,3,-1
 890 1063 l 1,0,-1
963 723 m 1,4,-1
 583 723 l 1,5,6
 710 580 710 580 710 478 c 0,7,8
 710 285 710 285 518 285 c 0,9,10
 276 285 276 285 65 778 c 1,11,-1
 118 805 l 1,12,13
 277 405 277 405 435 405 c 0,14,15
 590 405 590 405 590 543 c 0,16,17
 590 691 590 691 390 820 c 1,18,-1
 408 853 l 1,19,-1
 963 853 l 1,20,-1
 963 723 l 1,4,-1
EndSplineSet
Validated: 1
Ligature2: "'half' Half Forms in Devanagari lookup 5 subtable" Ecaron eng
EndChar

StartChar: Ydieresis
Encoding: 65547 -1 208
Width: 790
GlyphClass: 1
Flags: W
LayerCount: 2
Fore
SplineSet
990 510 m 1,0,1
 927 463 927 463 858 463 c 0,2,3
 793 463 793 463 715 510 c 1,4,5
 753 439 753 439 753 360 c 0,6,7
 753 268 753 268 642 192 c 0,8,9
 552 130 552 130 438 105 c 1,10,-1
 638 -93 l 1,11,-1
 570 -155 l 1,12,-1
 365 93 l 1,13,14
 279 93 279 93 207 145 c 0,15,16
 130 201 130 201 130 278 c 0,17,18
 130 353 130 353 220 353 c 0,19,20
 300 353 300 353 368 233 c 1,21,22
 441 233 441 233 555 291 c 0,23,24
 688 360 688 360 688 438 c 0,25,26
 688 475 688 475 665.5 500 c 128,-1,27
 643 525 643 525 613 525 c 0,28,29
 587 525 587 525 494 489 c 128,-1,30
 401 453 401 453 363 453 c 0,31,32
 268 453 268 453 181 571 c 0,33,34
 100 681 100 681 100 778 c 0,35,36
 100 903 100 903 255 903 c 2,37,-1
 558 903 l 1,38,-1
 558 1063 l 1,39,-1
 3 1063 l 1,40,-1
 -83 1193 l 1,41,-1
 790 1193 l 1,42,-1
 878 1063 l 1,43,-1
 690 1063 l 1,44,-1
 690 780 l 1,45,-1
 285 780 l 2,46,47
 198 780 198 780 198 690 c 0,48,49
 198 643 198 643 227 602 c 0,50,51
 258 558 258 558 303 558 c 0,52,53
 325 558 325 558 419.5 591.5 c 128,-1,54
 514 625 514 625 558 625 c 0,55,56
 618 625 618 625 668 576 c 1,57,58
 715 563 715 563 773 563 c 0,59,60
 884 563 884 563 990 663 c 1,61,-1
 990 510 l 1,0,1
EndSplineSet
Validated: 1
Ligature2: "'half' Half Forms in Devanagari lookup 5 subtable" ecaron eng
EndChar

StartChar: Zacute
Encoding: 65548 -1 209
Width: 810
GlyphClass: 1
Flags: W
LayerCount: 2
Fore
SplineSet
898 1063 m 1,0,-1
 -3 1063 l 1,1,-1
 -90 1193 l 1,2,-1
 810 1193 l 1,3,-1
 898 1063 l 1,0,-1
985 535 m 1,4,5
 947 518 947 518 910 518 c 0,6,7
 867 518 867 518 815 561 c 1,8,-1
 815 555 l 2,9,10
 817 434 817 434 742.5 363.5 c 128,-1,11
 668 293 668 293 548 293 c 0,12,13
 325 293 325 293 80 608 c 1,14,-1
 123 643 l 1,15,16
 286 398 286 398 463 398 c 0,17,18
 567 398 567 398 636 470 c 128,-1,19
 705 542 705 542 705 655 c 0,20,21
 705 702 705 702 670 736 c 128,-1,22
 635 770 635 770 580 770 c 0,23,24
 499 770 499 770 415 655 c 1,25,-1
 303 763 l 1,26,27
 399 860 399 860 518 860 c 0,28,29
 598 860 598 860 680.5 796 c 128,-1,30
 763 732 763 732 797 644 c 1,31,32
 846 628 846 628 863 628 c 0,33,34
 928 628 928 628 985 670 c 1,35,-1
 985 535 l 1,4,5
EndSplineSet
Validated: 33
Ligature2: "'half' Half Forms in Devanagari lookup 5 subtable" Gcircumflex eng
EndChar

StartChar: zacute
Encoding: 65549 -1 210
Width: 960
GlyphClass: 1
Flags: W
LayerCount: 2
Fore
SplineSet
1048 1063 m 1,0,-1
 700 1063 l 1,1,-1
 700 830 l 2,2,3
 700 749 700 749 563 691 c 1,4,5
 435 642 435 642 307 593 c 1,6,7
 170 526 170 526 170 425 c 0,8,9
 170 310 170 310 259 233 c 0,10,11
 343 160 343 160 455 160 c 0,12,13
 648 160 648 160 818 308 c 1,14,-1
 903 185 l 1,15,16
 725 30 725 30 533 30 c 0,17,18
 370 30 370 30 217.5 176 c 128,-1,19
 65 322 65 322 65 475 c 0,20,21
 65 611 65 611 196 694 c 0,22,23
 250 728 250 728 439 795 c 0,24,25
 570 841 570 841 570 890 c 2,26,-1
 570 1063 l 1,27,-1
 -3 1063 l 1,28,-1
 -90 1193 l 1,29,-1
 960 1193 l 1,30,-1
 1048 1063 l 1,0,-1
960 -490 m 1,31,-1
 930 -518 l 1,32,33
 888 -465 888 -465 778 -340 c 1,34,35
 692 -249 692 -249 671 -231 c 0,36,37
 604 -175 604 -175 538 -175 c 0,38,39
 484 -175 484 -175 430 -213 c 1,40,-1
 343 -95 l 1,41,42
 407 -60 407 -60 465 -60 c 0,43,44
 554 -60 554 -60 660 -151 c 0,45,46
 720 -202 720 -202 828 -328 c 0,47,48
 869 -376 869 -376 960 -490 c 1,31,-1
EndSplineSet
Validated: 1
Ligature2: "'half' Half Forms in Devanagari lookup 5 subtable" gcircumflex eng
EndChar

StartChar: Zdot
Encoding: 65550 -1 211
Width: 1000
GlyphClass: 1
Flags: W
LayerCount: 2
Fore
SplineSet
1088 1063 m 1,0,-1
 700 1063 l 1,1,-1
 700 830 l 2,2,3
 700 749 700 749 563 691 c 1,4,5
 435 642 435 642 307 593 c 1,6,7
 170 526 170 526 170 425 c 0,8,9
 170 323 170 323 252 236.5 c 128,-1,10
 334 150 334 150 433 150 c 0,11,12
 558 150 558 150 671 240 c 0,13,14
 788 333 788 333 788 443 c 0,15,16
 788 566 788 566 618 643 c 1,17,-1
 690 728 l 1,18,19
 903 552 903 552 903 350 c 0,20,21
 903 213 903 213 791 121.5 c 128,-1,22
 679 30 679 30 518 30 c 256,23,24
 357 30 357 30 213 166 c 0,25,26
 65 307 65 307 65 475 c 0,27,28
 65 611 65 611 196 694 c 0,29,30
 250 728 250 728 439 795 c 0,31,32
 570 841 570 841 570 890 c 2,33,-1
 570 1063 l 1,34,-1
 -3 1063 l 1,35,-1
 -90 1193 l 1,36,-1
 1000 1193 l 1,37,-1
 1088 1063 l 1,0,-1
1000 -490 m 1,38,-1
 970 -518 l 1,39,40
 928 -465 928 -465 818 -340 c 1,41,42
 732 -249 732 -249 711 -231 c 0,43,44
 644 -175 644 -175 578 -175 c 0,45,46
 524 -175 524 -175 470 -213 c 1,47,-1
 383 -95 l 1,48,49
 447 -60 447 -60 505 -60 c 0,50,51
 594 -60 594 -60 700 -151 c 0,52,53
 760 -202 760 -202 868 -328 c 0,54,55
 909 -376 909 -376 1000 -490 c 1,38,-1
EndSplineSet
Validated: 1
Ligature2: "'half' Half Forms in Devanagari lookup 5 subtable" Gbreve eng
EndChar

StartChar: zdot
Encoding: 65551 -1 212
Width: 1080
GlyphClass: 1
Flags: W
LayerCount: 2
Fore
SplineSet
1165 1063 m 1,0,-1
 870 1063 l 1,1,-1
 870 780 l 1,2,-1
 475 780 l 2,3,4
 363 780 363 780 363 663 c 0,5,6
 363 548 363 548 460 548 c 0,7,8
 489 548 489 548 601 578 c 128,-1,9
 713 608 713 608 748 608 c 0,10,11
 843 608 843 608 916 509 c 0,12,13
 985 415 985 415 985 303 c 0,14,15
 985 181 985 181 889 102 c 0,16,17
 799 28 799 28 678 28 c 0,18,19
 468 28 468 28 220 300 c 0,20,21
 163 363 163 363 63 495 c 1,22,-1
 118 530 l 1,23,24
 156 476 156 476 255 358 c 1,25,26
 435 163 435 163 600 163 c 0,27,28
 721 163 721 163 809.5 232.5 c 128,-1,29
 898 302 898 302 898 393 c 0,30,31
 898 478 898 478 830 478 c 0,32,33
 805 478 805 478 694 444 c 128,-1,34
 583 410 583 410 538 410 c 0,35,36
 447 410 447 410 346 524.5 c 128,-1,37
 245 639 245 639 245 750 c 0,38,39
 245 816 245 816 295.5 863 c 128,-1,40
 346 910 346 910 428 910 c 2,41,-1
 740 910 l 1,42,-1
 740 1063 l 1,43,-1
 0 1063 l 1,44,-1
 -90 1193 l 1,45,-1
 1080 1193 l 1,46,-1
 1165 1063 l 1,0,-1
1080 -490 m 1,47,-1
 1050 -518 l 1,48,49
 1008 -465 1008 -465 898 -340 c 1,50,51
 812 -249 812 -249 791 -231 c 0,52,53
 724 -175 724 -175 658 -175 c 0,54,55
 604 -175 604 -175 550 -213 c 1,56,-1
 463 -95 l 1,57,58
 527 -60 527 -60 585 -60 c 0,59,60
 674 -60 674 -60 780 -151 c 0,61,62
 840 -202 840 -202 948 -328 c 0,63,64
 989 -376 989 -376 1080 -490 c 1,47,-1
EndSplineSet
Validated: 1
Ligature2: "'half' Half Forms in Devanagari lookup 5 subtable" gbreve eng
EndChar

StartChar: Zcaron
Encoding: 65552 -1 213
Width: 970
GlyphClass: 1
Flags: W
LayerCount: 2
Fore
SplineSet
1060 1063 m 1,0,-1
 750 1063 l 1,1,-1
 750 730 l 1,2,-1
 420 730 l 2,3,4
 183 730 183 730 183 485 c 0,5,6
 183 366 183 366 264 280 c 0,7,8
 335 204 335 204 445 175 c 1,9,10
 375 281 375 281 375 370 c 0,11,12
 375 457 375 457 423 513 c 0,13,14
 483 583 483 583 603 583 c 0,15,16
 704 583 704 583 781 495.5 c 128,-1,17
 858 408 858 408 858 298 c 0,18,19
 858 174 858 174 782.5 103.5 c 128,-1,20
 707 33 707 33 585 33 c 0,21,22
 415 33 415 33 244 201 c 0,23,24
 63 380 63 380 63 588 c 0,25,26
 63 718 63 718 152 792 c 0,27,28
 232 858 232 858 353 858 c 2,29,-1
 618 858 l 1,30,-1
 618 1063 l 1,31,-1
 -3 1063 l 1,32,-1
 -90 1193 l 1,33,-1
 970 1193 l 1,34,-1
 1060 1063 l 1,0,-1
970 -490 m 1,35,-1
 940 -518 l 1,36,37
 898 -465 898 -465 788 -340 c 1,38,39
 702 -249 702 -249 681 -231 c 0,40,41
 614 -175 614 -175 548 -175 c 0,42,43
 494 -175 494 -175 440 -213 c 1,44,-1
 353 -95 l 1,45,46
 417 -60 417 -60 475 -60 c 0,47,48
 564 -60 564 -60 670 -151 c 0,49,50
 730 -202 730 -202 838 -328 c 0,51,52
 879 -376 879 -376 970 -490 c 1,35,-1
783 365 m 0,53,54
 783 418 783 418 750 448 c 0,55,56
 720 475 720 475 678 475 c 0,57,58
 591 475 591 475 533 417.5 c 128,-1,59
 475 360 475 360 475 273 c 0,60,61
 475 209 475 209 508 164 c 1,62,63
 525 163 525 163 543 163 c 0,64,65
 622 163 622 163 698 219 c 0,66,67
 783 281 783 281 783 365 c 0,53,54
EndSplineSet
Validated: 1
Ligature2: "'half' Half Forms in Devanagari lookup 5 subtable" Gdot eng
EndChar

StartChar: zcaron
Encoding: 65553 -1 214
Width: 815
GlyphClass: 1
Flags: W
LayerCount: 2
Fore
SplineSet
903 1063 m 1,0,-1
 693 1063 l 1,1,-1
 693 585 l 2,2,3
 693 488 693 488 631 428 c 128,-1,4
 569 368 569 368 473 368 c 0,5,6
 364 368 364 368 256 448 c 0,7,8
 138 537 138 537 138 653 c 2,9,-1
 138 1063 l 1,10,-1
 -3 1063 l 1,11,-1
 -90 1193 l 1,12,-1
 815 1193 l 1,13,-1
 903 1063 l 1,0,-1
560 600 m 2,14,-1
 560 1063 l 1,15,-1
 268 1063 l 1,16,-1
 268 595 l 2,17,18
 268 448 268 448 398 448 c 0,19,20
 471 448 471 448 515.5 488.5 c 128,-1,21
 560 529 560 529 560 600 c 2,14,-1
EndSplineSet
Validated: 1
Ligature2: "'half' Half Forms in Devanagari lookup 5 subtable" gdot eng
EndChar

StartChar: longs
Encoding: 65554 -1 215
Width: 593
GlyphClass: 1
Flags: W
LayerCount: 2
Fore
SplineSet
680 1063 m 1,0,-1
 0 1063 l 1,1,-1
 -90 1193 l 1,2,-1
 593 1193 l 1,3,-1
 680 1063 l 1,0,-1
758 723 m 1,4,-1
 378 723 l 2,5,6
 203 723 203 723 203 545 c 0,7,8
 203 324 203 324 455 85 c 1,9,-1
 403 38 l 1,10,11
 80 400 80 400 80 623 c 0,12,13
 80 853 80 853 338 853 c 2,14,-1
 758 853 l 1,15,-1
 758 723 l 1,4,-1
EndSplineSet
Validated: 1
Ligature2: "'half' Half Forms in Devanagari lookup 5 subtable" Gcedilla eng
EndChar

StartChar: gcedilla_eng.half
Encoding: 65555 -1 216
Width: 653
GlyphClass: 1
Flags: W
LayerCount: 2
Fore
SplineSet
823 430 m 1,0,1
 686 295 686 295 505 295 c 0,2,3
 284 295 284 295 80 625 c 1,4,5
 265 706 265 706 327 748 c 0,6,7
 498 860 498 860 498 998 c 0,8,9
 498 1070 498 1070 458 1113 c 0,10,11
 422 1153 422 1153 370 1153 c 0,12,13
 306 1153 306 1153 264.5 1100.5 c 128,-1,14
 223 1048 223 1048 223 980 c 0,15,16
 223 862 223 862 340 813 c 1,17,-1
 315 778 l 1,18,19
 235 812 235 812 175 875 c 0,20,21
 100 953 100 953 100 1038 c 0,22,23
 100 1109 100 1109 144 1154 c 0,24,25
 196 1208 196 1208 298 1208 c 0,26,27
 427 1208 427 1208 514 1120 c 0,28,29
 598 1037 598 1037 598 923 c 0,30,31
 598 822 598 822 519 738 c 0,32,33
 461 676 461 676 354 618 c 0,34,35
 282 581 282 581 210 545 c 1,36,37
 300 400 300 400 425 400 c 0,38,39
 625 400 625 400 823 605 c 1,40,-1
 823 430 l 1,0,1
EndSplineSet
Validated: 1
Ligature2: "'half' Half Forms in Devanagari lookup 5 subtable" gcedilla eng
EndChar

StartChar: florin
Encoding: 65556 -1 217
Width: 898
GlyphClass: 1
Flags: W
LayerCount: 2
Fore
SplineSet
985 1063 m 1,0,-1
 703 1063 l 1,1,-1
 703 735 l 1,2,-1
 325 735 l 2,3,4
 262 735 262 735 222.5 692 c 128,-1,5
 183 649 183 649 183 575 c 0,6,7
 183 472 183 472 251 393 c 0,8,9
 324 310 324 310 428 310 c 0,10,11
 490 310 490 310 538 335 c 1,12,13
 485 396 485 396 485 443 c 256,14,15
 485 490 485 490 543 490 c 0,16,17
 597 490 597 490 672.5 443.5 c 128,-1,18
 748 397 748 397 748 358 c 0,19,20
 748 299 748 299 663 245 c 1,21,-1
 795 -70 l 1,22,-1
 718 -108 l 1,23,-1
 598 208 l 1,24,25
 554 188 554 188 503 188 c 0,26,27
 359 188 359 188 213.5 342 c 128,-1,28
 68 496 68 496 68 638 c 0,29,30
 68 745 68 745 136 805 c 0,31,32
 200 860 200 860 303 860 c 2,33,-1
 570 860 l 1,34,-1
 570 1063 l 1,35,-1
 -5 1063 l 1,36,-1
 -93 1193 l 1,37,-1
 898 1193 l 1,38,-1
 985 1063 l 1,0,-1
960 -490 m 1,39,-1
 930 -518 l 1,40,41
 888 -465 888 -465 778 -340 c 1,42,43
 692 -249 692 -249 671 -231 c 0,44,45
 604 -175 604 -175 538 -175 c 0,46,47
 484 -175 484 -175 430 -213 c 1,48,-1
 343 -95 l 1,49,50
 407 -60 407 -60 465 -60 c 0,51,52
 554 -60 554 -60 660 -151 c 0,53,54
 720 -202 720 -202 828 -328 c 0,55,56
 869 -376 869 -376 960 -490 c 1,39,-1
EndSplineSet
Validated: 1
Ligature2: "'half' Half Forms in Devanagari lookup 5 subtable" Hcircumflex eng
EndChar

StartChar: Aringacute
Encoding: 65557 -1 218
Width: 645
GlyphClass: 1
Flags: W
LayerCount: 2
Fore
SplineSet
815 383 m 1,0,1
 678 275 678 275 550 275 c 0,2,3
 416 275 416 275 289 374 c 0,4,5
 155 477 155 477 155 600 c 0,6,7
 155 709 155 709 265 786 c 1,8,9
 100 955 100 955 100 1058 c 0,10,11
 100 1215 100 1215 290 1215 c 0,12,13
 343 1215 343 1215 410 1193 c 1,14,-1
 488 1058 l 1,15,16
 405 1083 405 1083 338 1083 c 0,17,18
 223 1083 223 1083 223 980 c 0,19,20
 223 889 223 889 315 816 c 1,21,22
 397 860 397 860 495 880 c 1,23,-1
 560 758 l 1,24,25
 288 689 288 689 288 540 c 0,26,27
 288 464 288 464 334 419.5 c 128,-1,28
 380 375 380 375 445 375 c 0,29,30
 596 375 596 375 815 580 c 1,31,-1
 815 383 l 1,0,1
EndSplineSet
Validated: 1
Ligature2: "'half' Half Forms in Devanagari lookup 5 subtable" hcircumflex eng
EndChar

StartChar: aringacute
Encoding: 65558 -1 219
Width: 563
GlyphClass: 1
Flags: W
LayerCount: 2
Fore
SplineSet
655 1063 m 1,0,-1
 -3 1063 l 1,1,-1
 -90 1193 l 1,2,-1
 563 1193 l 1,3,-1
 655 1063 l 1,0,-1
715 608 m 1,4,-1
 330 608 l 1,5,-1
 330 503 l 2,6,7
 330 430 330 430 270 430 c 0,8,9
 218 430 218 430 148 516 c 128,-1,10
 78 602 78 602 78 663 c 0,11,12
 78 730 78 730 180 730 c 2,13,-1
 715 730 l 1,14,-1
 715 608 l 1,4,-1
EndSplineSet
Validated: 1
Ligature2: "'half' Half Forms in Devanagari lookup 5 subtable" Hbar eng
EndChar

StartChar: AEacute
Encoding: 65559 -1 220
Width: 500
GlyphClass: 1
Flags: W
LayerCount: 2
Fore
SplineSet
660 463 m 1,0,1
 555 395 555 395 463 395 c 0,2,3
 334 395 334 395 226 495 c 0,4,5
 123 591 123 591 123 693 c 2,6,-1
 123 1063 l 1,7,-1
 0 1063 l 1,8,-1
 -90 1193 l 1,9,-1
 500 1193 l 1,10,-1
 588 1063 l 1,11,-1
 253 1063 l 1,12,-1
 253 663 l 2,13,14
 253 572 253 572 296.5 520 c 128,-1,15
 340 468 340 468 415 468 c 0,16,17
 522 468 522 468 660 633 c 1,18,-1
 660 463 l 1,0,1
EndSplineSet
Validated: 1
Ligature2: "'half' Half Forms in Devanagari lookup 5 subtable" hbar eng
EndChar

StartChar: aeacute
Encoding: 65560 -1 221
Width: 925
GlyphClass: 1
Flags: W
LayerCount: 2
Fore
SplineSet
1050 660 m 1,0,1
 1029 665 1029 665 1015 665 c 0,2,3
 894 665 894 665 745 543 c 1,4,-1
 745 0 l 1,5,-1
 613 98 l 1,6,-1
 613 460 l 1,7,8
 537 413 537 413 460 413 c 0,9,10
 349 413 349 413 239 508 c 0,11,12
 125 607 125 607 125 715 c 2,13,-1
 125 1063 l 1,14,-1
 3 1063 l 1,15,-1
 -90 1193 l 1,16,-1
 925 1193 l 1,17,-1
 1015 1063 l 1,18,-1
 745 1063 l 1,19,-1
 745 708 l 1,20,21
 855 773 855 773 948 773 c 0,22,23
 996 773 996 773 1050 745 c 1,24,-1
 1050 660 l 1,0,1
613 610 m 1,25,-1
 613 1063 l 1,26,-1
 255 1063 l 1,27,-1
 255 665 l 2,28,29
 255 520 255 520 395 520 c 0,30,31
 513 520 513 520 613 610 c 1,25,-1
EndSplineSet
Validated: 1
Ligature2: "'half' Half Forms in Devanagari lookup 5 subtable" Itilde eng
EndChar

